<?xml version="1.0" encoding="UTF-8" standalone="no"?>
<svg
   xmlns:dc="http://purl.org/dc/elements/1.1/"
   xmlns:cc="http://creativecommons.org/ns#"
   xmlns:rdf="http://www.w3.org/1999/02/22-rdf-syntax-ns#"
   xmlns:svg="http://www.w3.org/2000/svg"
   xmlns="http://www.w3.org/2000/svg"
   viewBox="0 0 285.13803 50.272135"
   height="50.272133"
   width="285.13803"
   xml:space="preserve"
   version="1.1"
   id="svg2"><metadata
     id="metadata8"><rdf:RDF><cc:Work
         rdf:about=""><dc:format>image/svg+xml</dc:format><dc:type
           rdf:resource="http://purl.org/dc/dcmitype/StillImage" /><dc:title></dc:title></cc:Work></rdf:RDF></metadata><defs
     id="defs6" /><g
     transform="matrix(1.25,0,0,-1.25,-13.840316,50.148989)"
     id="g10"><g
       id="labs"><path
         d="m 190.95462,31.506603 2.50239,0 0,-22.9925319 -2.50239,0 0,22.9925319 z"
         style="fill:#00adef;fill-opacity:1;fill-rule:nonzero;stroke:none"
         id="path56" /><path
         id="path60"
         style="fill:#00adef;fill-opacity:1;fill-rule:nonzero;stroke:none"
         d="m 206.18603,16.38363 -3.26412,0 c -2.7923,0 -3.19143,-1.341529 -3.19143,-3.227567 0,-1.559585 0.0727,-2.901114 2.57507,-2.901114 1.77681,0 3.22757,1.414214 3.88048,2.756163 l 0,3.372518 z m 0.87054,-7.8693488 -0.47182,1.9944368 c -1.08776,-1.4868995 -3.00993,-2.3574436 -5.00437,-2.3574436 -2.21249,0 -4.38843,1.3058161 -4.38843,4.8598376 0,3.843923 1.88604,5.077053 5.36737,5.077053 l 3.62671,0 0,0.39914 c 0,2.828428 -0.25377,3.80779 -3.73552,3.80779 -1.0155,0 -2.50198,-0.254189 -3.15531,-0.39914 l -0.2899,1.886039 c 0.90668,0.217636 2.9738,0.507958 4.42457,0.507958 3.2637,0 5.25855,-1.305816 5.25855,-4.859838 l 0,-7.434497 0.79786,-3.4813358 -2.42971,0 z" /><path
         id="path64"
         style="fill:#00adef;fill-opacity:1;fill-rule:nonzero;stroke:none"
         d="m 222.68679,17.798096 c 0,2.393576 -0.65291,4.388013 -3.00993,4.388013 -1.41464,0 -3.19144,-0.689041 -4.06156,-1.885619 l 0,-9.719255 c 0.90626,-0.181503 2.35702,-0.326454 3.40865,-0.326454 2.90111,0 3.66284,1.63185 3.66284,4.279195 l 0,3.26412 z m -3.66284,-9.6465696 c -1.4869,0 -2.42971,0.2537686 -3.66284,0.3625866 l -2.24862,0 0,22.992531 2.50281,0 0,-8.776445 c 1.26884,1.015495 2.71961,1.559585 4.49683,1.559585 2.7923,0 5.07705,-1.813354 5.07705,-6.455555 l 0,-3.300253 c 0,-5.258557 -2.93766,-6.3824496 -6.16523,-6.3824496" /><path
         id="path68"
         style="fill:#00adef;fill-opacity:1;fill-rule:nonzero;stroke:none"
         d="m 233.48885,8.1514424 c -1.63185,0 -3.62671,0.5802227 -4.9321,1.3419488 l 0.39914,1.8856188 c 1.30539,-0.689041 3.08219,-1.269264 4.53296,-1.269264 1.77722,0 3.26412,0.290322 3.26412,2.248626 l 0,0.217636 c 0,1.704535 -1.16045,2.320891 -3.01035,2.901113 -2.42971,0.761306 -4.9321,1.378082 -4.9321,4.496831 l 0,0.254189 c 0,3.082197 2.17594,4.061559 5.14973,4.061559 1.55959,0 2.90154,-0.363007 4.35188,-0.906677 l -0.39871,-1.849486 c -1.23314,0.435272 -2.64735,0.870544 -3.80779,0.870544 -1.70454,0 -2.93767,-0.326454 -2.93767,-1.886039 l 0,-0.217636 c 0,-1.886039 2.90111,-2.248205 4.35188,-2.828428 1.9583,-0.761726 3.66284,-1.958724 3.66284,-4.569936 l 0,-0.253769 c 0,-3.6628393 -2.46626,-4.4968306 -5.69383,-4.4968306" /></g><g
       id="zoetrope"><path
         id="path14"
         style="fill:#00adef;fill-opacity:1;fill-rule:nonzero;stroke:none"
         d="m 17.501734,8.5563378 -6.429506,0 21.114896,29.1375982 6.708903,0 L 17.501734,8.5563378 Z" /><path
         id="path26"
         style="fill:#00adef;fill-opacity:1;fill-rule:nonzero;stroke:none"
         d="m 43.988878,26.750121 c -3.009091,0 -4.166595,-1.342789 -4.166595,-3.888878 l 0,-6.064399 c 0,-2.546089 1.157504,-3.888878 4.166595,-3.888878 3.009091,0 4.166595,1.342789 4.166595,3.888878 l 0,6.064399 c 0,2.546089 -1.157504,3.888878 -4.166595,3.888878 m 0,-18.6566169 c -7.731121,0 -9.814628,4.2590279 -9.814628,8.8886249 l 0,5.693829 c 0,4.629597 2.083507,8.888625 9.814628,8.888625 7.731121,0 9.814208,-4.259028 9.814208,-8.888625 l 0,-5.693829 c 0,-4.629597 -2.083087,-8.8886249 -9.814208,-8.8886249" /><path
         id="path30"
         style="fill:#00adef;fill-opacity:1;fill-rule:nonzero;stroke:none"
         d="m 63.09354,22.213208 7.175687,0 0,1.111288 c 0,2.129304 -0.647867,3.610741 -3.425457,3.610741 -2.77801,0 -3.75023,-1.481437 -3.75023,-3.610741 l 0,-1.111288 z m 4.398096,-9.490275 c 2.17594,0 4.444313,0.323933 6.89797,1.064652 L 75.269393,9.528137 C 72.722884,8.5563376 69.667576,8.0933358 66.982418,8.0933358 c -7.083254,0 -9.536491,3.2868082 -9.536491,8.7033402 l 0,5.971966 c 0,4.768666 2.129304,8.796193 9.351207,8.796193 7.222322,0 8.842408,-4.212812 8.842408,-9.07391 l 0,-4.814462 -12.546002,0 0,-1.157504 c 0,-2.731374 0.97222,-3.796026 4.398096,-3.796026" /><path
         id="path34"
         style="fill:#00adef;fill-opacity:1;fill-rule:nonzero;stroke:none"
         d="m 92.670485,8.9729974 c -1.20372,-0.5092179 -3.518309,-0.8797873 -4.95353,-0.8797873 -4.12038,0 -6.203467,1.9444389 -6.203467,5.9723859 l 0,12.545583 -3.379661,0 0,4.490528 3.379661,0 0,6.592103 5.648033,0 0,-6.592103 5.786681,0 -0.370569,-4.490528 -5.416112,0 0,-11.805284 c 0,-1.2033 0.555434,-1.990235 2.036871,-1.990235 0.833151,0 1.852007,0.184864 2.824227,0.462581 l 0.647866,-4.3052436 z" /><path
         id="path38"
         style="fill:#00adef;fill-opacity:1;fill-rule:nonzero;stroke:none"
         d="m 108.27932,26.379804 c -2.17594,-0.97222 -3.93509,-1.990655 -5.97197,-3.286808 l 0,-14.5366579 -5.648029,0 0,22.5454949 4.768249,0 0.37057,-2.499873 c 1.24993,0.833151 3.93509,2.407441 5.92575,2.962875 l 0.55543,-5.185031 z" /><path
         id="path42"
         style="fill:#00adef;fill-opacity:1;fill-rule:nonzero;stroke:none"
         d="m 120.4324,26.750121 c -3.00909,0 -4.1666,-1.342789 -4.1666,-3.888878 l 0,-6.064399 c 0,-2.546089 1.15751,-3.888878 4.1666,-3.888878 3.00909,0 4.1666,1.342789 4.1666,3.888878 l 0,6.064399 c 0,2.546089 -1.15751,3.888878 -4.1666,3.888878 m 0,-18.6566169 c -7.73112,0 -9.81463,4.2590279 -9.81463,8.8886249 l 0,5.693829 c 0,4.629597 2.08351,8.888625 9.81463,8.888625 7.73112,0 9.81421,-4.259028 9.81421,-8.888625 l 0,-5.693829 c 0,-4.629597 -2.08309,-8.8886249 -9.81421,-8.8886249" /><path
         id="path46"
         style="fill:#00adef;fill-opacity:1;fill-rule:nonzero;stroke:none"
         d="m 140.17135,13.50991 c 1.48144,-0.323933 3.37966,-0.60207 4.99975,-0.60207 2.03687,0 2.82422,0.972219 2.82422,3.009511 l 0,7.962621 c 0,1.851587 -0.6945,2.870023 -2.77801,2.870023 -1.85158,0 -3.84224,-0.926004 -5.04596,-2.036872 l 0,-11.203213 z m 13.47159,2.546089 c 0,-4.999746 -2.22216,-7.962621 -7.45341,-7.962621 -1.99065,0 -4.25903,0.277717 -6.01818,0.6478663 l 0,-6.8853651 -5.64803,0 0,29.2459958 4.49095,0 0.55501,-1.898223 c 1.99108,1.435221 4.30566,2.361225 7.12989,2.361225 4.53674,0 6.94377,-2.685158 6.94377,-7.823973 l 0,-7.684905 z" /><path
         id="path50"
         style="fill:#00adef;fill-opacity:1;fill-rule:nonzero;stroke:none"
         d="m 163.04011,22.213208 7.17569,0 0,1.111288 c 0,2.129304 -0.64787,3.610741 -3.42546,3.610741 -2.77801,0 -3.75023,-1.481437 -3.75023,-3.610741 l 0,-1.111288 z m 4.3981,-9.490275 c 2.17594,0 4.44431,0.323933 6.89797,1.064652 l 0.87978,-4.259448 c -2.54651,-0.9717994 -5.60181,-1.4348012 -8.28697,-1.4348012 -7.08326,0 -9.53649,3.2868082 -9.53649,8.7033402 l 0,5.971966 c 0,4.768666 2.1293,8.796193 9.3512,8.796193 7.22233,0 8.84241,-4.212812 8.84241,-9.07391 l 0,-4.814462 -12.546,0 0,-1.157504 c 0,-2.731374 0.97222,-3.796026 4.3981,-3.796026" /><path
         id="path54"
         style="fill:#00adef;fill-opacity:1;fill-rule:nonzero;stroke:none"
         d="m 25.801313,12.90784 -3.325882,0 -3.193955,-4.35146 6.519837,0 5.244272,0 0,4.35146 0,1.555383 -5.244272,0 0,-1.555383 z m -6.27027,12.287192 -5.244272,0 0,1.554963 0,4.35188 5.244272,0 6.103052,0 -3.160344,-4.35188 -2.942708,0 0,-1.554963 z" /><path
         id="path72"
         style="fill:none;stroke:#00adef;stroke-width:0.42014676;stroke-linecap:butt;stroke-linejoin:miter;stroke-miterlimit:10;stroke-dasharray:none;stroke-opacity:1"
         d="M 38.896153,37.693768 17.535051,9.3313408" /></g><path
       d="m 183.49281,-0.09851735 0,0 c -0.23192,0 -0.42015,0.18822575 -0.42015,0.42014676 l 0,39.37741459 c 0,0.231921 0.18823,0.420147 0.42015,0.420147 0.23192,0 0.42015,-0.188226 0.42015,-0.420147 l 0,-39.37741459 c 0,-0.23192101 -0.18823,-0.42014676 -0.42015,-0.42014676"
       style="fill:#00adef;fill-opacity:1;fill-rule:nonzero;stroke:none"
       id="bar" /></g></svg>