<svg id="Layer_1" data-name="Layer 1" xmlns="http://www.w3.org/2000/svg" viewBox="0 0 609 122.25"><defs><style>.cls-1{fill:#009fe3}.cls-2{fill:none;stroke:#009fe3;stroke-miterlimit:10}</style></defs><title>Zoetrope Labs Logo</title><path class="cls-1" d="M48.92 86.23h-15.3l50.25-69.35h15.97L48.92 86.23zm63.08 1.1c-18.4 0-23.36-10.14-23.36-21.16V52.62c0-11 5-21.16 23.36-21.16s23.36 10.14 23.36 21.16v13.56c-.04 11.01-5 21.15-23.36 21.15zm0-44.41c-7.16 0-9.92 3.2-9.92 9.26v14.44c0 6.06 2.76 9.26 9.92 9.26s9.92-3.2 9.92-9.26V52.18c-.04-6.06-2.79-9.25-9.92-9.25zm55.9 33.39a56.25 56.25 0 0 0 16.42-2.53l2.09 10.14a57.62 57.62 0 0 1-19.72 3.42c-16.86 0-22.7-7.82-22.7-20.72V52.4c0-11.35 5.07-20.94 22.26-20.94s21 10 21 21.6v11.46h-29.81v2.75c0 6.51 2.31 9.04 10.46 9.04zm-10.46-22.58h17.08v-2.65c0-5.07-1.54-8.59-8.15-8.59s-8.93 3.53-8.93 8.59zm70.39 31.51A37.28 37.28 0 0 1 216 87.33c-9.81 0-14.77-4.63-14.77-14.21V43.26h-8V32.57h8V16.88h13.44v15.69h13.77l-.88 10.69h-12.84v28.1c0 2.86 1.32 4.74 4.85 4.74a25.86 25.86 0 0 0 6.72-1.1zM265 43.81a105.23 105.23 0 0 0-14.21 7.82v34.6h-13.46V32.57h11.35l.88 6c3-2 9.37-5.73 14.1-7.05zm28.91 43.52c-18.4 0-23.36-10.14-23.36-21.16V52.62c0-11 5-21.16 23.36-21.16s23.36 10.14 23.36 21.16v13.56c0 11.01-4.96 21.15-23.36 21.15zm0-44.41c-7.16 0-9.92 3.2-9.92 9.26v14.44c0 6.06 2.76 9.26 9.92 9.26s9.92-3.2 9.92-9.26V52.18c0-6.06-2.76-9.25-9.92-9.25zM373 68.38c0 11.9-5.29 19-17.74 19a74.1 74.1 0 0 1-14.32-1.54v16.39h-13.49V32.57h10.69l1.32 4.52a28.24 28.24 0 0 1 17-5.62c10.8 0 16.53 6.39 16.53 18.62zm-32.06 6.06a59.6 59.6 0 0 0 11.9 1.43c4.85 0 6.72-2.31 6.72-7.16v-19c0-4.41-1.65-6.83-6.61-6.83a19 19 0 0 0-12 4.85zm64.85 1.87a56.25 56.25 0 0 0 16.42-2.53l2.09 10.14a57.62 57.62 0 0 1-19.72 3.42c-16.86 0-22.7-7.82-22.7-20.72V52.4c0-11.35 5.07-20.94 22.26-20.94s21 10 21 21.6v11.46h-29.82v2.75c0 6.51 2.31 9.04 10.47 9.04zm-10.47-22.58h17.08v-2.65c0-5.07-1.54-8.59-8.15-8.59s-8.93 3.53-8.93 8.59zm-341.57-7.1H41.27V32.57h27l-7.51 10.36h-7zm14.93 29.24h-7.92l-7.6 10.36h28V72.17H68.68zm393.08 10.46V31.61h6v54.72zm38.32 0L499 81.58a14.79 14.79 0 0 1-11.91 5.61c-5.27 0-10.44-3.11-10.44-11.57 0-9.15 4.49-12.08 12.77-12.08H498v-.95c0-6.73-.6-9.06-8.89-9.06a42.18 42.18 0 0 0-7.51.95l-.68-4.48a56.22 56.22 0 0 1 10.53-1.21c7.77 0 12.52 3.11 12.52 11.57V78l1.9 8.29zM498 67.6h-7.77c-6.65 0-7.6 3.19-7.6 7.68 0 3.71.17 6.91 6.13 6.91 4.23 0 7.68-3.37 9.24-6.56zm30.57 19.59c-3.54 0-5.78-.6-8.72-.86h-5.35V31.61h6v20.88a16.46 16.46 0 0 1 10.7-3.71c6.65 0 12.08 4.32 12.08 15.36V72c-.04 12.52-7.03 15.19-14.71 15.19zm8.72-23c0-5.7-1.55-10.44-7.16-10.44-3.37 0-7.6 1.64-9.67 4.49v23.17a48 48 0 0 0 8.11.78c6.91 0 8.72-3.88 8.72-10.19zm25.71 23A25.62 25.62 0 0 1 551.26 84l.95-4.49a25.33 25.33 0 0 0 10.79 3c4.23 0 7.77-.69 7.77-5.35v-.52c0-4.06-2.76-5.52-7.16-6.91-5.78-1.81-11.74-3.28-11.74-10.7v-.6c0-7.34 5.18-9.67 12.26-9.67a28.52 28.52 0 0 1 10.36 2.16l-.95 4.4c-2.94-1-6.3-2.07-9.06-2.07-4.06 0-7 .78-7 4.49v.52c0 4.49 6.91 5.35 10.36 6.73 4.66 1.81 8.72 4.66 8.72 10.88v.6c-.01 8.74-5.88 10.72-13.56 10.72z"/><path class="cls-2" d="M99.84 16.88L49 84.39"/><rect class="cls-1" x="443" y="11.11" width="2" height="95.72" rx="1" ry="1"/></svg>