<svg viewBox="0 0 100 92" xmlns="http://www.w3.org/2000/svg"><title>Code</title><path d="M0 0v14h1v-1.5h97.5v72.493h1V0H0zm1 11.5h97.5V1H1v10.5zm16.943-4.833h3.74v-1h-3.74v1zm-6.471 0h3.74v-1h-3.74v1zM5 6.667h3.738v-1H5v1zM0 83.075h1V14.001H0v69.074zm45.227-18.552l.96.28 8.879-30.492-.96-.279-8.879 30.491zM26.15 49.416L38.959 59.57l.621-.783-11.82-9.37 11.82-9.372-.621-.783L26.15 49.416zm33.77-9.37l11.82 9.37-11.82 9.37.621.783L73.35 49.416 60.541 39.263l-.621.783zM98.5 86.912v1.5H97v1h2.5v-2.5h-1zm-98.5 0v2.5h2.5v-1H1v-1.5H0zm4.555 2.5h88.338v-1H4.555v1z" fill="#009EE2" fill-rule="evenodd"/></svg>