<svg width="98" height="98" viewBox="0 0 98 98" xmlns="http://www.w3.org/2000/svg"><title>ZT_Icon_Money_Cog</title><g stroke="#FFF" fill="none" fill-rule="evenodd"><path d="M96.999 56.58L97 43.106l-11.977-.998A36.486 36.486 0 0 0 80.3 29.871l8.002-9.452-9.527-9.527-9.171 7.76a36.498 36.498 0 0 0-11.995-5.305L56.58 1H43.105l-.997 11.977A36.453 36.453 0 0 0 29.872 17.7l-9.452-8-9.53 9.527 7.761 9.172a36.496 36.496 0 0 0-5.306 11.993l-12.342 1.03L1 54.896l11.977.998A36.431 36.431 0 0 0 17.7 68.127l-8 9.455 9.527 9.528 9.17-7.76a36.433 36.433 0 0 0 11.994 5.303L41.42 97h13.474l.999-11.976A36.47 36.47 0 0 0 68.128 80.3l9.452 8 9.53-9.527-7.76-9.17a36.543 36.543 0 0 0 5.303-11.994L97 56.579z"/><path d="M73 49c0 13.254-10.745 24-24 24-13.254 0-24-10.746-24-24 0-13.256 10.746-24 24-24 13.255 0 24 10.744 24 24z"/><path d="M50.758 35c3.45 0 5.773 1.208 7.172 5.422.034.103 0 .136-.1.172l-.172.07c-.136.068-.17 0-.204-.106-1.332-3.934-3.383-5.073-6.696-5.073-4.542 0-6.216 2.382-6.216 5.419v7.148h10.246c.103 0 .137.036.137.138v.207c0 .105-.034.14-.137.14H44.542v7.18c0 1.348-.444 2.866-1.709 3.765v.033h15.031c.1 0 .136.036.136.14v.207c0 .103-.036.138-.137.138H40.137c-.104 0-.137-.035-.137-.138v-.207c0-.104.033-.14.137-.14h.92c2.188 0 2.973-2.242 2.973-3.797v-7.182h-3.417c-.102 0-.136-.034-.136-.139v-.207c0-.102.034-.138.136-.138h3.417v-7.148c0-3.313 1.843-5.904 6.728-5.904z"/></g></svg>