<svg width="138" height="104" viewBox="0 0 138 104" xmlns="http://www.w3.org/2000/svg"><title>ZT_Icon_Key_Cloud</title><g stroke="#009EE2" fill="none" fill-rule="evenodd"><path d="M120.88 83h4.463c.003-.016.669 0 1.001 0C132.782 83 138 77.783 138 71.347c0-6.312-5.027-11.443-11.298-11.628a26.17 26.17 0 0 0 .187-3.015c0-14.053-11.393-25.448-25.458-25.448-2.384 0-4.689.352-6.88.966C92.054 14.029 76.45 0 57.548 0 36.913 0 20.186 16.721 20.186 37.334c0 .082.006.165.006.247C8.83 38.878 0 48.507 0 60.212 0 72.797 10.205 83 22.798 83"/><path d="M95 41.651A16.232 16.232 0 0 1 99.473 41C108.586 41 116 48.612 116 57.968c0 .601-.044 1.265-.13 2.032M30.006 39L30 38.746C30 22.954 43.01 10 59 10M10 61c0-7.17 5.59-13.19 13-14m88.93 26.797H68.889C65.568 66.264 58.08 61 49.363 61 37.564 61 28 70.626 28 82.5S37.564 104 49.363 104c9.032 0 16.739-5.649 19.862-13.62l1.154.302 8.074-2.115 8.08 2.115 8.074-2.115 8.073 2.115 7.214-1.89L116 85.056v-6.141l-4.07-5.12zM36 83h5"/></g></svg>