<svg width="96" height="101" viewBox="0 0 96 101" xmlns="http://www.w3.org/2000/svg"><title>ZT_Icon_Record</title><g stroke="#009EE2" fill="none" fill-rule="evenodd"><path d="M83.657 35.565v-14.32M64.803 2.387H16v33.179M67.983.207v17.858h17.854L67.983.207zm4 9.659l4.198 4.199h-4.198V9.866zM25.06 16.413h20.063m-20.431 8.569h47.654m-47.654 8.57h47.654M24.692 67.83h47.654M24.692 76.4h47.654M13.514 59.307L.887 50.692l12.63-8.615v-.002"/><path d="M85.582 40.108l-71.562.001v21.162l71.562.001V40.108zm-4 4v13.164H18.02V44.108h63.563z" stroke-linecap="round" stroke-linejoin="bevel"/><path d="M88.582 59.19l5.542.001c.686 0 1.232-.834 1.234-1.867l-.002-13.26c.002-1.038-.548-1.875-1.232-1.875h-5.541M16 65.815v24.14h39.528l4.724 2.727 12.094 6.983v-9.71h11.31v-24.14"/></g></svg>