<svg width="95" height="53" viewBox="0 0 95 53" xmlns="http://www.w3.org/2000/svg"><title>ZT_Icon_Server</title><path d="M.5 52.3h93.785V1.5H.5zm1.953-28.636h89.878M8.805 29.567V43.02m8.465-13.453v5.636m8.468-5.636v5.636m8.465-5.636v5.636m8.467-5.636v5.636m8.467-5.636v5.636m8.467-5.636v5.636m8.468-5.636v5.636m8.465-5.636v5.636m8.469-5.636V43.02M8.805 8.336v9.435m8.465-9.435v9.435m8.468-9.435v9.435m8.465-9.435v9.435m8.467-9.435v9.435m8.467-9.435v9.435m8.467-9.435v9.435m25.402-9.435v9.435M71.814 40.578h7.328m-16.362 0h7.328m-13.677 0h4.64m-14.655 0h8.06m-14.41 0h4.15m-13.673 0H38.6m-14.897 0h3.42m-12.457 0h6.675" stroke="#009EE2" fill="none" fill-rule="evenodd"/></svg>