<svg width="99" height="59" viewBox="0 0 99 59" xmlns="http://www.w3.org/2000/svg" xmlns:xlink="http://www.w3.org/1999/xlink"><title>ZT_Icon_Cloud</title><defs><path id="a" d="M.664.5H4.97V1H.664z"/></defs><g fill="none" fill-rule="evenodd"><g transform="translate(44 57.898)"><mask id="b" fill="#fff"><use xlink:href="#a"/></mask><path stroke="#009EE2" mask="url(#b)" d="M.664.5H4.97"/></g><path d="M59.977 58.398h28.909c.002-.01.466 0 .697 0a8.126 8.126 0 0 0 8.126-8.129 8.115 8.115 0 0 0-7.877-8.11c.081-.694.132-1.39.132-2.103 0-9.803-7.943-17.752-17.749-17.752a17.77 17.77 0 0 0-4.798.674C65.678 10.285 54.8.5 41.622.5 27.235.5 15.573 12.165 15.573 26.544c0 .056.004.114.004.171C7.657 27.62 1.5 34.337 1.5 42.502c0 8.78 7.116 15.896 15.895 15.896h16.853" stroke="#009EE2"/><path d="M68.036 29.755a11.823 11.823 0 0 1 3.18-.451c6.478 0 11.749 5.272 11.749 11.752 0 .416-.031.876-.092 1.407M22.577 27.628l-.004-.176c0-10.961 8.994-19.952 20.049-19.952M8.5 43.502a9.878 9.878 0 0 1 8.757-9.824" stroke="#009EE2"/></g></svg>