<svg width="112" height="107" viewBox="0 0 112 107" xmlns="http://www.w3.org/2000/svg"><title>ZT_Icon_Money_Hand</title><g fill="none" fill-rule="evenodd"><path d="M17.069 56.472l-3.005-5.536c.098-.039.186-.082.284-.113l2.313-.755c3.839-1.247 7.785 1.54 9.67 5.197l6.939 10.647" stroke="#FFF"/><path d="M78.267 87.102H62.153L24.718 73.207.736 56.707c.068-.08.128-.158.2-.232l1.72-1.72c2.857-2.854 7.637-2.158 10.976.247l14.264 8.215 5.61 3.263H57.55h-.005l-14.907.035c-3.82-.11-6.828-4.365-6.72-8.188l.093-.964h26.598l10.285 9.042h5.373m33.717-6.514H81.421v45.682h11.563" stroke="#FFF"/><path d="M51 20.667V8m-10 4.667V0" stroke="#FEFEFE"/><path d="M31.293 21V8.333m-2.12 27.807c0 6.765 5.484 12.254 12.254 12.254 6.767 0 12.251-5.489 12.251-12.255 0-6.76-5.484-12.25-12.25-12.25-6.77 0-12.255 5.49-12.255 12.25zm56.929 62.5h3.832" stroke="#FFF"/></g></svg>