<svg width="302" height="469" viewBox="0 0 302 469" xmlns="http://www.w3.org/2000/svg"><title>ZT_How_ZT_Helps_Diagram</title><g fill="none" fill-rule="evenodd"><path d="M136 57.503C136 88.703 110.479 114 79.001 114 47.517 114 22 88.703 22 57.503 22 26.299 47.517 1 79.001 1 110.479 1 136 26.3 136 57.503z" stroke="#009EE2" stroke-width=".847"/><path d="M135 56.999C135 87.927 109.923 113 78.998 113 48.069 113 23 87.927 23 56.999 23 26.075 48.069 1 78.998 1 109.923 1 135 26.075 135 56.999z" stroke="#009EE2" stroke-width=".847"/><path d="M112 56.999C112 87.927 97.448 113 79.508 113 61.56 113 47 87.927 47 56.999 47 26.075 61.56 1 79.508 1 97.448 1 112 26.075 112 56.999z" stroke="#009EE2" stroke-width=".847"/><path d="M79 113c30.924 0 56-25.073 56-56.001C135 26.075 109.924 1 79 1v112z" stroke="#009EE2" stroke-width=".847"/><path d="M23 58.002c0 7.051 1.326 13.772 3.636 19.998h104.716c2.32-6.226 3.648-12.947 3.648-19.998 0-7.05-1.328-13.774-3.648-20.002H26.644C24.326 44.228 23 50.953 23 58.002z" stroke="#009EE2" stroke-width=".847"/><path fill="#2D4254" d="M99.773 192L55 253h13.633L114 192z"/><path d="M111.732 199.697l-1.275 1.736c6.472 7.377 10.43 17.007 10.43 27.568 0 23.096-18.787 41.884-41.885 41.884s-41.888-18.788-41.888-41.884c0-23.098 18.79-41.886 41.888-41.886 6.265 0 12.192 1.422 17.535 3.897l1.259-1.736C92.086 186.563 85.732 185 79.002 185 54.74 185 35 204.74 35 229.001 35 253.261 54.74 273 79.002 273 103.264 273 123 253.262 123 229.001c0-11.26-4.286-21.512-11.268-29.304" fill="#009EE2"/><path fill="#2D4254" d="M100.764 190L55 253h13.641L115 190zm-14.909 54.16h-7.068L72 253h25v-12H85.855zm-12.763-29.32h6.223L86 206H62v12h11.092z"/><path d="M79 187v-51" stroke="#009EE2" stroke-width="1.135"/><path d="M83 136a4 4 0 1 0-8.002 0A4 4 0 0 0 83 136" fill="#FEFEFE"/><path d="M75.172 136.001A3.83 3.83 0 0 0 79 139.828 3.83 3.83 0 0 0 82.825 136 3.83 3.83 0 0 0 79 132.174a3.83 3.83 0 0 0-3.828 3.827c0 2.11 0-2.11 0 0m8.828 0A5.006 5.006 0 0 1 79 141c-2.756 0-5-2.243-5-4.999A5.006 5.006 0 0 1 79 131c2.756 0 5 2.243 5 5.001 0 2.756 0-2.758 0 0" fill="#009EE2"/><path d="M146.872 63h15.63" stroke="#009EE2" stroke-width="1.135"/><path d="M166.999 59.172A3.83 3.83 0 0 0 163.172 63 3.83 3.83 0 0 0 167 66.825 3.83 3.83 0 0 0 170.826 63a3.83 3.83 0 0 0-3.827-3.828c-2.11 0 2.11 0 0 0m0 8.828A5.006 5.006 0 0 1 162 63c0-2.756 2.243-5 4.999-5A5.006 5.006 0 0 1 172 63c0 2.756-2.243 5-5.001 5-2.756 0 2.758 0 0 0" fill="#009EE2"/><path d="M146.872 237h15.63" stroke="#009EE2" stroke-width="1.135"/><path d="M166.999 233.172a3.83 3.83 0 0 0-3.827 3.828 3.83 3.83 0 0 0 3.827 3.825 3.83 3.83 0 0 0 3.827-3.825 3.83 3.83 0 0 0-3.827-3.828c-2.11 0 2.11 0 0 0m0 8.828a5.006 5.006 0 0 1-4.999-5c0-2.756 2.243-5 4.999-5a5.006 5.006 0 0 1 5.001 5c0 2.756-2.243 5-5.001 5-2.756 0 2.758 0 0 0" fill="#009EE2"/><path d="M146.872 411h15.63" stroke="#009EE2" stroke-width="1.135"/><path d="M166.999 407.172a3.83 3.83 0 0 0-3.827 3.828 3.83 3.83 0 0 0 3.827 3.825 3.83 3.83 0 0 0 3.827-3.825 3.83 3.83 0 0 0-3.827-3.828c-2.11 0 2.11 0 0 0m0 8.828a5.006 5.006 0 0 1-4.999-5c0-2.756 2.243-5 4.999-5a5.006 5.006 0 0 1 5.001 5c0 2.756-2.243 5-5.001 5-2.756 0 2.758 0 0 0" fill="#009EE2"/><path d="M79 342v-51" stroke="#009EE2" stroke-width="1.135"/><path d="M83 291a4 4 0 1 0-8 0 4 4 0 0 0 8 0" fill="#FEFEFE"/><path d="M75.172 291A3.83 3.83 0 0 0 79 294.828 3.83 3.83 0 0 0 82.825 291 3.83 3.83 0 0 0 79 287.172 3.83 3.83 0 0 0 75.172 291c0 2.111 0-2.111 0 0M84 291c0 2.756-2.244 5-5 5s-5-2.244-5-5 2.244-5 5-5 5 2.244 5 5 0-2.756 0 0" fill="#009EE2"/><path stroke="#009EE2" stroke-width=".796" d="M27 404v33.873L79.495 468 132 437.873V404m-53 60v-58"/><path stroke="#009EE2" stroke-width=".796" d="M134.279 374L79 405.774 103.717 420 159 388.224z"/><path stroke="#009EE2" stroke-width=".796" d="M24.717 374L80 405.774 55.279 420 0 388.224zm54.785-31.7L24.562 374 0 359.81l56.44-32.567L79.502 342.3l54.93 31.7L159 359.81 102.132 327z"/><text font-family="Montserrat-Bold, Montserrat" font-size="12" font-weight="bold" fill="#009FE3" transform="translate(0 1)"><tspan x="184" y="415">Your product</tspan></text><text font-family="Montserrat-Bold, Montserrat" font-size="12" font-weight="bold" fill="#009FE3" transform="translate(0 1)"><tspan x="184" y="240">ZConnect platform</tspan></text><text font-family="Montserrat-Bold, Montserrat" font-size="12" font-weight="bold" fill="#009FE3" transform="translate(0 1)"><tspan x="184" y="54">Reporting, controls </tspan> <tspan x="184" y="69">and Data</tspan></text></g></svg>