<svg width="491" height="366" viewBox="0 0 491 366" xmlns="http://www.w3.org/2000/svg" xmlns:xlink="http://www.w3.org/1999/xlink"><title>ZT_Nutshell_Diagram</title><defs><path id="a" d="M0 .216h5.803v6.391H0z"/><path id="c" d="M0 200.884h448.76V.734H0z"/></defs><g fill="none" fill-rule="evenodd"><text font-family="Montserrat-Bold, Montserrat" font-size="12" font-weight="bold" fill="#009FE3" transform="translate(-26 -2)"><tspan x="55.584" y="12">Your Product</tspan></text><text font-family="Montserrat-Bold, Montserrat" font-size="12" font-weight="bold" fill="#009FE3" transform="translate(-26 -2)"><tspan x="213.254" y="365">Integrations</tspan></text><text font-family="Montserrat-Bold, Montserrat" font-size="12" font-weight="bold" fill="#009FE3" transform="translate(-26 -2)"><tspan x="220.764" y="268">ZConnect </tspan> <tspan x="232.47" y="283">Cloud</tspan></text><text font-family="Montserrat-Bold, Montserrat" font-size="12" font-weight="bold" fill="#009FE3" transform="translate(-26 -2)"><tspan x="66.264" y="268">ZConnect </tspan> <tspan x="65.532" y="283">Hardware</tspan></text><text font-family="Montserrat-Bold, Montserrat" font-size="12" font-weight="bold" fill="#009FE3" transform="translate(-26 -2)"><tspan x="369.764" y="268">ZConnect</tspan> <tspan x="393.092" y="283">UI</tspan></text><text font-family="Montserrat-Bold, Montserrat" font-size="12" font-weight="bold" fill="#009FE3" transform="translate(-26 -2)"><tspan x="370.302" y="12">Your App</tspan></text><text font-family="Montserrat-Bold, Montserrat" font-size="12" font-weight="bold" fill="#009FE3" transform="translate(-26 -2)"><tspan x="184.55" y="12">Your Data processing</tspan></text><path d="M490.503 2.775c0-1.547-1.233-2.802-2.752-2.802-1.519 0-2.751 1.255-2.751 2.802 0 1.548 1.232 2.801 2.75 2.801 1.52 0 2.753-1.253 2.753-2.8M3 245.107a2.135 2.135 0 1 0 4.27 0 2.135 2.135 0 0 0-4.27 0M7.269 30.108a2.135 2.135 0 1 0-4.27 0 2.135 2.135 0 0 0 4.27 0" fill="#FEFEFE"/><path d="M224.902 305v33.964" stroke="#009EE2" stroke-width="1.135"/><path d="M222.341 338.804c0 1.558 1.146 2.821 2.56 2.821 1.416 0 2.563-1.263 2.563-2.821 0-1.558-1.147-2.82-2.562-2.82-1.415 0-2.561 1.262-2.561 2.82" fill="#FEFEFE"/><g transform="translate(222 335.393)"><mask id="b" fill="#fff"><use xlink:href="#a"/></mask><path d="M5.122 3.411c0-1.349-.996-2.446-2.22-2.446-1.225 0-2.22 1.097-2.22 2.446 0 1.35.995 2.446 2.22 2.446 1.224 0 2.22-1.097 2.22-2.446 0-1.349 0 1.35 0 0M0 3.411C0 1.65 1.302.216 2.9.216c1.6 0 2.903 1.434 2.903 3.195 0 1.763-1.303 3.197-2.903 3.197S0 5.174 0 3.41c0-1.761 0 1.763 0 0" fill="#009EE2" mask="url(#b)"/></g><path stroke="#009EE2" stroke-width=".541" stroke-linecap="round" stroke-linejoin="round" d="M67.5 106L17 54h101z"/><path stroke="#009EE2" stroke-width=".541" d="M91 54.15L68.405 106 48.554 59.927 46 54"/><g stroke="#009EE2" stroke-width=".541"><path stroke-linecap="round" stroke-linejoin="round" d="M17.286 54.986h100.735l-13.856-20.608H31.147z"/><path d="M90.043 54.986L67.653 34.17 45.451 54.986"/></g><path d="M44 54L31 34" stroke="#009EE2" stroke-width=".541"/><g transform="translate(0 33)"><path stroke="#009EE2" stroke-width=".541" stroke-linejoin="round" d="M89.998 21.851l14.1-20.384h.034L118 21.851z"/><path d="M275.966 60.113l.001-14.222-12.629-1.053a38.529 38.529 0 0 0-4.98-12.915l8.436-9.977-10.046-10.056-9.67 8.192a38.468 38.468 0 0 0-12.648-5.6L233.345 1.45h-14.207l-1.052 12.641a38.44 38.44 0 0 0-12.902 4.985l-9.967-8.443-10.049 10.055 8.184 9.68a38.506 38.506 0 0 0-5.593 12.66l-13.017 1.087-.002 14.22 12.629 1.053A38.474 38.474 0 0 0 192.35 72.3l-8.436 9.98 10.046 10.056 9.67-8.19a38.399 38.399 0 0 0 12.646 5.597l1.086 13.032h14.207l1.054-12.64c4.647-.886 9-2.598 12.9-4.987l9.968 8.445 10.047-10.056-8.182-9.68a38.589 38.589 0 0 0 5.592-12.658l13.018-1.086z" stroke="#009EE2"/><path d="M250.661 52.113c0 13.99-11.33 25.331-25.307 25.331-13.976 0-25.308-11.341-25.308-25.331s11.332-25.33 25.308-25.33c13.977 0 25.307 11.34 25.307 25.33z" stroke="#009EE2"/><path d="M400.885 102.68a3.322 3.322 0 0 1-3.32 3.326h-46.504a3.321 3.321 0 0 1-3.32-3.326V4.6a3.321 3.321 0 0 1 3.32-3.325h46.504a3.322 3.322 0 0 1 3.32 3.325v98.08zm-.361-11.144h-52.421m-.001-75.789h52.422m-35.088-7.044h17.754m-11.046 89.718h4.336" stroke="#009EE2" stroke-width=".756"/><path d="M375.539 32.65l3.237 6.567c.197.403.583.684 1.029.749l7.238 1.051c1.122.164 1.568 1.543.758 2.334l-5.24 5.112a1.363 1.363 0 0 0-.39 1.21l1.235 7.217c.192 1.117-.98 1.969-1.983 1.44l-6.475-3.407a1.373 1.373 0 0 0-1.271 0l-6.474 3.408c-1.003.528-2.175-.324-1.982-1.44l1.235-7.218a1.368 1.368 0 0 0-.393-1.21l-5.239-5.112c-.81-.791-.363-2.17.758-2.334l7.238-1.051a1.366 1.366 0 0 0 1.03-.75l3.238-6.565c.501-1.016 1.95-1.016 2.45 0" fill="#009EE2"/><path d="M442.665 129.496c0 36.058-29.2 65.287-65.224 65.287-13.933 0-26.835-4.362-37.427-11.822-.044-.045-.101-.073-.144-.115l-.015-.016h-.013v-.014l-1.635-1.16c-10.565-7.392-23.41-11.711-37.271-11.711-14.12 0-27.194 4.491-37.859 12.11v.016c-.372.271-.745.545-1.132.802-.359.259-.731.503-1.104.76a52.559 52.559 0 0 1-3.928 2.454c-.344.201-.688.404-1.032.59-.272.157-.545.302-.801.43a.12.12 0 0 1-.058.028c-.316.172-.632.344-.947.504-.473.242-.946.473-1.42.703-.43.213-.874.414-1.304.615-.1.058-.2.102-.3.13-.072.028-.158.071-.23.101-.416.185-.832.372-1.262.544-.415.187-.845.359-1.261.517-.5.2-.99.387-1.49.574-.501.186-1.004.373-1.506.53a60.43 60.43 0 0 1-1.534.488c-1.018.332-2.05.617-3.096.89-.387.115-.789.2-1.19.301-.674.16-1.348.302-2.02.445-.114.016-.23.043-.345.073-.144.028-.301.058-.459.085a.765.765 0 0 0-.186.03c-.574.113-1.16.214-1.75.301-.515.085-1.046.171-1.576.229a4.562 4.562 0 0 1-.457.057c-.26.043-.532.073-.805.1-.143.015-.286.03-.43.043-.401.045-.817.1-1.217.13-.057 0-.101.014-.159.014-.23.014-.458.043-.688.057-.717.058-1.448.1-2.193.13h-.185c-.416.028-.847.028-1.292.042-.43.015-.874.015-1.304.015h-.057c-.86 0-1.735-.015-2.58-.058a65.278 65.278 0 0 1-2.395-.129 3.771 3.771 0 0 0-.401-.027c-.559-.057-1.104-.102-1.647-.16-.416-.057-.833-.1-1.249-.157a4.092 4.092 0 0 1-.6-.086 21.75 21.75 0 0 1-1.35-.187c-.616-.1-1.232-.2-1.834-.314-.315-.057-.63-.13-.945-.188-.044 0-.073-.014-.102-.014a91.547 91.547 0 0 1-2.048-.458 28.678 28.678 0 0 1-1.507-.389 54.756 54.756 0 0 1-2.035-.574c-.674-.2-1.333-.4-2.006-.631a65.605 65.605 0 0 1-3.198-1.162c-.1-.042-.186-.072-.286-.114a7.957 7.957 0 0 1-.574-.23s-.014 0-.014-.015c-.2-.072-.387-.158-.574-.244-.973-.4-1.95-.847-2.895-1.304-.473-.23-.945-.461-1.418-.703a53.168 53.168 0 0 1-2.768-1.507c-.457-.26-.903-.531-1.36-.805-.504-.301-.99-.617-1.478-.931-.128-.073-.244-.16-.359-.23a7.933 7.933 0 0 1-.544-.359 11.99 11.99 0 0 0-.53-.374 3.379 3.379 0 0 1-.36-.228c-.028-.016-.057-.03-.085-.058a2.886 2.886 0 0 0-.258-.202h-.015a.259.259 0 0 0-.07-.042c-.03-.03-.057-.044-.073-.057 0-.016-.014-.016-.014-.016s0-.014-.015-.014a.218.218 0 0 1-.1-.057 21.327 21.327 0 0 0-1.347-.976c-.058-.043-.115-.1-.185-.144-10.567-7.375-23.425-11.694-37.271-11.694a64.987 64.987 0 0 0-37.873 12.11c-10.824 7.993-24.199 12.713-38.677 12.713-36.024 0-65.224-29.228-65.224-65.287 0-36.058 29.2-65.287 65.224-65.287 13.79 0 26.591 4.29 37.129 11.594l-.99-.646a59.373 59.373 0 0 0 4.272 3.114c10.349 6.916 22.777 10.934 36.139 10.934 13.23 0 25.543-3.946 35.821-10.732v.027a2.27 2.27 0 0 0 .201-.172c.014 0 .014 0 .029-.014a53.054 53.054 0 0 0 4.415-3.214c.014 0 .03-.015.043-.028.014 0 .014-.015.029-.015l.015-.015c.028-.014.042-.027.07-.041v-.016h.015c.244-.157.487-.316.731-.474a53.89 53.89 0 0 1 2.695-1.635c.487-.287.99-.574 1.49-.833.087-.057.187-.1.288-.157.071-.03.129-.072.2-.1a.47.47 0 0 1 .13-.071c.214-.115.444-.23.66-.346a66.57 66.57 0 0 1 1.418-.703c.374-.187.76-.359 1.132-.531.215-.1.416-.2.631-.287.373-.172.745-.33 1.132-.488a33.08 33.08 0 0 1 1.463-.603c.415-.172.831-.328 1.247-.473.33-.13.675-.244 1.018-.373.33-.13.659-.244 1.003-.344a51.997 51.997 0 0 1 2.795-.861 36.764 36.764 0 0 1 2.15-.574c.03-.015.045-.015.058-.015.172-.043.33-.07.487-.114.1-.028.217-.058.316-.072.501-.128.989-.23 1.49-.33.086-.029.172-.042.26-.058.085-.028.156-.041.244-.057.428-.086.873-.156 1.303-.244a63.646 63.646 0 0 1 1.621-.271c.4-.059.787-.116 1.19-.16.07-.014.127-.014.199-.027.403-.057.803-.102 1.204-.145a43.843 43.843 0 0 1 2.322-.23h.058c.3-.028.602-.04.903-.057.3-.028.602-.041.903-.041a9.35 9.35 0 0 1 .917-.045 57.489 57.489 0 0 1 2.18-.043h.085c.703 0 1.42.016 2.122.043.33 0 .674.015 1.003.029.66.029 1.32.073 1.966.13.744.058 1.49.128 2.22.214.1.015.186.015.288.03.759.1 1.533.2 2.278.302.358.057.704.115 1.047.172.587.099 1.175.2 1.763.329l.704.129c.428.1.858.202 1.288.287.015 0 .03 0 .058.014.43.1.861.202 1.29.317.1.027.215.042.33.085.487.129.976.258 1.447.402.387.1.774.215 1.147.33.072.028.158.057.23.073a.707.707 0 0 1 .157.056c.402.115.817.245 1.22.387a30.42 30.42 0 0 1 1.82.633c.544.2 1.089.4 1.633.63a.11.11 0 0 1 .073.03c.416.156.832.329 1.246.515.489.202.975.416 1.462.633a72.257 72.257 0 0 1 2.853 1.376h.014c.46.231.918.475 1.376.732.46.258.918.518 1.377.775.458.258.903.53 1.349.803.457.273.901.547 1.331.832.344.203.674.417 1.004.646.014.014.014.014.028.014.029.03.072.058.1.087a49.443 49.443 0 0 0 3.77 2.742l.373.27c10.352 6.917 22.78 10.935 36.139 10.935 13.231 0 25.545-3.946 35.823-10.732a59.967 59.967 0 0 0 4.802-3.488c10.293-6.8 22.62-10.762 35.88-10.762 36.024 0 65.224 29.229 65.224 65.288" fill="#FEFEFE"/><path d="M442.665 129.496c0 36.058-29.2 65.287-65.224 65.287-13.933 0-26.835-4.362-37.427-11.822-.044-.045-.101-.073-.144-.115l-.015-.016h-.013v-.014l-1.635-1.16c-10.565-7.392-23.41-11.711-37.271-11.711-14.12 0-27.194 4.491-37.859 12.11v.016c-.372.271-.745.545-1.132.802-.359.259-.731.503-1.104.76a52.559 52.559 0 0 1-3.928 2.454c-.344.201-.688.404-1.032.59-.272.157-.545.302-.801.43a.12.12 0 0 1-.058.028c-.316.172-.632.344-.947.504-.473.242-.946.473-1.42.703-.43.213-.874.414-1.304.615-.1.058-.2.102-.3.13-.072.028-.158.071-.23.101-.416.185-.832.372-1.262.544-.415.187-.845.359-1.261.517-.5.2-.99.387-1.49.574-.501.186-1.004.373-1.506.53a60.43 60.43 0 0 1-1.534.488c-1.018.332-2.05.617-3.096.89-.387.115-.789.2-1.19.301-.674.16-1.348.302-2.02.445-.114.016-.23.043-.345.073-.144.028-.301.058-.459.085a.765.765 0 0 0-.186.03c-.574.113-1.16.214-1.75.301-.515.085-1.046.171-1.576.229a4.562 4.562 0 0 1-.457.057c-.26.043-.532.073-.805.1-.143.015-.286.03-.43.043-.401.045-.817.1-1.217.13-.057 0-.101.014-.159.014-.23.014-.458.043-.688.057-.717.058-1.448.1-2.193.13h-.185c-.416.028-.847.028-1.292.042-.43.015-.874.015-1.304.015h-.057c-.86 0-1.735-.015-2.58-.058a65.278 65.278 0 0 1-2.395-.129 3.771 3.771 0 0 0-.401-.027c-.559-.057-1.104-.102-1.647-.16-.416-.057-.833-.1-1.249-.157a4.092 4.092 0 0 1-.6-.086 21.75 21.75 0 0 1-1.35-.187c-.616-.1-1.232-.2-1.834-.314-.315-.057-.63-.13-.945-.188-.044 0-.073-.014-.102-.014a91.547 91.547 0 0 1-2.048-.458 28.678 28.678 0 0 1-1.507-.389 54.756 54.756 0 0 1-2.035-.574c-.674-.2-1.333-.4-2.006-.631a65.605 65.605 0 0 1-3.198-1.162c-.1-.042-.186-.072-.286-.114a7.957 7.957 0 0 1-.574-.23s-.014 0-.014-.015c-.2-.072-.387-.158-.574-.244-.973-.4-1.95-.847-2.895-1.304-.473-.23-.945-.461-1.418-.703a53.168 53.168 0 0 1-2.768-1.507c-.457-.26-.903-.531-1.36-.805-.504-.301-.99-.617-1.478-.931-.128-.073-.244-.16-.359-.23a7.933 7.933 0 0 1-.544-.359 11.99 11.99 0 0 0-.53-.374 3.379 3.379 0 0 1-.36-.228c-.028-.016-.057-.03-.085-.058a2.886 2.886 0 0 0-.258-.202h-.015a.259.259 0 0 0-.07-.042c-.03-.03-.057-.044-.073-.057 0-.016-.014-.016-.014-.016s0-.014-.015-.014a.218.218 0 0 1-.1-.057 21.327 21.327 0 0 0-1.347-.976c-.058-.043-.115-.1-.185-.144-10.567-7.375-23.425-11.694-37.271-11.694a64.987 64.987 0 0 0-37.873 12.11c-10.824 7.993-24.199 12.713-38.677 12.713-36.024 0-65.224-29.228-65.224-65.287 0-36.058 29.2-65.287 65.224-65.287 13.79 0 26.591 4.29 37.129 11.594l-.99-.646a59.373 59.373 0 0 0 4.272 3.114c10.349 6.916 22.777 10.934 36.139 10.934 13.23 0 25.543-3.946 35.821-10.732v.027a2.27 2.27 0 0 0 .201-.172c.014 0 .014 0 .029-.014a53.054 53.054 0 0 0 4.415-3.214c.014 0 .03-.015.043-.028.014 0 .014-.015.029-.015l.015-.015c.028-.014.042-.027.07-.041v-.016h.015c.244-.157.487-.316.731-.474a53.89 53.89 0 0 1 2.695-1.635c.487-.287.99-.574 1.49-.833.087-.057.187-.1.288-.157.071-.03.129-.072.2-.1a.47.47 0 0 1 .13-.071c.214-.115.444-.23.66-.346a66.57 66.57 0 0 1 1.418-.703c.374-.187.76-.359 1.132-.531.215-.1.416-.2.631-.287.373-.172.745-.33 1.132-.488a33.08 33.08 0 0 1 1.463-.603c.415-.172.831-.328 1.247-.473.33-.13.675-.244 1.018-.373.33-.13.659-.244 1.003-.344a51.997 51.997 0 0 1 2.795-.861 36.764 36.764 0 0 1 2.15-.574c.03-.015.045-.015.058-.015.172-.043.33-.07.487-.114.1-.028.217-.058.316-.072.501-.128.989-.23 1.49-.33.086-.029.172-.042.26-.058.085-.028.156-.041.244-.057.428-.086.873-.156 1.303-.244a63.646 63.646 0 0 1 1.621-.271c.4-.059.787-.116 1.19-.16.07-.014.127-.014.199-.027.403-.057.803-.102 1.204-.145a43.843 43.843 0 0 1 2.322-.23h.058c.3-.028.602-.04.903-.057.3-.028.602-.041.903-.041a9.35 9.35 0 0 1 .917-.045 57.489 57.489 0 0 1 2.18-.043h.085c.703 0 1.42.016 2.122.043.33 0 .674.015 1.003.029.66.029 1.32.073 1.966.13.744.058 1.49.128 2.22.214.1.015.186.015.288.03.759.1 1.533.2 2.278.302.358.057.704.115 1.047.172.587.099 1.175.2 1.763.329l.704.129c.428.1.858.202 1.288.287.015 0 .03 0 .058.014.43.1.861.202 1.29.317.1.027.215.042.33.085.487.129.976.258 1.447.402.387.1.774.215 1.147.33.072.028.158.057.23.073a.707.707 0 0 1 .157.056c.402.115.817.245 1.22.387a30.42 30.42 0 0 1 1.82.633c.544.2 1.089.4 1.633.63a.11.11 0 0 1 .073.03c.416.156.832.329 1.246.515.489.202.975.416 1.462.633a72.257 72.257 0 0 1 2.853 1.376h.014c.46.231.918.475 1.376.732.46.258.918.518 1.377.775.458.258.903.53 1.349.803.457.273.901.547 1.331.832.344.203.674.417 1.004.646.014.014.014.014.028.014.029.03.072.058.1.087a49.443 49.443 0 0 0 3.77 2.742l.373.27c10.352 6.917 22.78 10.935 36.139 10.935 13.231 0 25.545-3.946 35.823-10.732a59.967 59.967 0 0 0 4.802-3.488c10.293-6.8 22.62-10.762 35.88-10.762 36.024 0 65.224 29.229 65.224 65.288z" stroke="#009EE2" stroke-width=".993"/><path d="M182.028 72.212c.124-.087.247-.175.37-.264m4.316-3.075c.778-.488 1.51-.924 2.228-1.329.44-.26.98-.568 1.53-.855.102-.059.21-.117.319-.173l.383-.22.081-.027c.042-.02.58-.299.58-.299a70.196 70.196 0 0 1 2.603-1.27l.255-.117c.294-.14.524-.247.748-.342.393-.18.788-.347 1.196-.513a38.97 38.97 0 0 1 1.586-.655c.468-.192.937-.369 1.402-.534.204-.077.975-.354.975-.354.387-.153.834-.308 1.303-.45.978-.33 1.956-.63 2.935-.903a40.24 40.24 0 0 1 1.738-.478l.678-.338.74-.008c.079-.017.16-.036.242-.051.478-.12.945-.218 1.422-.316l.238-.055c.188-.047.376-.086.582-.123l1.163-.217a75.18 75.18 0 0 1 1.885-.32l.196-.027c.336-.049.667-.096 1.001-.136l.272-.033c.473-.068.942-.12 1.412-.17a46.978 46.978 0 0 1 2.528-.25s.745-.048.989-.06c.344-.03.688-.048 1.033-.052.357-.03.723-.044 1.078-.048a64.61 64.61 0 0 1 4.649 0 50.32 50.32 0 0 1 3.376.182c.754.058 1.58.138 2.388.231.1.008.293.028.502.06l2.322.308 1.088.18c.658.11 1.306.224 1.954.362l.751.138s.508.12.688.16h.796l.684.336c.24.06.475.118.71.18.181.04.363.087.547.142.48.127.943.252 1.393.389a30.63 30.63 0 0 1 1.84.548c.393.116.793.244 1.183.38.688.217 1.388.46 2.075.723.197.073.407.15.619.23h1.365l.953.931c.084.036.169.073.254.112.507.21 1.012.433 1.518.656.567.258 1.105.51 1.627.764.063.032.197.092.197.092l1.3.645c.545.27 1.089.56 1.635.866l1.376.775c.483.273.953.558 1.422.844.394.235.753.455 1.095.671h.736l1.574 1.574a43.646 43.646 0 0 0 3.113 2.252l.519.37c9.676 6.435 20.965 9.837 32.652 9.837 11.604 0 22.831-3.363 32.467-9.724a54.204 54.204 0 0 0 4.358-3.164l.215-.17.228-.153c11.656-7.7 25.222-11.77 39.238-11.77 39.325 0 71.319 32.024 71.319 71.389 0 39.364-31.994 71.388-71.32 71.388-14.184 0-27.805-4.127-39.506-11.953h-4.175l-.007-2.935c-9.686-6.505-21.018-9.95-32.817-9.95-12.179 0-23.846 3.662-33.782 10.597l-.486.357c-.447.327-.848.618-1.26.894-.23.165-1.088.75-1.088.75a60.834 60.834 0 0 1-4.412 2.76c-.387.224-.724.42-1.06.6a4.325 4.325 0 0 1-.239.136l-1.17 1.067-.878.01c-.393.2-.816.405-1.239.61a51.34 51.34 0 0 1-1.035.494l-.223.102a7.047 7.047 0 0 1-.784.347c-.445.2-.888.396-1.34.581-.494.218-1 .42-1.492.606a62.3 62.3 0 0 1-1.519.586c-.596.221-1.196.44-1.792.629-.473.158-1.02.331-1.584.504a57.34 57.34 0 0 1-3.26.937c-.332.096-.67.179-1.013.262l-.314.075a88.79 88.79 0 0 1-2.24.495l-.446.093-.91.168c-.578.109-1.168.208-1.757.296-.471.078-1.042.169-1.624.238-.175.026-.355.048-.537.067-.309.046-.627.082-.947.115l-.718.076a27.9 27.9 0 0 1-1.019.106c-.112.01-.826.07-1.008.082-.685.056-1.502.106-2.335.136l-.23.005c-.302.017-.611.025-.924.03l-.357.01c-.49.016-1.003.017-1.498.017a57.57 57.57 0 0 1-2.95-.066c-.78-.026-1.66-.075-2.524-.136l-.145-.012h-.126l-2.17-.216-1.037-.132c-.295-.026-.59-.067-.882-.117a35.41 35.41 0 0 1-1.409-.2 84.87 84.87 0 0 1-2-.345 25.56 25.56 0 0 1-.418-.082h-.053l-.682-.142a86.482 86.482 0 0 1-2.194-.49 34.691 34.691 0 0 1-1.714-.438 63.455 63.455 0 0 1-2.19-.62 56.777 56.777 0 0 1-2.23-.702 70.632 70.632 0 0 1-3.255-1.18h-4.93l-.005-2.153-.038-.02a74.454 74.454 0 0 1-1.554-.77 57.884 57.884 0 0 1-3.059-1.668 38.068 38.068 0 0 1-1.092-.644l-.308-.182a57.873 57.873 0 0 1-1.57-.99 63.653 63.653 0 0 1-.836-.533h-.603l-.116-.115h-3.634v-2.944c-9.72-6.507-21.044-9.94-32.824-9.94-12.397 0-24.27 3.796-34.335 10.977-12.238 9.039-26.864 13.846-42.214 13.846C31.993 200.87 0 168.846 0 129.48c0-39.363 31.993-71.388 71.32-71.388 14.592 0 28.63 4.385 40.597 12.678l-.053.08a54.815 54.815 0 0 0 3.246 2.327c9.701 6.485 21.029 9.91 32.758 9.91 11.466 0 22.566-3.283 32.124-9.498l6.722-4.717z" fill="#F8F7F6"/><path d="M188.507 74.97c.244-.157.488-.316.731-.474a53.89 53.89 0 0 1 2.695-1.635c.486-.287.99-.574 1.491-.833.086-.057.186-.1.287-.157.071-.03.129-.072.2-.1a.485.485 0 0 1 .13-.071c.215-.115.444-.23.659-.346a68.49 68.49 0 0 1 1.42-.703c.372-.187.759-.359 1.132-.531.215-.1.415-.2.63-.287.373-.172.746-.33 1.133-.488a33.08 33.08 0 0 1 1.462-.603 23.49 23.49 0 0 1 1.247-.473c.33-.13.674-.244 1.018-.373.33-.13.66-.244 1.003-.344a51.997 51.997 0 0 1 2.796-.861 36.464 36.464 0 0 1 2.15-.574c.029-.015.043-.015.057-.015.172-.043.33-.07.488-.114.1-.028.215-.058.315-.072.502-.128.989-.23 1.49-.33.087-.029.173-.042.259-.058.086-.028.157-.041.243-.057.43-.086.875-.156 1.304-.244a63.646 63.646 0 0 1 1.62-.271c.402-.059.79-.116 1.19-.16.072-.014.13-.014.201-.027a34.42 34.42 0 0 1 1.204-.145 43.843 43.843 0 0 1 2.323-.23h.057c.301-.028.602-.04.903-.057.301-.028.602-.041.903-.041.301-.03.617-.045.916-.045.717-.027 1.45-.043 2.18-.043h.088c.702 0 1.419.016 2.121.043.33 0 .674.015 1.004.029a44.7 44.7 0 0 1 1.963.13c.746.058 1.491.128 2.222.214.1.015.187.015.287.03.76.1 1.534.2 2.28.302.358.057.702.115 1.046.172.588.099 1.175.2 1.763.329l.702.129c.43.1.86.202 1.29.287.015 0 .03 0 .058.014.43.1.86.202 1.29.317.1.027.215.042.33.085.487.129.975.258 1.446.402.389.1.776.215 1.148.33.072.028.158.057.23.073.056.014.1.027.157.056.402.115.818.245 1.219.387a30.46 30.46 0 0 1 1.82.633c.545.2 1.09.4 1.635.63.028 0 .057.014.071.03.416.156.832.329 1.246.515.489.202.976.416 1.464.633a72.254 72.254 0 0 1 2.853 1.376h.014c.458.231.917.475 1.376.732.458.258.917.518 1.376.775.459.258.903.53 1.347.803.46.273.903.547 1.334.832.344.203.673.417 1.003.646.014.014.014.014.029.014.028.03.071.058.1.087a49.443 49.443 0 0 0 3.77 2.742l.373.27c10.35 6.917 22.778 10.935 36.138 10.935 13.231 0 25.545-3.946 35.823-10.732 1.663-1.076 3.254-2.254 4.802-3.488 10.293-6.8 22.62-10.762 35.88-10.762 36.024 0 65.225 29.229 65.225 65.288 0 36.058-29.2 65.287-65.224 65.287-13.934 0-26.835-4.362-37.429-11.822-.043-.045-.1-.073-.143-.115l-.015-.016h-.014v-.014l-1.634-1.16c-10.565-7.392-23.409-11.711-37.27-11.711-14.12 0-27.194 4.491-37.86 12.11v.016c-.372.271-.745.545-1.133.802-.359.259-.73.503-1.103.76a52.854 52.854 0 0 1-3.927 2.454c-.346.201-.689.404-1.033.59-.272.157-.544.302-.802.43a.109.109 0 0 1-.058.028c-.315.172-.63.344-.946.504-.473.242-.946.473-1.419.703-.43.213-.874.414-1.304.615-.1.058-.201.102-.301.13-.072.028-.158.071-.23.101-.416.185-.831.372-1.261.544-.416.187-.846.359-1.262.517-.501.2-.989.387-1.49.574-.502.186-1.004.373-1.506.53a60.43 60.43 0 0 1-1.534.488c-1.017.332-2.05.617-3.096.89-.387.115-.788.2-1.19.301-.673.16-1.347.302-2.021.445a2.94 2.94 0 0 0-.344.073c-.143.028-.301.058-.459.085a.765.765 0 0 0-.186.03c-.573.113-1.161.214-1.749.301-.516.085-1.046.171-1.577.229a4.449 4.449 0 0 1-.458.057c-.259.043-.53.073-.803.1-.144.015-.287.03-.43.043-.402.045-.817.1-1.219.13-.057 0-.1.014-.157.014-.23.014-.46.043-.689.057-.716.058-1.447.1-2.193.13h-.186c-.416.028-.846.028-1.29.042-.43.015-.875.015-1.305.015h-.057c-.86 0-1.735-.015-2.58-.058a65.107 65.107 0 0 1-2.394-.129 3.771 3.771 0 0 0-.402-.027c-.559-.057-1.103-.102-1.648-.16-.416-.057-.832-.1-1.247-.157a4.14 4.14 0 0 1-.602-.086 21.705 21.705 0 0 1-1.348-.187c-.616-.1-1.233-.2-1.835-.314-.315-.057-.63-.13-.946-.188-.043 0-.072-.014-.1-.014a93.501 93.501 0 0 1-2.05-.458 28.997 28.997 0 0 1-1.505-.389 53.984 53.984 0 0 1-2.036-.574c-.674-.2-1.333-.4-2.007-.631a65.554 65.554 0 0 1-3.196-1.162c-.1-.042-.187-.072-.287-.114a7.957 7.957 0 0 1-.574-.23s-.015 0-.015-.015a7.062 7.062 0 0 1-.572-.244c-.975-.4-1.95-.847-2.896-1.304a77.82 77.82 0 0 1-1.42-.703 53.717 53.717 0 0 1-2.766-1.507c-.458-.26-.903-.531-1.362-.805-.501-.301-.989-.617-1.476-.931-.129-.073-.244-.16-.358-.23a7.599 7.599 0 0 1-.545-.359 11.99 11.99 0 0 0-.53-.374 3.24 3.24 0 0 1-.359-.228c-.029-.016-.057-.03-.086-.058a3.107 3.107 0 0 0-.258-.202h-.014a.27.27 0 0 0-.072-.042c-.029-.03-.057-.044-.072-.057 0-.016-.014-.016-.014-.016s0-.014-.014-.014a.218.218 0 0 1-.1-.057 21.327 21.327 0 0 0-1.348-.976c-.057-.043-.115-.1-.186-.144-10.565-7.375-23.424-11.694-37.271-11.694a64.993 64.993 0 0 0-37.873 12.11c-10.823 7.993-24.198 12.713-38.676 12.713-36.024 0-65.224-29.228-65.224-65.287 0-36.058 29.2-65.287 65.224-65.287a64.97 64.97 0 0 1 37.128 11.594l-.99-.646a59.668 59.668 0 0 0 4.272 3.114c10.35 6.916 22.779 10.934 36.139 10.934 13.23 0 25.545-3.946 35.823-10.732l4.816-3.488z" fill="#F8F7F6"/><path d="M188.507 74.97c.244-.157.488-.316.731-.474a53.89 53.89 0 0 1 2.695-1.635c.486-.287.99-.574 1.491-.833.086-.057.186-.1.287-.157.071-.03.129-.072.2-.1a.485.485 0 0 1 .13-.071c.215-.115.444-.23.659-.346a68.49 68.49 0 0 1 1.42-.703c.372-.187.759-.359 1.132-.531.215-.1.415-.2.63-.287.373-.172.746-.33 1.133-.488a33.08 33.08 0 0 1 1.462-.603 23.49 23.49 0 0 1 1.247-.473c.33-.13.674-.244 1.018-.373.33-.13.66-.244 1.003-.344a51.997 51.997 0 0 1 2.796-.861 36.464 36.464 0 0 1 2.15-.574c.029-.015.043-.015.057-.015.172-.043.33-.07.488-.114.1-.028.215-.058.315-.072.502-.128.989-.23 1.49-.33.087-.029.173-.042.259-.058.086-.028.157-.041.243-.057.43-.086.875-.156 1.304-.244a63.646 63.646 0 0 1 1.62-.271c.402-.059.79-.116 1.19-.16.072-.014.13-.014.201-.027a34.42 34.42 0 0 1 1.204-.145 43.843 43.843 0 0 1 2.323-.23h.057c.301-.028.602-.04.903-.057.301-.028.602-.041.903-.041.301-.03.617-.045.916-.045.717-.027 1.45-.043 2.18-.043h.088c.702 0 1.419.016 2.121.043.33 0 .674.015 1.004.029a44.7 44.7 0 0 1 1.963.13c.746.058 1.491.128 2.222.214.1.015.187.015.287.03.76.1 1.534.2 2.28.302.358.057.702.115 1.046.172.588.099 1.175.2 1.763.329l.702.129c.43.1.86.202 1.29.287.015 0 .03 0 .058.014.43.1.86.202 1.29.317.1.027.215.042.33.085.487.129.975.258 1.446.402.389.1.776.215 1.148.33.072.028.158.057.23.073.056.014.1.027.157.056.402.115.818.245 1.219.387a30.46 30.46 0 0 1 1.82.633c.545.2 1.09.4 1.635.63.028 0 .057.014.071.03.416.156.832.329 1.246.515.489.202.976.416 1.464.633a72.254 72.254 0 0 1 2.853 1.376h.014c.458.231.917.475 1.376.732.458.258.917.518 1.376.775.459.258.903.53 1.347.803.46.273.903.547 1.334.832.344.203.673.417 1.003.646.014.014.014.014.029.014.028.03.071.058.1.087a49.443 49.443 0 0 0 3.77 2.742l.373.27c10.35 6.917 22.778 10.935 36.138 10.935 13.231 0 25.545-3.946 35.823-10.732 1.663-1.076 3.254-2.254 4.802-3.488 10.293-6.8 22.62-10.762 35.88-10.762 36.024 0 65.225 29.229 65.225 65.288 0 36.058-29.2 65.287-65.224 65.287-13.934 0-26.835-4.362-37.429-11.822-.043-.045-.1-.073-.143-.115l-.015-.016h-.014v-.014l-1.634-1.16c-10.565-7.392-23.409-11.711-37.27-11.711-14.12 0-27.194 4.491-37.86 12.11v.016c-.372.271-.745.545-1.133.802-.359.259-.73.503-1.103.76a52.854 52.854 0 0 1-3.927 2.454c-.346.201-.689.404-1.033.59-.272.157-.544.302-.802.43a.109.109 0 0 1-.058.028c-.315.172-.63.344-.946.504-.473.242-.946.473-1.419.703-.43.213-.874.414-1.304.615-.1.058-.201.102-.301.13-.072.028-.158.071-.23.101-.416.185-.831.372-1.261.544-.416.187-.846.359-1.262.517-.501.2-.989.387-1.49.574-.502.186-1.004.373-1.506.53a60.43 60.43 0 0 1-1.534.488c-1.017.332-2.05.617-3.096.89-.387.115-.788.2-1.19.301-.673.16-1.347.302-2.021.445a2.94 2.94 0 0 0-.344.073c-.143.028-.301.058-.459.085a.765.765 0 0 0-.186.03c-.573.113-1.161.214-1.749.301-.516.085-1.046.171-1.577.229a4.449 4.449 0 0 1-.458.057c-.259.043-.53.073-.803.1-.144.015-.287.03-.43.043-.402.045-.817.1-1.219.13-.057 0-.1.014-.157.014-.23.014-.46.043-.689.057-.716.058-1.447.1-2.193.13h-.186c-.416.028-.846.028-1.29.042-.43.015-.875.015-1.305.015h-.057c-.86 0-1.735-.015-2.58-.058a65.107 65.107 0 0 1-2.394-.129 3.771 3.771 0 0 0-.402-.027c-.559-.057-1.103-.102-1.648-.16-.416-.057-.832-.1-1.247-.157a4.14 4.14 0 0 1-.602-.086 21.705 21.705 0 0 1-1.348-.187c-.616-.1-1.233-.2-1.835-.314-.315-.057-.63-.13-.946-.188-.043 0-.072-.014-.1-.014a93.501 93.501 0 0 1-2.05-.458 28.997 28.997 0 0 1-1.505-.389 53.984 53.984 0 0 1-2.036-.574c-.674-.2-1.333-.4-2.007-.631a65.554 65.554 0 0 1-3.196-1.162c-.1-.042-.187-.072-.287-.114a7.957 7.957 0 0 1-.574-.23s-.015 0-.015-.015a7.062 7.062 0 0 1-.572-.244c-.975-.4-1.95-.847-2.896-1.304a77.82 77.82 0 0 1-1.42-.703 53.717 53.717 0 0 1-2.766-1.507c-.458-.26-.903-.531-1.362-.805-.501-.301-.989-.617-1.476-.931-.129-.073-.244-.16-.358-.23a7.599 7.599 0 0 1-.545-.359 11.99 11.99 0 0 0-.53-.374 3.24 3.24 0 0 1-.359-.228c-.029-.016-.057-.03-.086-.058a3.107 3.107 0 0 0-.258-.202h-.014a.27.27 0 0 0-.072-.042c-.029-.03-.057-.044-.072-.057 0-.016-.014-.016-.014-.016s0-.014-.014-.014a.218.218 0 0 1-.1-.057 21.327 21.327 0 0 0-1.348-.976c-.057-.043-.115-.1-.186-.144-10.565-7.375-23.424-11.694-37.271-11.694a64.993 64.993 0 0 0-37.873 12.11c-10.823 7.993-24.198 12.713-38.676 12.713-36.024 0-65.224-29.228-65.224-65.287 0-36.058 29.2-65.287 65.224-65.287a64.97 64.97 0 0 1 37.128 11.594l-.99-.646a59.668 59.668 0 0 0 4.272 3.114c10.35 6.916 22.779 10.934 36.139 10.934 13.23 0 25.545-3.946 35.823-10.732l4.816-3.488z" stroke="#009EE2" stroke-width=".993" stroke-linecap="round"/><path stroke="#009EE2" stroke-width=".537" d="M221.548 142.984h3.315m8.48 0h22.269c.003-.009.36 0 .538 0a6.264 6.264 0 0 0 6.26-6.269c0-3.395-2.7-6.154-6.068-6.255.062-.533.102-1.071.102-1.62 0-7.559-6.118-13.688-13.673-13.688-1.28 0-2.519.189-3.695.519-1.34-9.786-9.72-17.332-19.871-17.332-11.084 0-20.067 8.994-20.067 20.081 0 .045.003.09.003.134-6.102.697-10.844 5.877-10.844 12.172 0 6.77 5.48 12.258 12.243 12.258h12.984"/><path d="M239.552 120.898a9.076 9.076 0 0 1 2.45-.35c4.99 0 9.05 4.067 9.05 9.062 0 .322-.024.676-.071 1.086m-46.448-11.439l-.003-.135c0-8.452 6.928-15.385 15.443-15.385m-26.283 27.76a7.613 7.613 0 0 1 6.744-7.575m23.661.934l-6.522-6.524-6.522 6.524m6.522-5.966l.002 25.52m4.902 16.055l6.524 6.524 6.522-6.524M229 166.43v-24.974" stroke="#009EE2" stroke-width=".537"/><mask id="d" fill="#fff"><use xlink:href="#c"/></mask><path stroke="#009EE2" stroke-width=".524" mask="url(#d)" d="M337.069 166.452h74.488V107.61H337.07zm4.536-12.362h19.537m3.404 0h19.535m3.403 0h19.536m-65.415-7.98h19.537m3.404 0h19.535m3.403 0h19.536m-65.415-7.6h19.537m3.404 0h19.535m3.403 0h19.536"/><path stroke="#009EE2" stroke-width=".524" mask="url(#d)" d="M341.607 132.401h65.413v-13.915h-65.413zm-4.538-24.791h74.488v-8.576H337.07zm3.402-4.35h2.829m2.067 0h2.828m2.065 0h2.83m-4.86 10.416h24.955m-31.58 0h3.094"/><path stroke="#009EE2" stroke-width=".531" mask="url(#d)" d="M43.998 156.819h47.18v-47.76h-47.18zm6.505-47.761v-9.953m6.834 9.953v-9.953m6.834 9.953v-9.953m6.835 9.953v-9.953m6.834 9.953v-9.953m6.834 9.953v-9.953m-34.171 67.277v-9.954m6.834 9.954v-9.954m6.834 9.954v-9.954m6.835 9.954v-9.954m6.834 9.954v-9.954m6.834 9.954v-9.954m6.576-40.787h9.945m-9.945 6.841h9.945m-9.945 6.841h9.945m-9.945 6.841h9.945m-9.945 6.841h9.945m-9.945 6.841h9.945m-67.212-34.205h9.944m-9.944 6.841h9.944m-9.944 6.841h9.944m-9.944 6.841h9.944m-9.944 6.841h9.944m-9.944 6.841h9.944"/><path d="M78.673 148.174H56.375a4.338 4.338 0 0 1-4.337-4.34v-22.321a4.338 4.338 0 0 1 4.337-4.34h22.298a4.338 4.338 0 0 1 4.337 4.34v22.32a4.338 4.338 0 0 1-4.337 4.341z" stroke="#009EE2" stroke-width=".531" mask="url(#d)"/><path d="M106.99 108.774c0 9.431-7.638 17.076-17.06 17.076-9.424 0-17.063-7.645-17.063-17.076 0-9.432 7.639-17.078 17.063-17.078 9.422 0 17.06 7.646 17.06 17.078" fill="#F8F7F6" mask="url(#d)"/><path fill="#2D4254" mask="url(#d)" d="M98.178 94.047l-17.78 24.558h5.414l18.015-24.558z"/><path d="M103.066 97.106l-.508.691c2.582 2.949 4.163 6.799 4.163 11.017 0 9.23-7.501 16.738-16.721 16.738-9.222 0-16.724-7.507-16.724-16.738 0-9.229 7.502-16.738 16.724-16.738 2.501 0 4.866.569 7 1.557l.501-.693A17.418 17.418 0 0 0 90 91.231c-9.688 0-17.568 7.888-17.568 17.583 0 9.696 7.88 17.583 17.568 17.583 9.686 0 17.566-7.887 17.566-17.583 0-4.5-1.713-8.596-4.5-11.708" fill="#009EE2" mask="url(#d)"/><path fill="#2D4254" mask="url(#d)" d="M98.56 93.503l-18.163 25.102h5.415l18.397-25.102zm-5.76 21.434H90l-2.69 3.669h9.906v-4.98H92.8zm-5.28-11.667H90l2.66-3.668h-9.554v4.979h4.415z"/><path d="M267.653 108.774c0 9.431-7.638 17.076-17.06 17.076-9.424 0-17.063-7.645-17.063-17.076 0-9.432 7.64-17.078 17.063-17.078 9.422 0 17.06 7.646 17.06 17.078" fill="#F8F7F6" mask="url(#d)"/><path fill="#2D4254" mask="url(#d)" d="M258.84 94.047l-17.779 24.558h5.414l18.015-24.558z"/><path d="M263.73 97.106l-.51.691c2.583 2.949 4.165 6.799 4.165 11.017 0 9.23-7.502 16.738-16.722 16.738-9.222 0-16.723-7.507-16.723-16.738 0-9.229 7.501-16.738 16.723-16.738 2.5 0 4.867.569 7 1.557l.501-.693a17.418 17.418 0 0 0-7.501-1.709c-9.688 0-17.568 7.888-17.568 17.583 0 9.696 7.88 17.583 17.568 17.583 9.686 0 17.566-7.887 17.566-17.583 0-4.5-1.713-8.596-4.5-11.708" fill="#009EE2" mask="url(#d)"/><path fill="#2D4254" mask="url(#d)" d="M259.223 93.503l-18.162 25.102h5.414l18.397-25.102zm-5.759 21.434h-2.801l-2.69 3.669h9.906v-4.98h-4.415zm-5.281-11.667h2.479l2.66-3.668h-9.554v4.979h4.415z"/><path d="M422.042 108.774c0 9.431-7.638 17.076-17.06 17.076-9.424 0-17.063-7.645-17.063-17.076 0-9.432 7.64-17.078 17.063-17.078 9.422 0 17.06 7.646 17.06 17.078" fill="#F8F7F6" mask="url(#d)"/><path fill="#2D4254" mask="url(#d)" d="M413.23 94.047l-17.78 24.558h5.414l18.015-24.558z"/><path d="M418.118 97.106l-.507.691c2.581 2.949 4.162 6.799 4.162 11.017 0 9.23-7.501 16.738-16.721 16.738-9.222 0-16.723-7.507-16.723-16.738 0-9.229 7.501-16.738 16.723-16.738 2.501 0 4.866.569 7 1.557l.501-.693a17.418 17.418 0 0 0-7.501-1.709c-9.686 0-17.568 7.888-17.568 17.583 0 9.696 7.882 17.583 17.568 17.583 9.686 0 17.566-7.887 17.566-17.583 0-4.5-1.713-8.596-4.5-11.708" fill="#009EE2" mask="url(#d)"/><path fill="#2D4254" mask="url(#d)" d="M413.612 93.503l-18.163 25.102h5.415l18.397-25.102zm-5.759 21.434h-2.8l-2.69 3.669h9.906v-4.98h-4.415zm-5.281-11.667h2.479l2.66-3.668h-9.554v4.979h4.415z"/></g></g></svg>