<?xml version="1.0" encoding="UTF-8" standalone="no"?>
<svg
   xmlns:dc="http://purl.org/dc/elements/1.1/"
   xmlns:cc="http://creativecommons.org/ns#"
   xmlns:rdf="http://www.w3.org/1999/02/22-rdf-syntax-ns#"
   xmlns:svg="http://www.w3.org/2000/svg"
   xmlns="http://www.w3.org/2000/svg"
   xmlns:sodipodi="http://sodipodi.sourceforge.net/DTD/sodipodi-0.dtd"
   xmlns:inkscape="http://www.inkscape.org/namespaces/inkscape"
   id="Layer_1"
   data-name="Layer 1"
   viewBox="0 0 78 78.000001"
   version="1.1"
   inkscape:version="0.91 r13725"
   sodipodi:docname="zconnect_logo.svg"
   width="78"
   height="78">
  <metadata
     id="metadata33">
    <rdf:RDF>
      <cc:Work
         rdf:about="">
        <dc:format>image/svg+xml</dc:format>
        <dc:type
           rdf:resource="http://purl.org/dc/dcmitype/StillImage" />
        <dc:title>zconnect_Logo</dc:title>
      </cc:Work>
    </rdf:RDF>
  </metadata>
  <sodipodi:namedview
     pagecolor="#ffffff"
     bordercolor="#666666"
     borderopacity="1"
     objecttolerance="10"
     gridtolerance="10"
     guidetolerance="10"
     inkscape:pageopacity="0"
     inkscape:pageshadow="2"
     inkscape:window-width="1855"
     inkscape:window-height="1056"
     id="namedview31"
     showgrid="false"
     inkscape:zoom="2.2874867"
     inkscape:cx="39"
     inkscape:cy="51.584999"
     inkscape:window-x="65"
     inkscape:window-y="24"
     inkscape:window-maximized="1"
     inkscape:current-layer="Layer_1" />
  <defs
     id="defs3">
    <style
       id="style5">.cls-1{fill:#2d4254;}</style>
  </defs>
  <title
     id="title7">zconnect_Logo</title>
  <polygon
     class="cls-1"
     points="53.21,11.27 6.17,11.27 6.17,76.77 6.17,76.77 69.98,76.77 69.98,15.39 67.75,18.42 67.75,74.54 8.4,74.54 8.4,13.5 51.59,13.5 "
     id="polygon9"
     style="fill:#2d4254"
     transform="translate(-1.35,-2.18)" />
  <polygon
     class="cls-1"
     points="59.97,5.59 59.97,5.59 14.15,68.81 28.11,68.81 74.53,5.59 "
     id="polygon11"
     style="fill:#2d4254"
     transform="translate(-1.35,-2.18)" />
  <polygon
     class="cls-1"
     points="57.49,68.81 57.49,55.99 57.49,55.99 46.12,55.99 46.12,59.37 38.9,59.37 31.97,68.81 "
     id="polygon13"
     style="fill:#2d4254"
     transform="translate(-1.35,-2.18)" />
  <polygon
     class="cls-1"
     points="21.13,19.89 21.13,32.71 21.13,32.71 32.51,32.71 32.51,29.33 38.9,29.33 45.75,19.89 "
     id="polygon15"
     style="fill:#2d4254"
     transform="translate(-1.35,-2.18)" />
</svg>
