<svg id="Layer_1" data-name="Layer 1" xmlns="http://www.w3.org/2000/svg" viewBox="0 0 609 122.25"><defs><style>.cls-1{fill:#009fe3;}.cls-2{fill:none;stroke:#009fe3;stroke-miterlimit:10;}</style></defs><title>Zoetrope Labs Logo</title><polygon class="cls-1" points="48.92 86.23 33.62 86.23 83.87 16.88 99.84 16.88 48.92 86.23"/><path class="cls-1" d="M112,87.33c-18.4,0-23.36-10.14-23.36-21.16V52.62c0-11,5-21.16,23.36-21.16s23.36,10.14,23.36,21.16V66.18C135.32,77.19,130.36,87.33,112,87.33Zm0-44.41c-7.16,0-9.92,3.2-9.92,9.26V66.62c0,6.06,2.76,9.26,9.92,9.26s9.92-3.2,9.92-9.26V52.18C121.88,46.12,119.13,42.93,112,42.93Z"/><path class="cls-1" d="M167.9,76.31a56.25,56.25,0,0,0,16.42-2.53l2.09,10.14a57.62,57.62,0,0,1-19.72,3.42c-16.86,0-22.7-7.82-22.7-20.72V52.4c0-11.35,5.07-20.94,22.26-20.94s21,10,21,21.6V64.52H157.44v2.75C157.44,73.78,159.75,76.31,167.9,76.31ZM157.44,53.73h17.08V51.08c0-5.07-1.54-8.59-8.15-8.59s-8.93,3.53-8.93,8.59Z"/><path class="cls-1" d="M227.83,85.24A37.28,37.28,0,0,1,216,87.33c-9.81,0-14.77-4.63-14.77-14.21V43.26h-8V32.57h8V16.88h13.44V32.57h13.77l-.88,10.69H214.72v28.1c0,2.86,1.32,4.74,4.85,4.74a25.86,25.86,0,0,0,6.72-1.1Z"/><path class="cls-1" d="M265,43.81a105.23,105.23,0,0,0-14.21,7.82v34.6H237.33V32.57h11.35l.88,6c3-2,9.37-5.73,14.1-7.05Z"/><path class="cls-1" d="M293.91,87.33c-18.4,0-23.36-10.14-23.36-21.16V52.62c0-11,5-21.16,23.36-21.16s23.36,10.14,23.36,21.16V66.18C317.27,77.19,312.31,87.33,293.91,87.33Zm0-44.41c-7.16,0-9.92,3.2-9.92,9.26V66.62c0,6.06,2.76,9.26,9.92,9.26s9.92-3.2,9.92-9.26V52.18C303.83,46.12,301.07,42.93,293.91,42.93Z"/><path class="cls-1" d="M373,68.38c0,11.9-5.29,19-17.74,19a74.1,74.1,0,0,1-14.32-1.54v16.39H327.45V32.57h10.69l1.32,4.52a28.24,28.24,0,0,1,17-5.62c10.8,0,16.53,6.39,16.53,18.62Zm-32.06,6.06a59.6,59.6,0,0,0,11.9,1.43c4.85,0,6.72-2.31,6.72-7.16v-19c0-4.41-1.65-6.83-6.61-6.83a19,19,0,0,0-12,4.85Z"/><path class="cls-1" d="M405.79,76.31a56.25,56.25,0,0,0,16.42-2.53l2.09,10.14a57.62,57.62,0,0,1-19.72,3.42c-16.86,0-22.7-7.82-22.7-20.72V52.4c0-11.35,5.07-20.94,22.26-20.94s21,10,21,21.6V64.52H395.32v2.75C395.32,73.78,397.63,76.31,405.79,76.31ZM395.32,53.73H412.4V51.08c0-5.07-1.54-8.59-8.15-8.59s-8.93,3.53-8.93,8.59Z"/><path class="cls-1" d="M53.75,46.63H41.27V32.57h27L60.76,42.93h-7ZM68.68,75.87H60.76l-7.6,10.36h28V72.17H68.68Z"/><path class="cls-1" d="M461.76,86.33V31.61h6V86.33Z"/><path class="cls-1" d="M500.08,86.33,499,81.58a14.79,14.79,0,0,1-11.91,5.61c-5.27,0-10.44-3.11-10.44-11.57,0-9.15,4.49-12.08,12.77-12.08H498v-.95c0-6.73-.6-9.06-8.89-9.06a42.18,42.18,0,0,0-7.51.95L480.92,50a56.22,56.22,0,0,1,10.53-1.21c7.77,0,12.52,3.11,12.52,11.57V78l1.9,8.29ZM498,67.6h-7.77c-6.65,0-7.6,3.19-7.6,7.68,0,3.71.17,6.91,6.13,6.91,4.23,0,7.68-3.37,9.24-6.56Z"/><path class="cls-1" d="M528.57,87.19c-3.54,0-5.78-.6-8.72-.86H514.5V31.61h6V52.49a16.46,16.46,0,0,1,10.7-3.71c6.65,0,12.08,4.32,12.08,15.36V72C543.24,84.52,536.25,87.19,528.57,87.19Zm8.72-23c0-5.7-1.55-10.44-7.16-10.44-3.37,0-7.6,1.64-9.67,4.49V81.41a48,48,0,0,0,8.11.78c6.91,0,8.72-3.88,8.72-10.19Z"/><path class="cls-1" d="M563,87.19A25.62,25.62,0,0,1,551.26,84l.95-4.49a25.33,25.33,0,0,0,10.79,3c4.23,0,7.77-.69,7.77-5.35v-.52c0-4.06-2.76-5.52-7.16-6.91-5.78-1.81-11.74-3.28-11.74-10.7v-.6c0-7.34,5.18-9.67,12.26-9.67a28.52,28.52,0,0,1,10.36,2.16l-.95,4.4c-2.94-1-6.3-2.07-9.06-2.07-4.06,0-7,.78-7,4.49v.52c0,4.49,6.91,5.35,10.36,6.73,4.66,1.81,8.72,4.66,8.72,10.88v.6C576.55,85.21,570.68,87.19,563,87.19Z"/><line class="cls-2" x1="99.84" y1="16.88" x2="49" y2="84.39"/><rect class="cls-1" x="443" y="11.11" width="2" height="95.72" rx="1" ry="1"/></svg>