<?xml version="1.0" encoding="UTF-8" standalone="no"?>
<svg
   xmlns:dc="http://purl.org/dc/elements/1.1/"
   xmlns:cc="http://creativecommons.org/ns#"
   xmlns:rdf="http://www.w3.org/1999/02/22-rdf-syntax-ns#"
   xmlns:svg="http://www.w3.org/2000/svg"
   xmlns="http://www.w3.org/2000/svg"
   version="1.1"
   id="svg2"
   viewBox="0 0 2048 2048"
   height="2048"
   width="2048">
  <defs
     id="defs4" />
  <metadata
     id="metadata7">
    <rdf:RDF>
      <cc:Work
         rdf:about="">
        <dc:format>image/svg+xml</dc:format>
        <dc:type
           rdf:resource="http://purl.org/dc/dcmitype/StillImage" />
        <dc:title></dc:title>
      </cc:Work>
    </rdf:RDF>
  </metadata>
  <g
     transform="translate(0,995.63784)"
     id="layer1">
    <path
       id="path4147"
       d="m 1298.1082,298.5277 c -33.9541,-6.9378 -63.2933,-23.82919 -78.9639,-45.4618 l -6.3341,-8.74404 0,25.48016 0,25.48011 -38.2748,0 -38.2747,0 0,-270.110433 0,-270.110477 38.2747,0 38.2748,0 0,119.5267 0,119.5266972 6.5072,-8.9830192 c 18.1663,-25.07777 52.1829,-42.02828 92.4604,-46.07313 73.6181,-7.39304 140.709,28.701543 173.0418,93.095712 3.1363,6.246197 8.3555,20.025107 11.5983,30.619794 5.4165,17.696776 5.8958,22.28631 5.8958,56.444266 0,34.15797 -0.4793,38.7475 -5.8958,56.44428 -10.3026,33.66033 -25.7621,58.93818 -49.4687,80.88624 -38.9195,36.03258 -97.3248,52.50516 -148.841,41.97894 z m 58.0539,-77.78019 c 43.7627,-16.20206 68.7019,-53.05106 68.7736,-101.61653 0.074,-49.944043 -26.5573,-87.71106 -71.6751,-101.646536 -16.8677,-5.209877 -44.2759,-5.729621 -61.4263,-1.164877 -59.6356,15.87262 -91.3333,75.355053 -73.2298,137.419283 10.5667,36.22514 40.3667,62.70365 80.5973,71.61388 13.9609,3.09202 42.3744,0.79483 56.9603,-4.60522 z m 463.8921,77.74861 c -67.7934,-12.83535 -119.1524,-61.09402 -137.26,-128.9739 -6.3716,-23.88512 -6.9884,-71.195286 -1.2472,-95.664964 9.939,-42.361272 30.1618,-74.84404185 61.6595,-99.040035 64.4483,-49.508093 164.5397,-48.887873 225.8405,1.39949 22.2197,18.2275902 41.9065,47.518543 51.7059,76.930236 5.8904,17.67955 10.0437,46.928773 10.0437,70.732043 l 0,22.67838 -139.1262,0 -139.1261,0 1.4689,8.20175 c 2.5441,14.20519 13.7007,35.13952 25.2159,47.31518 31.948,33.78028 88.9207,41.99697 134.9435,19.46177 14.1347,-6.92105 29.1733,-19.58195 35.5881,-29.96131 l 4.5408,-7.3471 31.1394,13.83706 c 17.3972,7.73056 30.8634,14.96569 30.514,16.39462 -1.6739,6.8458 -19.3056,29.163 -33.213,42.03919 -18.7278,17.33899 -47.1496,32.17246 -74.4246,38.84244 -24.7813,6.06019 -65.274,7.50768 -88.2631,3.15515 z M 1954.247,86.5108 c 0,-2.952597 -2.3009,-11.70715 -5.113,-19.45462 -16.096,-44.34395 -60.1551,-68.3962698 -111.0533,-60.6251428 -21.4648,3.277267 -43.9754,14.0994528 -57.5378,27.6618558 -11.2686,11.268614 -23.9521,34.96096 -26.5446,49.584517 l -1.454,8.2017 100.8514,0 100.8513,0 0,-5.36831 z M 17.46661,291.45468 c 0.816289,-2.10512 41.349664,-109.62987 90.07419,-238.943893 48.72459,-129.314019 90.99702,-239.265927 93.93879,-244.337557 12.53109,-21.60385 42.97223,-33.83272 67.61792,-27.16355 12.82973,3.47177 28.46572,14.14903 34.85187,23.79914 8.27011,12.49702 187.15773,488.40443 184.03546,489.60258 -1.39823,0.53652 -20.18261,0.70591 -41.74307,0.37647 L 407.04094,294.18868 370.2842,197.95497 C 350.06803,145.02646 316.20352,53.002987 295.02976,-6.5415958 273.85599,-66.086222 255.86864,-116.03334 255.05783,-117.53521 254.24707,-119.03709 235.25027,-68.842502 212.84277,-5.9916048 177.27801,93.763971 107.44254,280.26852 101.48903,291.39281 c -1.883356,3.51908 -6.053194,3.8894 -43.79404,3.8894 -38.833533,0 -41.610077,-0.26405 -40.22838,-3.82745 z m 504.21072,-171.14286 0,-174.970352 38.27474,0 38.27479,0 0.11484,24.605223 c 0.1112,23.8417232 0.23008,24.4361502 3.82749,19.157003 24.48637,-35.931896 72.87363,-55.665826 122.79652,-50.080486 38.77059,4.33765 70.50608,25.047163 86.37684,56.3666002 l 5.78287,11.411955 8.81424,-13.199399 c 16.87238,-25.2668132 42.79133,-43.6062962 73.01751,-51.6650962 17.25043,-4.59924 56.70812,-4.56773 74.3624,0.0594 44.93193,11.77642 73.81613,41.390459 88.97353,91.221522 4.7435,15.594937 4.8904,19.217377 5.6357,139.09014 l 0.7652,123.07816 -37.8451,-0.59896 -37.84519,-0.59891 -1.14102,-110.45002 C 990.60728,62.21525 990.48646,61.091707 976.61386,41.941094 944.98892,-1.7158298 871.41771,6.0730902 845.97819,55.771437 835.70461,75.841794 835.71654,75.70568 834.5074,187.01932 l -1.16411,107.16936 -37.72799,0.59842 -37.72799,0.59843 -0.0675,-97.92567 c -0.0364,-53.85912 -1.01849,-105.253326 -2.18077,-114.20934 -3.88496,-29.935883 -19.51314,-54.29524 -41.2988,-64.371723 -14.31772,-6.622387 -46.42229,-6.36371 -63.97439,0.51545 -21.69277,8.502023 -36.94609,23.915967 -46.35682,46.845063 -4.54425,11.07197 -4.70834,14.772487 -5.33091,120.23326 l -0.64226,108.80964 -38.17923,0 -38.17919,0 0,-174.97031 z M 1553.2733,293.82405 c -0.8019,-0.80191 -1.4581,-79.53859 -1.4581,-174.97035 l 0,-173.512232 38.2748,0 38.2748,0 0,174.970352 0,174.97031 -36.8167,0 c -20.2492,0 -37.4729,-0.65613 -38.2748,-1.45808 z m 14.9454,-446.60959 c -35.5086,-16.17185 -38.4265,-63.45781 -5.1841,-84.01005 47.9329,-29.63466 102.6591,28.36243 67.2721,71.29294 -13.0881,15.8782 -42.0997,21.82048 -62.088,12.71711 z"
       style="fill:#000000" />
  </g>
</svg>
