<?xml version="1.0" encoding="UTF-8" standalone="no"?>
<svg
   xmlns:sketch="http://www.bohemiancoding.com/sketch/ns"
   xmlns:dc="http://purl.org/dc/elements/1.1/"
   xmlns:cc="http://creativecommons.org/ns#"
   xmlns:rdf="http://www.w3.org/1999/02/22-rdf-syntax-ns#"
   xmlns:svg="http://www.w3.org/2000/svg"
   xmlns="http://www.w3.org/2000/svg"
   xmlns:sodipodi="http://sodipodi.sourceforge.net/DTD/sodipodi-0.dtd"
   xmlns:inkscape="http://www.inkscape.org/namespaces/inkscape"
   width="2048"
   height="2048"
   viewBox="0 0 2048 2048"
   version="1.1"
   id="svg2"
   inkscape:version="0.48.4 r9939"
   sodipodi:docname="analytics.svg">
  <metadata
     id="metadata15">
    <rdf:RDF>
      <cc:Work
         rdf:about="">
        <dc:format>image/svg+xml</dc:format>
        <dc:type
           rdf:resource="http://purl.org/dc/dcmitype/StillImage" />
      </cc:Work>
    </rdf:RDF>
  </metadata>
  <sodipodi:namedview
     pagecolor="#ffffff"
     bordercolor="#666666"
     borderopacity="1"
     objecttolerance="10"
     gridtolerance="10"
     guidetolerance="10"
     inkscape:pageopacity="0"
     inkscape:pageshadow="2"
     inkscape:window-width="1861"
     inkscape:window-height="1056"
     id="namedview13"
     showgrid="false"
     inkscape:zoom="0.20983251"
     inkscape:cx="870.26276"
     inkscape:cy="411.6222"
     inkscape:window-x="59"
     inkscape:window-y="24"
     inkscape:window-maximized="1"
     inkscape:current-layer="svg2" />
  <!-- Generator: Sketch 3.1.1 (8761) - http://www.bohemiancoding.com/sketch -->
  <title
     id="title4">Analytics</title>
  <desc
     id="desc6">Created with Sketch.</desc>
  <defs
     id="defs8" />
  <path
     style="fill:#000000;fill-opacity:0.9;fill-rule:evenodd;stroke:none"
     d="m 1891.8019,519.34335 c -79.8737,0 -144.6342,64.55961 -144.6342,144.18724 0,13.58965 2.4595,26.45918 6.0031,38.85861 l -192.58,112.0338 c -26.2147,-26.34969 -62.5175,-42.75118 -102.6898,-42.75118 -79.8738,0 -144.6334,64.55971 -144.6334,144.18735 0,29.2338 8.8583,56.34155 23.8284,79.05058 l -244.9015,263.17875 c -20.429,-10.9943 -43.3898,-17.8073 -68.1945,-17.8073 -18.0065,0 -35.07393,3.7131 -50.98315,9.7325 L 700.02066,864.38459 c 21.33357,-25.12487 34.71171,-57.17051 34.71171,-92.71277 0,-79.62754 -64.75931,-144.18799 -144.6333,-144.18799 -79.87391,0 -144.63355,64.56045 -144.63355,144.18799 0,24.51172 6.68923,47.18529 17.42829,67.29899 L 234.84275,1047.4304 c -22.6713,-14.7075 -49.57311,-23.4309 -78.64449,-23.4309 -79.873905,0 -144.633631,64.5605 -144.633631,144.1881 0,79.6277 64.759726,144.1873 144.633631,144.1873 79.87391,0 144.63363,-64.5596 144.63363,-144.1873 0,-24.44 -6.68932,-47.1137 -17.42837,-67.2998 L 511.45458,892.50064 c 22.6713,14.63504 49.60932,23.35852 78.64449,23.35852 18.00694,0 35.07372,-3.64069 50.98336,-9.66014 l 272.99586,385.55758 c -21.33357,25.124 -34.71171,57.2421 -34.71171,92.7127 0,79.6268 64.75964,144.1873 144.63342,144.1873 79.8737,0 144.6334,-64.5605 144.6334,-144.1873 0,-28.7301 -8.6782,-55.404 -23.2498,-77.9336 l 244.5394,-264.0794 c 20.3573,10.8495 43.2457,17.5908 67.978,17.5908 79.8737,0 144.6334,-64.56036 144.6334,-144.18794 0,-13.51728 -2.4587,-26.38587 -6.0022,-38.8586 l 192.58,-112.0338 c 26.2147,26.4229 62.5174,42.75192 102.6897,42.75192 79.8738,0 144.6335,-64.56045 144.6335,-144.18809 0,-79.62763 -64.7597,-144.18724 -144.6335,-144.18724 l 0,0 z M 156.19826,1240.2812 c -39.91892,0 -72.31686,-32.262 -72.31686,-72.0936 0,-39.7961 32.39794,-72.0936 72.31686,-72.0936 39.95506,0 72.31678,32.2975 72.31678,72.0936 0,39.8316 -32.36172,72.0936 -72.31678,72.0936 l 0,0 z M 590.09907,843.76545 c -39.91884,0 -72.31678,-32.26208 -72.31678,-72.09363 0,-39.75981 32.39794,-72.09361 72.31678,-72.09361 39.95506,0 72.31686,32.3338 72.31686,72.09361 0,39.83155 -32.3618,72.09363 -72.31686,72.09363 l 0,0 z M 1024,1456.5629 c -39.9188,0 -72.31674,-32.262 -72.31674,-72.0936 0,-39.7961 32.39794,-72.0944 72.31674,-72.0944 39.955,0 72.3167,32.2983 72.3167,72.0944 0,39.8316 -32.3617,72.0936 -72.3167,72.0936 l 0,0 z m 433.901,-468.61005 c -39.9188,0 -72.3167,-32.22593 -72.3167,-72.09368 0,-39.75992 32.3979,-72.09371 72.3167,-72.09371 39.9549,0 72.3166,32.33379 72.3166,72.09371 0,39.86775 -32.3617,72.09368 -72.3166,72.09368 l 0,0 z m 433.9009,-252.32778 c -39.9187,0 -72.3166,-32.26209 -72.3166,-72.09447 0,-39.75907 32.3979,-72.09362 72.3166,-72.09362 39.955,0 72.3167,32.33455 72.3167,72.09362 0,39.83238 -32.3617,72.09447 -72.3167,72.09447 l 0,0 z"
     id="Analytics"
     sketch:type="MSShapeGroup"
     inkscape:connector-curvature="0" />
</svg>
