<?xml version="1.0" encoding="UTF-8" standalone="no"?>
<svg
   xmlns:sketch="http://www.bohemiancoding.com/sketch/ns"
   xmlns:dc="http://purl.org/dc/elements/1.1/"
   xmlns:cc="http://creativecommons.org/ns#"
   xmlns:rdf="http://www.w3.org/1999/02/22-rdf-syntax-ns#"
   xmlns:svg="http://www.w3.org/2000/svg"
   xmlns="http://www.w3.org/2000/svg"
   xmlns:sodipodi="http://sodipodi.sourceforge.net/DTD/sodipodi-0.dtd"
   xmlns:inkscape="http://www.inkscape.org/namespaces/inkscape"
   width="2048"
   height="2048"
   viewBox="0 0 2048 2048"
   version="1.1"
   id="svg2"
   inkscape:version="0.48.4 r9939"
   sodipodi:docname="application.svg">
  <metadata
     id="metadata15">
    <rdf:RDF>
      <cc:Work
         rdf:about="">
        <dc:format>image/svg+xml</dc:format>
        <dc:type
           rdf:resource="http://purl.org/dc/dcmitype/StillImage" />
      </cc:Work>
    </rdf:RDF>
  </metadata>
  <sodipodi:namedview
     pagecolor="#ffffff"
     bordercolor="#666666"
     borderopacity="1"
     objecttolerance="10"
     gridtolerance="10"
     guidetolerance="10"
     inkscape:pageopacity="0"
     inkscape:pageshadow="2"
     inkscape:window-width="1861"
     inkscape:window-height="1056"
     id="namedview13"
     showgrid="false"
     inkscape:zoom="0.23976609"
     inkscape:cx="215.94844"
     inkscape:cy="659.78309"
     inkscape:window-x="59"
     inkscape:window-y="24"
     inkscape:window-maximized="1"
     inkscape:current-layer="svg2" />
  <!-- Generator: Sketch 3.1 (8751) - http://www.bohemiancoding.com/sketch -->
  <title
     id="title4">Icon-integrate</title>
  <desc
     id="desc6">Created with Sketch.</desc>
  <defs
     id="defs8" />
  <path
     d="m 1161.2865,1669.3915 549.1463,0 c 25.3065,0 45.7621,-20.6059 45.7621,-46.0994 l 0,-737.59027 c 0,-25.49349 -20.4556,-46.09939 -45.7621,-46.09939 l -549.1463,0 c -25.3065,0 -45.7621,20.6059 -45.7621,46.09939 l 0,737.59027 c 0,25.4935 20.4556,46.0994 45.7621,46.0994 l 0,0 z m 45.7621,-737.59023 457.622,0 0,645.39143 -457.622,0 0,-645.39143 z m -869.48145,368.79513 549.1463,0 c 25.30655,0 45.76217,-20.6059 45.76217,-46.0994 0,-25.4469 -20.45562,-46.0994 -45.76217,-46.0994 l -549.1463,0 c -25.30655,0 -45.76218,20.6525 -45.76218,46.0994 0,25.4935 20.45563,46.0994 45.76218,46.0994 l 0,0 z m 0,-368.79513 549.1463,0 c 25.30655,0 45.76217,-20.6059 45.76217,-46.09943 0,-25.49349 -20.45562,-46.09939 -45.76217,-46.09939 l -549.1463,0 c -25.30655,0 -45.76218,20.6059 -45.76218,46.09939 0,25.49353 20.45563,46.09943 45.76218,46.09943 l 0,0 z M 566.37802,286.40978 c -50.52153,0 -91.52435,41.25843 -91.52435,92.19878 0,50.94036 41.00281,92.19878 91.52435,92.19878 50.52154,0 91.52435,-41.25842 91.52435,-92.19878 0,-50.94035 -41.0028,-92.19878 -91.52435,-92.19878 l 0,0 z m 274.57325,0 c -50.52154,0 -91.52456,41.25843 -91.52456,92.19878 0,50.94036 41.00302,92.19878 91.52456,92.19878 50.52133,0 91.52435,-41.25842 91.52435,-92.19878 0,-50.94035 -41.00302,-92.19878 -91.52435,-92.19878 l 0,0 z m 1006.76823,-184.39755 -1647.43908,0 c -101.088646,0 -183.048695,82.56348 -183.048695,184.39755 l 0,1475.18042 c 0,101.8341 81.960049,184.3976 183.048695,184.3976 l 1647.43918,0 c 101.0886,0 183.0487,-82.5635 183.0487,-184.3976 l 0,-1475.18042 c 0,-101.83407 -81.9601,-184.39755 -183.0487,-184.39755 l 0,0 z m 91.5243,1659.57797 c 0,50.9404 -41.0029,92.1988 -91.5243,92.1988 l -1647.43908,0 c -50.52133,0 -91.52435,-41.2584 -91.52435,-92.1988 l 0,-1106.38531 1830.48773,0 0,1106.38531 0,0 z m 0,-1198.58409 -1830.48772,0 0,-276.59633 c 0,-50.89372 41.00301,-92.19877 91.52434,-92.19877 l 1647.43908,0 c 50.5213,0 91.5243,41.30505 91.5243,92.19877 l 0,276.59633 0,0 z M 291.80497,286.40978 c -50.52153,0 -91.52455,41.25843 -91.52455,92.19878 0,50.94036 41.00302,92.19878 91.52455,92.19878 50.52133,0 91.52435,-41.25842 91.52435,-92.19878 0,-50.94035 -41.00302,-92.19878 -91.52435,-92.19878 l 0,0 z m 45.76218,1382.98172 549.1463,0 c 25.30655,0 45.76217,-20.6059 45.76217,-46.0994 0,-25.4469 -20.45562,-46.0994 -45.76217,-46.0994 l -549.1463,0 c -25.30655,0 -45.76218,20.6525 -45.76218,46.0994 0,25.4935 20.45563,46.0994 45.76218,46.0994 l 0,0 z"
     id="Icon-integrate"
     sketch:type="MSShapeGroup"
     style="fill:#000000;fill-rule:evenodd;stroke:none"
     inkscape:connector-curvature="0" />
</svg>
