<?xml version="1.0" encoding="UTF-8" standalone="no"?>
<svg
   xmlns:sketch="http://www.bohemiancoding.com/sketch/ns"
   xmlns:dc="http://purl.org/dc/elements/1.1/"
   xmlns:cc="http://creativecommons.org/ns#"
   xmlns:rdf="http://www.w3.org/1999/02/22-rdf-syntax-ns#"
   xmlns:svg="http://www.w3.org/2000/svg"
   xmlns="http://www.w3.org/2000/svg"
   xmlns:sodipodi="http://sodipodi.sourceforge.net/DTD/sodipodi-0.dtd"
   xmlns:inkscape="http://www.inkscape.org/namespaces/inkscape"
   width="2038"
   height="2048"
   viewBox="0 0 2038 2048"
   version="1.1"
   id="svg2"
   inkscape:version="0.48.4 r9939"
   sodipodi:docname="approval.svg">
  <metadata
     id="metadata15">
    <rdf:RDF>
      <cc:Work
         rdf:about="">
        <dc:format>image/svg+xml</dc:format>
        <dc:type
           rdf:resource="http://purl.org/dc/dcmitype/StillImage" />
      </cc:Work>
    </rdf:RDF>
  </metadata>
  <sodipodi:namedview
     pagecolor="#ffffff"
     bordercolor="#666666"
     borderopacity="1"
     objecttolerance="10"
     gridtolerance="10"
     guidetolerance="10"
     inkscape:pageopacity="0"
     inkscape:pageshadow="2"
     inkscape:window-width="1861"
     inkscape:window-height="1056"
     id="namedview13"
     showgrid="false"
     inkscape:zoom="0.31052632"
     inkscape:cx="401.47326"
     inkscape:cy="825.30793"
     inkscape:window-x="59"
     inkscape:window-y="24"
     inkscape:window-maximized="1"
     inkscape:current-layer="svg2" />
  <!-- Generator: Sketch 3.1.1 (8761) - http://www.bohemiancoding.com/sketch -->
  <title
     id="title4">Icon-approval</title>
  <desc
     id="desc6">Created with Sketch.</desc>
  <defs
     id="defs8" />
  <path
     style="fill:#000000;fill-opacity:0.9;fill-rule:evenodd;stroke:none"
     d="m 1925.9921,1484.8478 c -10.013,-46.6998 -30.767,-87.7209 -53.0229,-108.8729 54.2518,-62.9069 56.1178,-141.198 56.1178,-188.3537 0,-87.721 -33.6799,-157.4961 -104.3618,-198.88413 25.7149,-99.1674 -3.4136,-173.38287 -56.2544,-201.03635 -40.0972,-21.01418 -83.9265,-29.20992 -131.0326,-29.20992 -53.5237,0 -111.371,10.62159 -172.9957,24.9986 -72.0019,16.75621 -154.8362,34.06164 -230.388,34.06164 -22.5747,0 -44.5575,-1.54797 -65.2661,-5.12738 -64.0824,-10.94179 -78.1462,-27.65347 -81.2865,-34.3373 -10.195,-21.93024 20.3899,-77.19054 49.8825,-130.5742 47.6977,-86.16451 106.9104,-209.23212 106.9104,-338.06539 0,-183.1351 -109.1861,-292.603936 -214.8677,-292.603936 -66.03993,0 -132.76218,46.424167 -132.76218,150.031936 0,175.21502 -73.45846,203.69125 -349.95124,487.64141 -116.01334,119.03867 -162.80096,208.3606 -193.79529,267.37632 -42.828,81.7242 -92.80147,101.7311 -194.84218,102.1892 -1.18324,0 -2.23013,-0.721 -3.45896,-0.721 -25.25986,0 -45.69535,20.6473 -45.69535,46.0107 0,19.1375 11.56034,35.529 28.03622,42.4418 36.22837,5.1274 108.86746,-3.1129 108.86746,-3.1129 76.87204,-13.9635 139.54371,-52.3297 187.83329,-144.631 30.26615,-57.5038 71.72876,-136.29744 178.09318,-245.49061 54.889,-56.40537 101.17597,-102.00678 141.91019,-142.24968 165.53175,-163.4017 234.02907,-231.02454 234.02907,-409.44364 0,-39.32684 13.65389,-58.46438 41.73579,-58.46438 49.9278,0 123.8413,63.86742 123.8413,201.03638 0,108.32377 -54.4793,219.44023 -95.3956,293.60906 -44.421,80.21225 -82.69754,149.48272 -52.7955,213.76364 27.2625,58.87788 97.7624,77.19054 148.3277,85.88884 24.8048,4.21344 51.9761,6.41028 80.6495,6.41028 83.1981,0 169.7643,-17.53444 250.9144,-36.44296 47.9253,-11.17081 103.4971,-22.61728 152.4693,-22.61728 36.1829,0 64.4011,5.99678 88.9784,18.86187 12.5616,6.54811 24.4407,41.84812 10.2405,96.78823 l -17.4316,67.20935 59.7134,34.9798 c 25.4418,14.8329 59.0761,43.4025 59.0761,119.7236 0,43.1268 -2.5942,92.1613 -33.8163,128.3774 l -57.0735,66.2487 63.3542,60.2965 c 5.1885,4.9896 19.2067,27.4245 26.5343,61.5794 7.3732,34.7042 -32.9515,93.4887 -78.6013,155.8018 l -26.3067,35.9383 11.9244,42.9911 c 4.3239,15.293 10.6502,28.2027 16.2484,39.558 12.7435,25.5923 12.1519,26.784 6.2353,37.588 -15.5656,29.0276 -98.5818,123.5702 -510.8862,123.5702 -377.53214,0 -507.42693,-20.5117 -624.71448,-67.485 -201.57817,-80.6703 -476.11393,-69.7752 -476.11393,-69.7752 l 0,0.4665 -0.19085,0 c -25.25985,0 -45.69535,20.5583 -45.69535,46.0128 0,19.093 10.7412,37.9083 27.99064,42.3952 13.51735,3.6643 25.39641,2.5192 22.7566,2.8394 224.47133,0.3181 324.19073,20.2359 439.11158,63.8229 133.99097,50.6821 276.62955,73.2994 656.84689,73.2994 313.4498,0 527.8625,-54.4375 590.9895,-171.5063 37.6849,-70.002 -6.5995,-115.4656 -14.8374,-145.4092 64.1736,-87.6298 109.5958,-157.265 94.2124,-229.3748"
     id="Icon-approval"
     sketch:type="MSShapeGroup"
     inkscape:connector-curvature="0" />
</svg>
