<?xml version="1.0" encoding="UTF-8" standalone="no"?>
<svg
   xmlns:dc="http://purl.org/dc/elements/1.1/"
   xmlns:cc="http://creativecommons.org/ns#"
   xmlns:rdf="http://www.w3.org/1999/02/22-rdf-syntax-ns#"
   xmlns:svg="http://www.w3.org/2000/svg"
   xmlns="http://www.w3.org/2000/svg"
   xmlns:sodipodi="http://sodipodi.sourceforge.net/DTD/sodipodi-0.dtd"
   xmlns:inkscape="http://www.inkscape.org/namespaces/inkscape"
   version="1.1"
   x="0px"
   y="0px"
   width="2048"
   height="2048"
   viewBox="0 0 2048 2048"
   enable-background="new 0 0 300 73"
   xml:space="preserve"
   id="svg2"
   inkscape:version="0.91 r"
   sodipodi:docname="bigcommerce.svg"><metadata
     id="metadata46"><rdf:RDF><cc:Work
         rdf:about=""><dc:format>image/svg+xml</dc:format><dc:type
           rdf:resource="http://purl.org/dc/dcmitype/StillImage" /><dc:title /></cc:Work></rdf:RDF></metadata><defs
     id="defs44" /><sodipodi:namedview
     pagecolor="#ffffff"
     bordercolor="#666666"
     borderopacity="1"
     objecttolerance="10"
     gridtolerance="10"
     guidetolerance="10"
     inkscape:pageopacity="0"
     inkscape:pageshadow="2"
     inkscape:window-width="1855"
     inkscape:window-height="1056"
     id="namedview42"
     showgrid="false"
     inkscape:zoom="0.18915106"
     inkscape:cx="-758.47728"
     inkscape:cy="49.238478"
     inkscape:window-x="65"
     inkscape:window-y="24"
     inkscape:window-maximized="1"
     inkscape:current-layer="g6" /><style
     id="style4">.style0{fill:	#114560;}.style1{opacity:	0.6;}.style2{fill:	#00A9C7;}</style><g
     id="g6"
     transform="translate(0,1975)"><path
       style="fill:#000000"
       inkscape:connector-curvature="0"
       d="m 1405.7354,-1091.3716 c -122.8089,155.51459 -347.2734,259.98023 -604.59976,259.98023 -210.83066,0 -322.68564,-70.27689 -381.25405,-181.11713 -49.46181,105.97472 -61.19631,240.83036 -61.19631,387.86282 0,340.45651 62.15901,616.5684289 513.53383,616.5684289 451.34879,0 817.09559,-276.1119189 817.09559,-616.5684289 0,-186.58109 -109.9296,-353.62204 -283.5793,-466.72592 z m -533.51629,-149.7645 c 204.06579,0 390.38669,56.565 533.51629,149.7905 62.8875,-79.5136 99.6001,-172.0105 99.6001,-271.2984 0,-293.3885 -315.2182,-531.2787 -704.17384,-531.2787 -388.90359,0 -442.47638,237.8642 -442.47638,531.2787 0,134.2832 11.7345,256.5978 61.19631,350.1615 65.12515,-139.513 195.89584,-228.6536 452.33752,-228.6536 z"
       id="path38" /></g></svg>