<?xml version="1.0" encoding="UTF-8" standalone="no"?>
<!-- Generated by IcoMoon.io -->

<svg
   xmlns:dc="http://purl.org/dc/elements/1.1/"
   xmlns:cc="http://creativecommons.org/ns#"
   xmlns:rdf="http://www.w3.org/1999/02/22-rdf-syntax-ns#"
   xmlns:svg="http://www.w3.org/2000/svg"
   xmlns="http://www.w3.org/2000/svg"
   xmlns:sodipodi="http://sodipodi.sourceforge.net/DTD/sodipodi-0.dtd"
   xmlns:inkscape="http://www.inkscape.org/namespaces/inkscape"
   version="1.1"
   width="2048"
   height="2048"
   viewBox="0 0 2048 2048"
   id="svg2"
   inkscape:version="0.48.4 r9939"
   sodipodi:docname="blackberry.svg">
  <metadata
     id="metadata24">
    <rdf:RDF>
      <cc:Work
         rdf:about="">
        <dc:format>image/svg+xml</dc:format>
        <dc:type
           rdf:resource="http://purl.org/dc/dcmitype/StillImage" />
      </cc:Work>
    </rdf:RDF>
  </metadata>
  <defs
     id="defs22" />
  <sodipodi:namedview
     pagecolor="#ffffff"
     bordercolor="#666666"
     borderopacity="1"
     objecttolerance="10"
     gridtolerance="10"
     guidetolerance="10"
     inkscape:pageopacity="0"
     inkscape:pageshadow="2"
     inkscape:window-width="1861"
     inkscape:window-height="1056"
     id="namedview20"
     showgrid="false"
     inkscape:zoom="0.16296602"
     inkscape:cx="471.16096"
     inkscape:cy="470.66289"
     inkscape:window-x="59"
     inkscape:window-y="24"
     inkscape:window-maximized="1"
     inkscape:current-layer="svg2" />
  <g
     id="g4"
     transform="translate(0,1536)" />
  <path
     d="m 1548.844,626.80235 -73.332,346.77408 364.2732,-2.9022 c 0,0 164.4636,-23.6512 185.3457,-149.8668 0,0 32.1388,-147.01179 -120.8062,-188.11482 l -355.4764,-5.89026 z"
     id="path6"
     inkscape:connector-curvature="0"
     style="fill:#000000" />
  <path
     d="m 1448.8298,1173.1197 -73.4608,346.9502 364.3161,-3.0783 c 0,0 164.5967,-23.4751 185.1225,-149.6907 0,0 32.3105,-147.0977 -120.2824,-188.2007 l -355.6997,-5.9762 z"
     id="path8"
     inkscape:connector-curvature="0"
     style="fill:#000000" />
  <path
     d="m 187.68278,314.57987 -73.37067,346.73117 364.44488,-2.85927 c 0,0 164.50658,-23.51811 185.03663,-149.90972 0,0 32.40072,-146.92166 -120.54428,-188.06762 l -355.56656,-5.89026 z"
     id="path10"
     inkscape:connector-curvature="0"
     style="fill:#000000" />
  <path
     d="m 93.64897,843.35963 -73.593918,346.68817 364.359018,-2.9923 c 0,0 164.77275,-23.4323 185.16971,-149.7767 0,0 32.31058,-147.05467 -120.41119,-188.11477 l -355.52362,-5.8001 z"
     id="path12"
     inkscape:connector-curvature="0"
     style="fill:#000000" />
  <path
     d="m 898.73003,316.95401 -73.50376,346.73116 364.40633,-2.9022 c 0,0 164.5967,-23.51811 185.2126,-149.86678 0,0 32.2247,-147.01182 -120.6344,-188.06763 L 898.73432,316.9583 z"
     id="path14"
     inkscape:connector-curvature="0"
     style="fill:#000000" />
  <path
     d="m 804.56313,845.55773 -73.59392,346.95007 364.53509,-3.0782 c 0,0 164.4636,-23.5181 185.0838,-149.6908 0,0 32.4437,-147.01177 -120.2823,-188.15777 l -355.74267,-6.0233 z"
     id="path16"
     inkscape:connector-curvature="0"
     style="fill:#000000" />
  <path
     d="m 702.969,1386.5601 -73.54669,346.86 364.40624,-2.9451 c 0,0 164.68265,-23.5611 185.16975,-149.9527 0,0 32.4007,-146.7928 -120.3253,-188.0719 l -355.6997,-5.8903 z"
     id="path18"
     inkscape:connector-curvature="0"
     style="fill:#000000" />
</svg>
