<?xml version="1.0" encoding="UTF-8" standalone="no"?>
<svg
   xmlns:sketch="http://www.bohemiancoding.com/sketch/ns"
   xmlns:dc="http://purl.org/dc/elements/1.1/"
   xmlns:cc="http://creativecommons.org/ns#"
   xmlns:rdf="http://www.w3.org/1999/02/22-rdf-syntax-ns#"
   xmlns:svg="http://www.w3.org/2000/svg"
   xmlns="http://www.w3.org/2000/svg"
   xmlns:sodipodi="http://sodipodi.sourceforge.net/DTD/sodipodi-0.dtd"
   xmlns:inkscape="http://www.inkscape.org/namespaces/inkscape"
   width="2048"
   height="2048"
   viewBox="0 0 2048 2048"
   version="1.1"
   id="svg2"
   inkscape:version="0.48.4 r9939"
   sodipodi:docname="cloud.svg">
  <metadata
     id="metadata15">
    <rdf:RDF>
      <cc:Work
         rdf:about="">
        <dc:format>image/svg+xml</dc:format>
        <dc:type
           rdf:resource="http://purl.org/dc/dcmitype/StillImage" />
      </cc:Work>
    </rdf:RDF>
  </metadata>
  <sodipodi:namedview
     pagecolor="#ffffff"
     bordercolor="#666666"
     borderopacity="1"
     objecttolerance="10"
     gridtolerance="10"
     guidetolerance="10"
     inkscape:pageopacity="0"
     inkscape:pageshadow="2"
     inkscape:window-width="1861"
     inkscape:window-height="1056"
     id="namedview13"
     showgrid="false"
     inkscape:zoom="0.25"
     inkscape:cx="604.80237"
     inkscape:cy="404.03913"
     inkscape:window-x="59"
     inkscape:window-y="24"
     inkscape:window-maximized="1"
     inkscape:current-layer="svg2"
     showguides="true"
     inkscape:guide-bbox="true">
    <sodipodi:guide
       orientation="1,0"
       position="48.390625,6.9375"
       id="guide3753" />
    <sodipodi:guide
       orientation="1,0"
       position="76.792969,7.5742188"
       id="guide3755" />
  </sodipodi:namedview>
  <!-- Generator: Sketch 3.1.1 (8761) - http://www.bohemiancoding.com/sketch -->
  <title
     id="title4">Icon-cloud</title>
  <desc
     id="desc6">Created with Sketch.</desc>
  <defs
     id="defs8" />
  <path
     style="fill:#000000;fill-opacity:1;stroke:none"
     d="m 426.16841,1578.963 0,0 c -177.07464,-0.4683 -320.47822,-145.0796 -320.47822,-323.4817 0,-178.725 143.81699,-323.57212 321.21298,-323.57212 2.48041,0 4.77672,0.6944 7.16508,0.7429 -3.94992,-15.2523 -6.70646,-31.0132 -6.70646,-47.559 0,-102.0035 79.55714,-184.687 177.71734,-184.687 94.76095,0 182.63134,85.2269 188.55622,183.0237 l 0.69438,0 c 5.92488,-225.1745 198.15649,-414.29912 419.73957,-414.29912 225.1213,0 407.6137,186.35192 407.6137,416.19342 0,52.9202 -10.0589,103.3438 -27.7431,149.93222 23.4718,-6.5627 46.7953,-11.0585 72.2889,-11.0585 151.9476,0 275.0959,124.1868 275.0959,277.4472 0,153.2589 -123.1483,277.4924 -275.0959,277.4924 l -412.7189,-0.1615 c -26.3751,-0.1614 -46.2294,20.5861 -46.2294,46.0071 0,25.3741 20.7169,45.986 46.2089,45.986 l 0,0 412.9879,0 0,0 c 0.2745,0 0.5006,0 0.7267,0 202.888,0 367.3765,-165.4606 367.3765,-369.5597 0,-189.4945 -141.7967,-345.43402 -324.3828,-366.87922 l 0,0 -0.081,0 c 1.5179,-16.2227 2.4336,-32.6764 2.4336,-49.3611 -0.01,-280.62194 -226.1822,-508.19936 -505.2733,-508.19936 -195.4484,0 -364.61999,111.84767 -448.6325,275.13636 -42.81126,-27.45407 -93.29143,-43.86093 -147.76836,-43.86093 -139.91374,0 -254.24181,105.28493 -272.06489,241.25843 C 152.82763,890.12988 13.4195,1056.3301 13.4195,1255.4361 c 0,229.2892 184.74452,415.2245 412.7586,415.5943 l 0,0 0.64594,0 0.16149,0 0.16148,0 367.55898,0 c 25.49362,0 47.63623,-20.7524 47.63623,-46.1265 0,-25.421 -21.52054,-45.324 -47.48726,-45.3934 z"
     id="Icon-cloud"
     sketch:type="MSShapeGroup"
     inkscape:connector-curvature="0"
     sodipodi:nodetypes="ccsscssccsscssccsccccsscccsscscscccccsscc" />
</svg>
