<?xml version="1.0" encoding="UTF-8" standalone="no"?>
<svg
   xmlns:dc="http://purl.org/dc/elements/1.1/"
   xmlns:cc="http://creativecommons.org/ns#"
   xmlns:rdf="http://www.w3.org/1999/02/22-rdf-syntax-ns#"
   xmlns:svg="http://www.w3.org/2000/svg"
   xmlns="http://www.w3.org/2000/svg"
   xmlns:sodipodi="http://sodipodi.sourceforge.net/DTD/sodipodi-0.dtd"
   xmlns:inkscape="http://www.inkscape.org/namespaces/inkscape"
   version="1.1"
   id="Layer_1"
   x="0px"
   y="0px"
   width="2048"
   height="2048"
   viewBox="0 0 2048 2048"
   enable-background="new 0 0 100 100"
   xml:space="preserve"
   inkscape:version="0.48.5 r10040"
   sodipodi:docname="consultants.svg"><metadata
     id="metadata12"><rdf:RDF><cc:Work
         rdf:about=""><dc:format>image/svg+xml</dc:format><dc:type
           rdf:resource="http://purl.org/dc/dcmitype/StillImage" /><dc:title></dc:title></cc:Work></rdf:RDF></metadata><defs
     id="defs10" /><sodipodi:namedview
     pagecolor="#ffffff"
     bordercolor="#666666"
     borderopacity="1"
     objecttolerance="10"
     gridtolerance="10"
     guidetolerance="10"
     inkscape:pageopacity="0"
     inkscape:pageshadow="2"
     inkscape:window-width="1855"
     inkscape:window-height="1056"
     id="namedview8"
     showgrid="false"
     showguides="true"
     inkscape:guide-bbox="true"
     inkscape:zoom="0.2085965"
     inkscape:cx="-304.11007"
     inkscape:cy="830.86679"
     inkscape:window-x="65"
     inkscape:window-y="24"
     inkscape:window-maximized="1"
     inkscape:current-layer="Your_Icon" /><g
     id="Your_Icon"
     transform="translate(0,1948)"><path
       style="fill:#000000"
       d="m 1675.8011,-1900.4535 c -441.9367,0.7512 -883.96868,-1.5039 -1325.84571,1.1302 -121.36235,9.1117 -211.2271,130.1899 -196.24159,248.7544 0.74538,313.8112 -1.4961,627.7171 1.13023,941.46865 9.11982,121.37935 130.23996,211.20357 248.80526,196.22063 131.13526,0 262.2705,0 393.40576,0 -143.32816,144.90525 -289.99609,286.7904 -431.21368,433.604183 -63.90598,91.740144 87.46235,183.862457 144.39959,90.901826 171.26051,-171.260519 342.52103,-342.521039 513.78154,-513.781559 180.946,179.36971 358.8587,362.09418 541.7177,539.3479 91.7759,63.91548 183.8708,-87.50253 90.8971,-144.45042 -135.2073,-135.20732 -270.4146,-270.41464 -405.6219,-405.62195 152.6448,-1.56754 305.6037,3.20781 458.0436,-2.52105 116.7115,-14.88525 199.387,-132.7555 185.2977,-247.389 -0.7483,-313.81101 1.502,-627.71731 -1.1347,-941.46831 -9.3089,-108.768 -108.1598,-198.1645 -217.4209,-196.1955 z m 50.4203,1169.04371 c -6.2488,67.47961 -82.2847,47.29725 -128.8192,50.39484 -408.3776,0 -816.75524,0 -1225.13281,0 -67.52122,-6.2224 -47.35657,-82.29027 -50.44567,-128.8446 0,-288.43375 0,-576.86745 0,-865.30115 468.14101,0 936.28208,0 1404.42308,0 -0.017,314.5752 0.034,629.2181 -0.025,943.75091 z"
       id="path4"
       inkscape:connector-curvature="0" /></g></svg>