<?xml version="1.0" encoding="UTF-8" standalone="no"?>
<!-- Created with Inkscape (http://www.inkscape.org/) -->

<svg
   xmlns:dc="http://purl.org/dc/elements/1.1/"
   xmlns:cc="http://creativecommons.org/ns#"
   xmlns:rdf="http://www.w3.org/1999/02/22-rdf-syntax-ns#"
   xmlns:svg="http://www.w3.org/2000/svg"
   xmlns="http://www.w3.org/2000/svg"
   xmlns:sodipodi="http://sodipodi.sourceforge.net/DTD/sodipodi-0.dtd"
   xmlns:inkscape="http://www.inkscape.org/namespaces/inkscape"
   width="2048"
   height="2048"
   id="svg2"
   version="1.1"
   inkscape:version="0.48.5 r10040"
   sodipodi:docname="developers.svg">
  <defs
     id="defs4" />
  <sodipodi:namedview
     id="base"
     pagecolor="#ffffff"
     bordercolor="#666666"
     borderopacity="1.0"
     inkscape:pageopacity="0.0"
     inkscape:pageshadow="2"
     inkscape:zoom="0.175"
     inkscape:cx="3273.2118"
     inkscape:cy="758.06506"
     inkscape:document-units="px"
     inkscape:current-layer="layer1"
     showgrid="false"
     inkscape:window-width="1920"
     inkscape:window-height="1056"
     inkscape:window-x="1920"
     inkscape:window-y="24"
     inkscape:window-maximized="1"
     showguides="true"
     inkscape:guide-bbox="true" />
  <metadata
     id="metadata7">
    <rdf:RDF>
      <cc:Work
         rdf:about="">
        <dc:format>image/svg+xml</dc:format>
        <dc:type
           rdf:resource="http://purl.org/dc/dcmitype/StillImage" />
        <dc:title />
      </cc:Work>
    </rdf:RDF>
  </metadata>
  <g
     inkscape:label="Layer 1"
     inkscape:groupmode="layer"
     id="layer1"
     transform="translate(0,995.63782)">
    <path
       style="font-size:medium;font-style:normal;font-variant:normal;font-weight:normal;font-stretch:normal;text-indent:0;text-align:start;text-decoration:none;line-height:normal;letter-spacing:normal;word-spacing:normal;text-transform:none;direction:ltr;block-progression:tb;writing-mode:lr-tb;text-anchor:start;baseline-shift:baseline;color:#000000;fill:#000000;fill-opacity:1;stroke:none;stroke-width:132.51881409;marker:none;visibility:visible;display:inline;overflow:visible;enable-background:accumulate;font-family:Sans;-inkscape-font-specification:Sans"
       d="m 1271.617,-632.32983 a 61.853597,61.853597 0 0 0 -55.7714,39.43671 L 731.69579,603.24686 a 61.853597,61.853597 0 1 0 114.66399,46.37897 L 1330.5096,-546.48498 a 61.853597,61.853597 0 0 0 -58.8926,-85.84485 z m 115.6266,117.72675 a 61.853597,61.853597 0 0 0 -43.0828,106.20493 L 1780.9399,28.380942 1344.1608,465.16003 a 61.853597,61.853597 0 1 0 87.4783,87.44916 L 1912.1428,72.105522 a 61.853597,61.853597 0 0 0 0,-87.478328 L 1431.6391,-495.87647 a 61.853597,61.853597 0 0 0 -44.3955,-18.72661 z m -728.35405,0.0291 a 61.853597,61.853597 0 0 0 -42.52864,18.69744 L 135.85724,-15.372806 a 61.853597,61.853597 0 0 0 0,87.478328 L 616.36091,552.60919 a 61.853597,61.853597 0 1 0 87.47833,-87.44916 L 267.06015,28.380942 703.83924,-408.39815 a 61.853597,61.853597 0 0 0 -44.94969,-106.17576 z"
       id="path3839"
       inkscape:connector-curvature="0" />
  </g>
</svg>
