<?xml version="1.0" encoding="UTF-8" standalone="no"?>
<!-- Generator: Adobe Illustrator 16.0.0, SVG Export Plug-In . SVG Version: 6.00 Build 0)  -->

<svg
   xmlns:dc="http://purl.org/dc/elements/1.1/"
   xmlns:cc="http://creativecommons.org/ns#"
   xmlns:rdf="http://www.w3.org/1999/02/22-rdf-syntax-ns#"
   xmlns:svg="http://www.w3.org/2000/svg"
   xmlns="http://www.w3.org/2000/svg"
   xmlns:sodipodi="http://sodipodi.sourceforge.net/DTD/sodipodi-0.dtd"
   xmlns:inkscape="http://www.inkscape.org/namespaces/inkscape"
   version="1.1"
   id="Layer_1"
   x="0px"
   y="0px"
   width="2048"
   height="2048"
   viewBox="0 0 2048 2048"
   enable-background="new 0 0 512 512"
   xml:space="preserve"
   inkscape:version="0.48.4 r9939"
   sodipodi:docname="drupal.svg"><metadata
     id="metadata15"><rdf:RDF><cc:Work
         rdf:about=""><dc:format>image/svg+xml</dc:format><dc:type
           rdf:resource="http://purl.org/dc/dcmitype/StillImage" /></cc:Work></rdf:RDF></metadata><defs
     id="defs13" /><sodipodi:namedview
     pagecolor="#ffffff"
     bordercolor="#666666"
     borderopacity="1"
     objecttolerance="10"
     gridtolerance="10"
     guidetolerance="10"
     inkscape:pageopacity="0"
     inkscape:pageshadow="2"
     inkscape:window-width="1861"
     inkscape:window-height="1056"
     id="namedview11"
     showgrid="false"
     inkscape:zoom="0.32593203"
     inkscape:cx="836.55031"
     inkscape:cy="760.03173"
     inkscape:window-x="59"
     inkscape:window-y="24"
     inkscape:window-maximized="1"
     inkscape:current-layer="Layer_1" /><path
     d="M 1462.4039,391.60992 C 1359.5951,327.59627 1262.6021,302.37789 1165.6042,238.36425 1105.4711,197.62874 1022.0597,100.63571 952.22533,17.219548 938.64357,151.06759 897.90806,205.38486 851.3518,244.18012 c -98.93329,77.59051 -161.00668,100.87353 -246.3582,147.4298 -71.77465,36.855 -461.68215,269.63633 -461.68215,770.11378 0,500.4872 420.94664,869.0568 888.44955,869.0568 467.5028,0 872.9275,-339.4756 872.9275,-853.5348 0,-514.0592 -380.2062,-746.84052 -442.2846,-785.63578 z m 11.2066,1456.60608 c -9.6963,9.7013 -98.9283,71.7796 -203.6824,81.4759 -104.754,9.6964 -246.3631,15.5171 -331.71461,-62.0734 -13.57687,-13.5768 -9.69637,-32.9794 0,-40.7404 9.69637,-7.7561 17.45738,-13.5768 29.09889,-13.5768 11.63662,0 9.69637,0 15.51712,3.8805 38.7953,31.0391 96.9931,56.2575 221.1448,56.2575 124.1467,0 211.4433,-34.9197 250.2387,-64.0137 17.4573,-13.5817 25.2183,-1.9402 27.1586,5.8159 1.9451,7.761 5.8207,19.3976 -7.761,32.9745 z m -339.4706,-176.5238 c 21.3377,-19.3976 56.2574,-50.4368 89.232,-64.0185 32.9793,-13.5769 50.4368,-11.6366 81.4759,-11.6366 31.039,0 64.0135,1.9353 87.2917,17.4573 23.2781,15.5172 36.855,50.4319 44.616,69.8344 7.761,19.3977 0,31.0392 -15.5219,38.7953 -13.5769,7.7561 -15.5173,3.8756 -29.0941,-21.3379 -13.5769,-25.2184 -25.2184,-50.4368 -93.1175,-50.4368 -67.8941,0 -89.232,23.2782 -122.2065,50.4368 -32.9794,27.1586 -44.6208,36.855 -56.2575,21.3379 -11.6366,-15.5122 -7.7561,-31.0343 13.5818,-50.4319 z m 514.0591,15.522 c -69.8345,-5.8207 -209.5033,-223.0849 -298.7353,-226.9605 -112.5102,-3.8805 -356.93294,234.7166 -548.97875,234.7166 -116.39067,0 -151.30542,-17.4573 -190.10557,-42.6708 -58.19288,-40.7404 -87.29177,-102.8138 -85.35152,-188.1653 1.94025,-151.3103 143.5493,-292.9194 322.01335,-294.8596 226.96059,-1.9354 384.09159,225.0252 498.54199,223.0849 96.993,-1.9354 283.2181,-192.0458 374.3905,-192.0458 96.9929,0 124.1467,100.8735 124.1467,161.0067 0,60.1331 -19.3976,168.7677 -65.9538,236.6618 -46.5564,67.8941 -75.6504,93.1076 -129.9676,89.232 z"
     id="path9"
     inkscape:connector-curvature="0" /></svg>