<?xml version="1.0" encoding="UTF-8" standalone="no"?>
<svg
   xmlns:dc="http://purl.org/dc/elements/1.1/"
   xmlns:cc="http://creativecommons.org/ns#"
   xmlns:rdf="http://www.w3.org/1999/02/22-rdf-syntax-ns#"
   xmlns:svg="http://www.w3.org/2000/svg"
   xmlns="http://www.w3.org/2000/svg"
   xmlns:sodipodi="http://sodipodi.sourceforge.net/DTD/sodipodi-0.dtd"
   xmlns:inkscape="http://www.inkscape.org/namespaces/inkscape"
   version="1.1"
   id="svg2002"
   viewBox="0 0 2048 2048"
   height="2048"
   width="2048"
   xml:space="preserve"
   inkscape:version="0.91 r13725"
   sodipodi:docname="eon.svg"><sodipodi:namedview
     pagecolor="#ffffff"
     bordercolor="#666666"
     borderopacity="1"
     objecttolerance="10"
     gridtolerance="10"
     guidetolerance="10"
     inkscape:pageopacity="0"
     inkscape:pageshadow="2"
     inkscape:window-width="1279"
     inkscape:window-height="713"
     id="namedview6"
     showgrid="false"
     inkscape:zoom="0.11523438"
     inkscape:cx="1024"
     inkscape:cy="1024"
     inkscape:window-x="75"
     inkscape:window-y="34"
     inkscape:window-maximized="0"
     inkscape:current-layer="svg2002" /><metadata
     id="metadata2011"><rdf:RDF><cc:Work
         rdf:about=""><dc:format>image/svg+xml</dc:format><dc:type
           rdf:resource="http://purl.org/dc/dcmitype/StillImage" /><dc:title /></cc:Work></rdf:RDF></metadata><defs
     id="defs2009" /><path
     d="m 1370.6009,952.58037 c 0,61.59113 -38.3755,142.51173 -66.1123,195.97363 -43.5657,84.1276 -102.5023,134.5392 -198.3341,140.4845 -84.7047,5.2545 -276.14424,19.9595 -242.60527,-122.7763 14.54367,-61.7923 46.86217,-116.2337 66.70393,-175.90417 C 996.92331,857.334 1164.7041,831.97608 1297.997,865.2196 c 45.1182,16.41438 69.1324,38.38152 72.6043,87.35995 l -4e-4,8.2e-4 z m -223.7177,5.90346 c -68.5131,0 -76.8571,95.63687 -89.7212,146.97987 -3.2292,19.4037 -24.9564,84.4093 10.0345,84.4093 82.3756,16.5669 90.0367,-73.7845 103.8902,-133.9932 5.095,-22.1504 15.1957,-59.31329 10.6248,-82.04903 0,-16.91078 -23.5812,-14.21672 -34.8283,-15.3463 l 0,-6.4e-4 z m -471.63078,4.13283 c -8.45294,161.97404 -122.21844,149.36914 -257.36296,148.75024 -51.35964,-0.2122 -103.8823,-3.5413 -154.65366,-3.5413 -18.73497,19.0024 35.50607,76.639 50.76509,86.1797 52.08791,32.4492 117.44441,18.5168 159.37618,-23.613 22.52691,0 264.32355,-31.6042 180.62584,51.9462 -40.50988,36.0441 -97.82337,57.3335 -149.93357,69.6536 -165.8038,39.21 -523.958399,-56.1068 -403.16011,-289.8287 82.57706,-135.90856 261.43417,-210.22567 409.06364,-248.50568 13.74607,-2.74959 27.32663,-4.86605 41.32034,-5.90346 105.03512,-7.84257 123.95898,137.11856 123.95898,214.86281 l 2.3e-4,-4.1e-4 z M 521.18967,949.62961 c 0,-14.64969 0.59945,-30.14066 -4.13283,-44.27113 -16.21126,-65.31472 -186.31202,74.15997 -206.59722,94.44539 -2.54648,5.12863 -0.62223,3.53913 2.95075,5.31283 56.4516,0 113.03507,-0.5916 169.40968,-0.5916 37.12612,-6.12741 38.36962,-17.42697 38.36962,-54.89592 l 0,3.9e-4 z m 327.60484,83.22919 c -12.79779,25.7758 -9.93917,59.5896 -36.00844,79.0965 -35.65075,26.6744 -125.45317,26.7469 -105.65906,-37.7762 18.73795,-61.3405 54.1657,-87.42921 118.64635,-71.4243 15.72871,5.2673 19.44344,15.686 23.02138,30.104 l -2.3e-4,0 z M 1971.5051,953.17076 c 0,16.51251 -3.4641,33.53715 -7.0837,49.58404 -21.3082,94.1828 -55.6659,183.7874 -86.1821,274.4803 -27.9993,27.9984 -86.203,12.7521 -116.285,-5.3129 -15.0472,-15.048 22.3574,-91.8273 28.3342,-110.3832 9.1664,-28.4978 59.2519,-133.5851 17.1169,-154.6504 -13.5538,0 -24.3322,1.7736 -37.7762,5.3118 -126.0891,44.1434 -215.5848,172.4939 -306.355,263.2641 -39.3427,19.8111 -67.5959,14.741 -106.25,-4.7213 -3.8347,-3.8347 -1.9777,-9.9283 -1.1831,-14.7586 29.2509,-122.1678 75.5106,-243.2929 125.7301,-358.29965 7.9009,-23.48115 89.0836,-14.78049 109.2038,-4.72138 0,26.00679 -2.7299,69.65367 34.8253,69.65367 84.2541,-9.28625 290.6999,-192.17369 342.9518,-35.41687 1.4814,8.85128 2.9536,16.87415 2.9536,25.97113 l -6e-4,-7.4e-4 z"
     id="path2006"
     style="fill:#000000;fill-opacity:1;stroke:none"
     inkscape:connector-curvature="0" /></svg>