<?xml version="1.0" encoding="UTF-8" standalone="no"?>
<svg
   xmlns:dc="http://purl.org/dc/elements/1.1/"
   xmlns:cc="http://creativecommons.org/ns#"
   xmlns:rdf="http://www.w3.org/1999/02/22-rdf-syntax-ns#"
   xmlns:svg="http://www.w3.org/2000/svg"
   xmlns="http://www.w3.org/2000/svg"
   xmlns:sodipodi="http://sodipodi.sourceforge.net/DTD/sodipodi-0.dtd"
   xmlns:inkscape="http://www.inkscape.org/namespaces/inkscape"
   version="1.1"
   data-icon="browser-type-firefox"
   width="2048"
   height="2048"
   class="iconic iconic-browser-type iconic-size-lg iconic-browser-type-firefox"
   viewBox="0 0 2048 2048"
   id="svg2"
   inkscape:version="0.48.4 r9939"
   sodipodi:docname="firefox.svg">
  <metadata
     id="metadata18">
    <rdf:RDF>
      <cc:Work
         rdf:about="">
        <dc:format>image/svg+xml</dc:format>
        <dc:type
           rdf:resource="http://purl.org/dc/dcmitype/StillImage" />
      </cc:Work>
    </rdf:RDF>
  </metadata>
  <defs
     id="defs16" />
  <sodipodi:namedview
     pagecolor="#ffffff"
     bordercolor="#666666"
     borderopacity="1"
     objecttolerance="10"
     gridtolerance="10"
     guidetolerance="10"
     inkscape:pageopacity="0"
     inkscape:pageshadow="2"
     inkscape:window-width="1920"
     inkscape:window-height="1056"
     id="namedview14"
     showgrid="false"
     inkscape:zoom="0.16296602"
     inkscape:cx="433.59215"
     inkscape:cy="218.51664"
     inkscape:window-x="1920"
     inkscape:window-y="24"
     inkscape:window-maximized="1"
     inkscape:current-layer="svg2" />
  <g
     id="g4"
     transform="translate(0,1920)">
    <title
       id="title6">Browser Type Firefox</title>
  </g>
  <!-- Chrome -->
  <!-- Firefox -->
  <g
     data-width="128"
     data-height="124"
     class="iconic-container iconic-browser-type-firefox"
     transform="matrix(15.603223,0,0,15.603223,25.396332,66.758731)"
     id="g8">
    <path
       d="m 63.802,4 c 30.597,0 55.49,24.911 55.49,55.532 0,30.621 -24.893,55.534 -55.49,55.534 C 33.203,115.066 8.308,90.154 8.308,59.532 8.308,28.912 33.202,4 63.802,4 m 0,-4 C 30.997,0 4.308,26.706 4.308,59.532 c 0,32.827 26.689,59.534 59.494,59.534 32.803,0 59.49,-26.707 59.49,-59.534 C 123.292,26.706 96.605,0 63.802,0 z"
       class="iconic-browser-type-firefox-border iconic-property-fill"
       id="path10"
       inkscape:connector-curvature="0" />
    <path
       d="m 110.269,95.899 c 0.53,-0.997 1.09,-1.926 1.666,-2.811 -0.067,0.139 -0.132,0.269 -0.195,0.39 0.948,-1.497 2.016,-2.965 3.107,-4.394 2.395,-3.005 4.748,-5.515 6.306,-8.276 0.32,-0.568 0.666,-1.233 1.027,-1.981 3.423,-6.682 7.081,-18.25 5.396,-29.285 -0.28,-1.97 -0.729,-3.915 -1.395,-5.798 0.03,0.115 0.057,0.23 0.086,0.346 -0.045,-0.135 -0.072,-0.208 -0.072,-0.208 0,0 -1.049,3.157 -2.45,7.886 0.731,-6.857 0.21,-13.998 -2.181,-20.605 -1.053,-2.908 -2.34,-5.366 -3.615,-7.377 -1.87,-3.176 -3.987,-5.614 -5.646,-6.749 0.189,0.142 0.376,0.308 0.56,0.495 -0.355,-0.33 -0.56,-0.495 -0.56,-0.495 0.091,0.1 0.175,0.201 0.265,0.301 -0.226,-0.209 -0.357,-0.32 -0.357,-0.32 0,0 0.132,0.714 0.362,1.973 -3.47,-5.455 -8.751,-8.02 -8.751,-8.02 0,0 0.263,1.48 0.66,4.638 C 99.449,11.591 93.389,8.3 86.163,6.307 c 11.794,7.777 16.199,14.383 18.987,20.261 -3.152,-3.224 -8.552,-6.59 -12.197,-6.87 5.467,4.066 14.615,16.127 13.642,34.399 -1.402,-2.943 -3.968,-7.551 -5.79,-9.163 1.962,17.947 0.244,21.801 -0.948,26.567 -0.262,-2.19 -1.05,-3.836 -1.506,-4.837 0,0 -0.21,5.609 -3.854,13.6 -2.76,6.052 -5.61,7.922 -6.87,7.71 -0.342,-0.024 -0.526,-0.171 -0.523,-0.184 0.09,-0.783 0.171,-1.605 -0.037,-2.128 0,0 -1.164,0.403 -1.915,1.459 -0.303,0.425 -0.695,0.842 -1.21,1.232 -0.088,0.068 0.832,-1.179 0.762,-1.121 -0.453,0.368 -0.938,0.8 -1.426,1.305 -1.788,1.857 -3.398,3.912 -4.237,3.331 0.781,-0.239 1.405,-1.233 1.574,-2.208 -0.703,0.491 -2.485,1.822 -6.483,2.417 -1.635,0.244 -8.591,1.508 -17.841,-3.119 1.349,-0.154 3.367,-0.63 4.905,0.28 -1.538,-1.68 -5.255,-1.331 -7.92,-2.172 -2.322,-0.735 -5.352,-3.993 -7.093,-5.639 7.119,1.744 14.68,0.485 19.051,-2.503 4.418,-3.022 7.035,-5.228 9.382,-4.706 2.343,0.524 3.906,-1.829 2.08,-3.92 -1.819,-2.092 -6.233,-4.906 -12.239,-3.398 -4.598,1.151 -8.517,4.842 -14.975,2.278 -0.391,-0.155 -0.794,-0.334 -1.207,-0.539 -0.412,-0.205 1.35,0.245 0.916,-0.012 -1.241,-0.457 -3.498,-1.493 -4.059,-1.885 -0.092,-0.068 0.935,0.186 0.828,0.12 -6.13,-3.626 -5.729,-6.528 -5.729,-8.324 0,-1.436 0.872,-3.379 2.51,-4.29 0.884,0.315 1.433,0.603 1.433,0.603 0,0 -0.408,-0.627 -0.667,-0.931 0.06,-0.022 0.121,-0.038 0.184,-0.056 0.722,0.244 2.346,0.844 3.169,1.258 1.115,0.56 1.49,1.131 1.49,1.131 0,0 0.26,-0.165 -0.012,-0.736 -0.112,-0.239 -0.505,-0.928 -1.609,-1.598 0.02,-0.002 0.039,-0.003 0.052,-0.006 0.579,0.23 1.193,0.521 1.871,0.905 0.211,-0.983 0.635,-2.003 0.349,-3.785 -0.201,-1.254 -0.175,-1.577 -0.489,-2.032 -0.269,-0.39 0.073,-0.562 0.489,-0.211 -0.086,-0.267 -0.206,-0.533 -0.342,-0.799 0.012,-0.004 0.022,-0.021 0.029,-0.058 1.909,-2.314 9.53,-5.856 11.238,-7.659 0.203,-0.215 0.371,-0.398 0.514,-0.562 -0.009,0.025 -0.018,0.056 -0.027,0.078 0.998,-0.754 1.428,-1.485 1.866,-2.554 0.445,-1.087 0.95,-3.644 -0.507,-4.179 -1.2,-0.287 -2.219,-0.496 -4.15,-0.459 -1.494,-0.09 -3.487,-0.128 -6.159,-0.105 -2.687,0.02 -4.437,-1.543 -5.494,-3.034 -0.213,-0.324 -0.404,-0.633 -0.574,-0.911 -0.232,-0.415 -0.388,-0.782 -0.508,-1.08 1.174,-4.262 3.527,-7.962 7.199,-10.959 0.222,-0.186 -0.875,0.127 -0.667,-0.071 0.248,-0.233 1.803,-0.975 2.094,-1.139 0.377,-0.212 -1.692,-0.77 -3.46,-0.403 -1.774,0.367 -2.122,0.578 -3.036,1.051 0.37,-0.384 1.575,-0.993 1.279,-0.928 -1.926,0.432 -4.199,1.7 -6.134,3.067 -0.015,-0.174 0,-0.316 0.04,-0.596 -0.913,0.474 -3.119,2.172 -3.681,3.47 0,-0.282 0,-0.423 -0.035,-0.737 -0.628,0.577 -1.231,1.254 -1.777,2.01 -0.006,0.011 -0.016,0.019 -0.022,0.029 -5.745,-1.428 -10.622,-1.082 -14.698,0.225 -1.361,-1.104 -3.427,-3.066 -4.995,-5.597 -0.014,-0.023 -0.027,-0.033 -0.039,-0.036 -0.111,-0.099 -0.139,0.412 -0.235,0.353 -0.008,-0.009 -0.017,-0.021 -0.026,-0.037 -0.97,-1.745 -1.796,-4.719 -1.875,-6.848 0,0 -0.006,0.004 -0.01,0.006 v -10e-4 c 0,0 -1.583,0.921 -2.622,4.184 -0.183,0.578 -0.31,0.92 -0.443,1.235 -0.002,0.005 -0.003,0.004 -0.005,0.004 -0.017,-0.068 0.082,-1 0.044,-0.959 -0.002,-0.006 -0.004,-0.008 -0.007,-0.001 -0.198,0.407 -0.761,1.051 -0.944,1.789 -0.138,0.551 -0.361,0.886 -0.449,1.576 -0.005,0.015 -0.01,0.029 -0.018,0.043 -0.012,-0.169 -0.023,-0.689 -0.059,-0.687 -0.005,-0.007 -0.012,-0.006 -0.018,0.011 -0.367,0.971 -0.712,2.06 -1.012,3.259 -0.063,0.25 -0.124,0.505 -0.183,0.766 -0.01,0.046 -0.022,0.088 -0.032,0.134 C 9.053,21.723 9.044,21.766 9.036,21.809 8.795,22.925 8.6,24.133 8.469,25.436 8.27,27.275 8.183,29.401 8.354,31.817 8.351,32.165 8.406,32.502 8.395,32.814 7.403,34.181 6.634,35.423 6.105,36.378 3.996,39.98 1.76,45.918 0,55.841 c 0,0 0.046,-0.146 0.137,-0.408 -0.022,0.124 -0.045,0.242 -0.068,0.368 0,0 1.002,-3.159 2.999,-6.798 -1.507,4.739 -2.67,12.034 -1.972,22.888 0.005,-0.068 0.021,-0.222 0.049,-0.449 0.008,0.13 0.015,0.257 0.023,0.388 0.029,-0.363 0.352,-3.146 1.175,-6.899 0.4,7.326 2.139,16.333 7.845,26.099 4.348,7.448 15.807,24.752 44.561,31.227 -3.156,-0.91 -5.118,-2.733 -5.118,-2.733 0,0 10.739,3.451 18.578,3.156 -2.454,-0.423 -2.945,-1.612 -2.945,-1.612 0,0 27.867,1.576 37.502,-11.568 -3.293,3.854 -11.635,4.941 -14.79,4.975 4.802,-4.413 15.419,-4.311 26.92,-15.63 6.308,-6.212 6.99,-10.936 7.677,-15.352 -1.052,5.782 -6.556,9.251 -12.304,12.408 z"
       class="iconic-browser-type-firefox-fox iconic-property-fill"
       id="path12"
       inkscape:connector-curvature="0" />
  </g>
  <!-- IE -->
  <!-- Safari -->
  <!-- Chrome -->
  <!-- Firefox -->
  <!-- IE -->
  <!-- Safari -->
  <!-- Chrome -->
  <!-- Firefox -->
  <!-- IE -->
  <!-- Safari -->
</svg>
