<?xml version="1.0" encoding="UTF-8" standalone="no"?>
<!-- Created with Inkscape (http://www.inkscape.org/) -->

<svg
   xmlns:dc="http://purl.org/dc/elements/1.1/"
   xmlns:cc="http://creativecommons.org/ns#"
   xmlns:rdf="http://www.w3.org/1999/02/22-rdf-syntax-ns#"
   xmlns:svg="http://www.w3.org/2000/svg"
   xmlns="http://www.w3.org/2000/svg"
   xmlns:sodipodi="http://sodipodi.sourceforge.net/DTD/sodipodi-0.dtd"
   xmlns:inkscape="http://www.inkscape.org/namespaces/inkscape"
   width="2048"
   height="2048"
   viewBox="0 0 2048 2048"
   id="svg2"
   version="1.1"
   inkscape:version="0.91 r"
   sodipodi:docname="flip-0.svg">
  <defs
     id="defs4" />
  <sodipodi:namedview
     id="base"
     pagecolor="#ffffff"
     bordercolor="#666666"
     borderopacity="1.0"
     inkscape:pageopacity="0.0"
     inkscape:pageshadow="2"
     inkscape:zoom="0.35"
     inkscape:cx="787.29641"
     inkscape:cy="767.79148"
     inkscape:document-units="px"
     inkscape:current-layer="layer1"
     showgrid="false"
     units="px"
     inkscape:window-width="1855"
     inkscape:window-height="1056"
     inkscape:window-x="65"
     inkscape:window-y="24"
     inkscape:window-maximized="1" />
  <metadata
     id="metadata7">
    <rdf:RDF>
      <cc:Work
         rdf:about="">
        <dc:format>image/svg+xml</dc:format>
        <dc:type
           rdf:resource="http://purl.org/dc/dcmitype/StillImage" />
        <dc:title />
      </cc:Work>
    </rdf:RDF>
  </metadata>
  <g
     inkscape:label="Layer 1"
     inkscape:groupmode="layer"
     id="layer1"
     transform="translate(0,995.63784)">
    <path
       style="opacity:0.98999999;fill:#000000;fill-opacity:1;stroke:none;stroke-width:60;stroke-linecap:round;stroke-linejoin:round;stroke-miterlimit:4;stroke-dasharray:none;stroke-opacity:1"
       d="M 461.14258 59.142578 C 383.58258 59.142578 321.14258 121.58258 321.14258 199.14258 L 321.14258 995.63477 L 476.35742 995.63477 C 479.7002 741.63954 524.58727 554.11493 611.03516 433.08789 C 700.96029 307.1927 838.61589 244.24609 1024 244.24609 C 1204.542 244.24609 1340.8141 309.95963 1432.8145 441.38867 C 1521.7805 566.87065 1568.0429 751.62659 1571.6191 995.63477 L 1726.8574 995.63477 L 1726.8574 199.14258 C 1726.8574 121.58258 1664.4174 59.142578 1586.8574 59.142578 L 461.14258 59.142578 z M 1024 572.12695 C 973.50358 572.12695 937.53353 604.63737 916.08984 669.66016 C 895.95088 730.72669 885.27026 839.38996 884.04492 995.63477 L 1163.9492 995.63477 C 1162.6915 843.98489 1152.0121 736.71027 1131.9102 673.81055 C 1110.4664 606.02083 1074.4964 572.12695 1024 572.12695 z M 321.14258 1052.3652 L 321.14258 1848.8574 C 321.14258 1926.4174 383.58258 1988.8574 461.14258 1988.8574 L 1586.8574 1988.8574 C 1664.4174 1988.8574 1726.8574 1926.4174 1726.8574 1848.8574 L 1726.8574 1052.3652 L 1571.709 1052.3652 C 1568.8992 1307.6173 1523.9865 1495.8255 1436.9648 1616.9863 C 1347.0397 1741.498 1209.3841 1803.7539 1024 1803.7539 C 842.76627 1803.7539 706.14876 1738.7311 614.14844 1608.6855 C 525.24574 1482.3501 479.30192 1296.9068 476.30859 1052.3652 L 321.14258 1052.3652 z M 884.01562 1052.3652 C 885.05268 1209.9875 895.7389 1319.3612 916.08984 1380.4141 C 937.53353 1444.7451 973.50358 1476.9121 1024 1476.9121 C 1075.1881 1476.9121 1111.1582 1443.709 1131.9102 1377.3027 C 1152.2344 1314.3632 1162.9194 1206.0282 1163.9805 1052.3652 L 884.01562 1052.3652 z "
       id="rect4136"
       transform="translate(0,-995.63784)" />
    </g>
</svg>
