<?xml version="1.0" encoding="UTF-8" standalone="no"?>
<!-- Created with Inkscape (http://www.inkscape.org/) -->

<svg
   xmlns:dc="http://purl.org/dc/elements/1.1/"
   xmlns:cc="http://creativecommons.org/ns#"
   xmlns:rdf="http://www.w3.org/1999/02/22-rdf-syntax-ns#"
   xmlns:svg="http://www.w3.org/2000/svg"
   xmlns="http://www.w3.org/2000/svg"
   xmlns:sodipodi="http://sodipodi.sourceforge.net/DTD/sodipodi-0.dtd"
   xmlns:inkscape="http://www.inkscape.org/namespaces/inkscape"
   width="2048"
   height="2048"
   viewBox="0 0 2048 2048"
   id="svg2"
   version="1.1"
   inkscape:version="0.91 r"
   sodipodi:docname="flip-8.svg">
  <defs
     id="defs4" />
  <sodipodi:namedview
     id="base"
     pagecolor="#ffffff"
     bordercolor="#666666"
     borderopacity="1.0"
     inkscape:pageopacity="0.0"
     inkscape:pageshadow="2"
     inkscape:zoom="0.24748737"
     inkscape:cx="864.69096"
     inkscape:cy="1325.1192"
     inkscape:document-units="px"
     inkscape:current-layer="layer1"
     showgrid="false"
     units="px"
     inkscape:window-width="1920"
     inkscape:window-height="1056"
     inkscape:window-x="1920"
     inkscape:window-y="24"
     inkscape:window-maximized="1" />
  <metadata
     id="metadata7">
    <rdf:RDF>
      <cc:Work
         rdf:about="">
        <dc:format>image/svg+xml</dc:format>
        <dc:type
           rdf:resource="http://purl.org/dc/dcmitype/StillImage" />
        <dc:title />
      </cc:Work>
    </rdf:RDF>
  </metadata>
  <g
     inkscape:label="Layer 1"
     inkscape:groupmode="layer"
     id="layer1"
     transform="translate(0,995.63784)">
    <path
       style="opacity:0.98999999;fill:#000000;fill-opacity:1;stroke:none;stroke-width:60;stroke-linecap:round;stroke-linejoin:round;stroke-miterlimit:4;stroke-dasharray:none;stroke-opacity:1"
       d="M 461.14258 59.142578 C 383.58258 59.142578 321.14258 121.58258 321.14258 199.14258 L 321.14258 995.63477 L 736.03711 995.63477 C 739.4728 993.84241 742.9365 992.05512 746.44336 990.27734 C 666.20247 936.32227 607.40429 878.56413 570.05078 817 C 533.38899 754.74414 515.05859 686.6071 515.05859 612.5918 C 515.05859 496.38086 560.36752 406.11036 650.98438 341.7793 C 741.60124 276.75651 866.80371 244.24609 1026.5938 244.24609 C 1186.3838 244.24609 1310.5501 276.41113 1399.0918 340.74219 C 1488.3252 405.07324 1532.9414 496.38184 1532.9414 614.66797 C 1532.9414 694.90886 1511.8441 765.4655 1469.6484 826.33789 C 1428.1445 886.51855 1362.0837 939.09017 1271.4668 984.05273 C 1278.2651 987.9135 1284.9363 991.774 1291.4902 995.63477 L 1726.8574 995.63477 L 1726.8574 199.14258 C 1726.8574 121.58258 1664.4174 59.142578 1586.8574 59.142578 L 461.14258 59.142578 z M 1024.5195 539.96094 C 989.24121 539.96094 959.49577 550.33594 935.28516 571.08789 C 911.07454 591.14811 898.96875 617.43392 898.96875 649.94531 C 898.96875 709.43425 939.43653 762.00586 1020.3691 807.66016 C 1069.4821 779.29916 1103.0306 753.36068 1121.0156 729.8418 C 1139.0006 706.32292 1147.9922 679.68978 1147.9922 649.94531 C 1147.9922 616.74219 1135.8883 590.111 1111.6777 570.05078 C 1087.4671 549.99056 1058.4144 539.96094 1024.5195 539.96094 z M 321.14258 1052.3652 L 321.14258 1848.8574 C 321.14258 1926.4174 383.58258 1988.8574 461.14258 1988.8574 L 1586.8574 1988.8574 C 1664.4174 1988.8574 1726.8574 1926.4174 1726.8574 1848.8574 L 1726.8574 1052.3652 L 1378.9805 1052.3652 C 1435.6851 1093.2335 1478.7205 1134.1024 1508.0391 1174.9707 C 1554.3851 1237.9183 1577.5586 1306.0534 1577.5586 1379.377 C 1577.5586 1514.2646 1528.7919 1618.7171 1431.2578 1692.7324 C 1333.7236 1766.7477 1197.4515 1803.7539 1022.4434 1803.7539 C 843.97657 1803.7539 707.35905 1767.7839 612.5918 1695.8438 C 517.82454 1623.2119 470.44141 1519.1068 470.44141 1383.5273 C 470.44141 1295.6774 491.53874 1220.9704 533.73438 1159.4062 C 559.39219 1121.5505 595.68591 1085.873 642.57227 1052.3652 L 321.14258 1052.3652 z M 1018.293 1164.5938 C 956.72885 1197.1051 912.45801 1229.9629 885.48047 1263.166 C 859.19466 1295.6774 846.05273 1330.264 846.05273 1366.9258 C 846.05273 1409.8131 861.27083 1444.3997 891.70703 1470.6855 C 922.14323 1496.2796 964.3379 1509.0762 1018.293 1509.0762 C 1140.0378 1509.0762 1200.9102 1464.46 1200.9102 1375.2266 C 1200.9102 1341.3317 1187.4209 1308.1286 1160.4434 1275.6172 C 1134.1576 1242.4141 1086.7744 1205.4059 1018.293 1164.5938 z "
       transform="translate(0,-995.63784)"
       id="rect4136" />
    </g>
</svg>
