<?xml version="1.0" encoding="UTF-8" standalone="no"?>
<!-- Created with Inkscape (http://www.inkscape.org/) -->

<svg
   xmlns:dc="http://purl.org/dc/elements/1.1/"
   xmlns:cc="http://creativecommons.org/ns#"
   xmlns:rdf="http://www.w3.org/1999/02/22-rdf-syntax-ns#"
   xmlns:svg="http://www.w3.org/2000/svg"
   xmlns="http://www.w3.org/2000/svg"
   xmlns:sodipodi="http://sodipodi.sourceforge.net/DTD/sodipodi-0.dtd"
   xmlns:inkscape="http://www.inkscape.org/namespaces/inkscape"
   width="2048"
   height="2048"
   viewBox="0 0 2048 2048"
   id="svg2"
   version="1.1"
   inkscape:version="0.91 r"
   sodipodi:docname="flip-9.svg">
  <defs
     id="defs4" />
  <sodipodi:namedview
     id="base"
     pagecolor="#ffffff"
     bordercolor="#666666"
     borderopacity="1.0"
     inkscape:pageopacity="0.0"
     inkscape:pageshadow="2"
     inkscape:zoom="0.24748737"
     inkscape:cx="1834.4374"
     inkscape:cy="1325.1192"
     inkscape:document-units="px"
     inkscape:current-layer="layer1"
     showgrid="false"
     units="px"
     inkscape:window-width="1920"
     inkscape:window-height="1056"
     inkscape:window-x="1920"
     inkscape:window-y="24"
     inkscape:window-maximized="1" />
  <metadata
     id="metadata7">
    <rdf:RDF>
      <cc:Work
         rdf:about="">
        <dc:format>image/svg+xml</dc:format>
        <dc:type
           rdf:resource="http://purl.org/dc/dcmitype/StillImage" />
        <dc:title />
      </cc:Work>
    </rdf:RDF>
  </metadata>
  <g
     inkscape:label="Layer 1"
     inkscape:groupmode="layer"
     id="layer1"
     transform="translate(0,995.63784)">
    <path
       style="opacity:0.98999999;fill:#000000;fill-opacity:1;stroke:none;stroke-width:60;stroke-linecap:round;stroke-linejoin:round;stroke-miterlimit:4;stroke-dasharray:none;stroke-opacity:1"
       d="M 461.14258 59.142578 C 383.58258 59.142578 321.14258 121.58258 321.14258 199.14258 L 321.14258 995.63477 L 492.47656 995.63477 C 473.29504 934.31656 463.69727 864.3989 463.69727 785.87109 C 463.69727 617.78027 511.42579 486.00586 606.88477 390.54688 C 703.03549 295.08789 834.46644 247.35742 1001.1738 247.35742 C 1186.5579 247.35742 1330.0908 308.92253 1431.7754 432.05078 C 1533.4599 555.17903 1584.3027 730.1862 1584.3027 957.07422 C 1584.3027 970.08817 1584.1719 982.93611 1583.9258 995.63477 L 1726.8574 995.63477 L 1726.8574 199.14258 C 1726.8574 121.58258 1664.4174 59.142578 1586.8574 59.142578 L 461.14258 59.142578 z M 1012.5859 575.23828 C 967.62339 575.23828 930.96257 591.49447 902.60156 624.00586 C 874.9323 656.51725 861.09766 708.74349 861.09766 780.68359 C 861.09766 837.4056 873.20345 882.71452 897.41406 916.60938 C 921.62467 949.8125 958.63088 966.41406 1008.4355 966.41406 C 1053.3981 966.41406 1092.4824 950.15788 1125.6855 917.64648 C 1158.8887 885.13509 1175.4902 846.05273 1175.4902 800.39844 C 1175.4902 738.83431 1159.9248 685.91536 1128.7969 641.64453 C 1098.3607 597.3737 1059.6237 575.23828 1012.5859 575.23828 z M 321.14258 1052.3652 L 321.14258 1848.8574 C 321.14258 1926.4174 383.58258 1988.8574 461.14258 1988.8574 L 1586.8574 1988.8574 C 1664.4174 1988.8574 1726.8574 1926.4174 1726.8574 1848.8574 L 1726.8574 1052.3652 L 1581.959 1052.3652 C 1569.3901 1300.2527 1506.1891 1483.2748 1392.3477 1601.4238 C 1264.3773 1734.2363 1059.6247 1800.6426 778.08984 1800.6426 C 685.39778 1800.6426 614.84115 1797.1829 566.41992 1790.2656 L 566.41992 1465.498 C 625.90886 1476.5658 685.39779 1482.0996 744.88672 1482.0996 C 891.53385 1482.0996 1004.6325 1452.0088 1084.1816 1391.8281 C 1163.7308 1330.9557 1206.9635 1235.1514 1213.8809 1104.4141 L 1201.4297 1104.4141 C 1174.4522 1154.2187 1147.821 1190.1888 1121.5352 1212.3242 C 1095.2494 1234.4596 1063.0824 1251.4066 1025.0371 1263.166 C 986.99186 1274.9255 939.60873 1280.8047 882.88672 1280.8047 C 751.45768 1280.8047 648.736 1236.8812 574.7207 1149.0312 C 550.5559 1120.3497 530.33789 1088.1252 514.0625 1052.3652 L 321.14258 1052.3652 z "
       transform="translate(0,-995.63784)"
       id="rect4136" />
    </g>
</svg>
