<?xml version="1.0" encoding="UTF-8" standalone="no"?>
<!-- Created with Inkscape (http://www.inkscape.org/) -->

<svg
   xmlns:dc="http://purl.org/dc/elements/1.1/"
   xmlns:cc="http://creativecommons.org/ns#"
   xmlns:rdf="http://www.w3.org/1999/02/22-rdf-syntax-ns#"
   xmlns:svg="http://www.w3.org/2000/svg"
   xmlns="http://www.w3.org/2000/svg"
   xmlns:sodipodi="http://sodipodi.sourceforge.net/DTD/sodipodi-0.dtd"
   xmlns:inkscape="http://www.inkscape.org/namespaces/inkscape"
   width="2048"
   height="2048"
   viewBox="0 0 2048 2048"
   id="svg2"
   version="1.1"
   inkscape:version="0.91 r"
   sodipodi:docname="flip-7.svg">
  <defs
     id="defs4" />
  <sodipodi:namedview
     id="base"
     pagecolor="#ffffff"
     bordercolor="#666666"
     borderopacity="1.0"
     inkscape:pageopacity="0.0"
     inkscape:pageshadow="2"
     inkscape:zoom="0.24748737"
     inkscape:cx="1026.3154"
     inkscape:cy="1325.1192"
     inkscape:document-units="px"
     inkscape:current-layer="layer1"
     showgrid="false"
     units="px"
     inkscape:window-width="1920"
     inkscape:window-height="1056"
     inkscape:window-x="1920"
     inkscape:window-y="24"
     inkscape:window-maximized="1" />
  <metadata
     id="metadata7">
    <rdf:RDF>
      <cc:Work
         rdf:about="">
        <dc:format>image/svg+xml</dc:format>
        <dc:type
           rdf:resource="http://purl.org/dc/dcmitype/StillImage" />
        <dc:title />
      </cc:Work>
    </rdf:RDF>
  </metadata>
  <g
     inkscape:label="Layer 1"
     inkscape:groupmode="layer"
     id="layer1"
     transform="translate(0,995.63784)">
    <path
       style="opacity:0.98999999;fill:#000000;fill-opacity:1;stroke:none;stroke-width:60;stroke-linecap:round;stroke-linejoin:round;stroke-miterlimit:4;stroke-dasharray:none;stroke-opacity:1"
       d="M 461.14258 59.142578 C 383.58258 59.142578 321.14258 121.58258 321.14258 199.14258 L 321.14258 995.63477 L 960.76367 995.63477 L 1133.4668 605.84766 L 476.66797 605.84766 L 476.66797 266.55469 L 1571.332 266.55469 L 1571.332 508.31445 L 1366.793 995.63477 L 1726.8574 995.63477 L 1726.8574 199.14258 C 1726.8574 121.58258 1664.4174 59.142578 1586.8574 59.142578 L 461.14258 59.142578 z M 321.14258 1052.3652 L 321.14258 1848.8574 C 321.14258 1926.4174 383.58258 1988.8574 461.14258 1988.8574 L 1586.8574 1988.8574 C 1664.4174 1988.8574 1726.8574 1926.4174 1726.8574 1848.8574 L 1726.8574 1052.3652 L 1342.9824 1052.3652 L 1036.9707 1781.4473 L 612.5918 1781.4473 L 935.62695 1052.3652 L 321.14258 1052.3652 z "
       transform="translate(0,-995.63784)"
       id="rect4136" />
    </g>
</svg>
