<?xml version="1.0" encoding="UTF-8" standalone="no"?>
<!-- Created with Inkscape (http://www.inkscape.org/) -->

<svg
   xmlns:dc="http://purl.org/dc/elements/1.1/"
   xmlns:cc="http://creativecommons.org/ns#"
   xmlns:rdf="http://www.w3.org/1999/02/22-rdf-syntax-ns#"
   xmlns:svg="http://www.w3.org/2000/svg"
   xmlns="http://www.w3.org/2000/svg"
   xmlns:sodipodi="http://sodipodi.sourceforge.net/DTD/sodipodi-0.dtd"
   xmlns:inkscape="http://www.inkscape.org/namespaces/inkscape"
   width="2048"
   height="2048"
   viewBox="0 0 2048 2048"
   id="svg2"
   version="1.1"
   inkscape:version="0.91 r"
   sodipodi:docname="flip-6.svg">
  <defs
     id="defs4" />
  <sodipodi:namedview
     id="base"
     pagecolor="#ffffff"
     bordercolor="#666666"
     borderopacity="1.0"
     inkscape:pageopacity="0.0"
     inkscape:pageshadow="2"
     inkscape:zoom="0.24748737"
     inkscape:cx="703.06655"
     inkscape:cy="1325.1192"
     inkscape:document-units="px"
     inkscape:current-layer="layer1"
     showgrid="false"
     units="px"
     inkscape:window-width="1920"
     inkscape:window-height="1056"
     inkscape:window-x="1920"
     inkscape:window-y="24"
     inkscape:window-maximized="1" />
  <metadata
     id="metadata7">
    <rdf:RDF>
      <cc:Work
         rdf:about="">
        <dc:format>image/svg+xml</dc:format>
        <dc:type
           rdf:resource="http://purl.org/dc/dcmitype/StillImage" />
        <dc:title />
      </cc:Work>
    </rdf:RDF>
  </metadata>
  <g
     inkscape:label="Layer 1"
     inkscape:groupmode="layer"
     id="layer1"
     transform="translate(0,995.63784)">
    <path
       style="opacity:0.98999999;fill:#000000;fill-opacity:1;stroke:none;stroke-width:60;stroke-linecap:round;stroke-linejoin:round;stroke-miterlimit:4;stroke-dasharray:none;stroke-opacity:1"
       d="M 461.14258 59.142578 C 383.58258 59.142578 321.14258 121.58258 321.14258 199.14258 L 321.14258 995.63477 L 475.71484 995.63477 C 486.73219 849.85591 515.05345 727.34745 560.71289 628.15625 C 621.58528 496.72721 710.81771 399.88477 828.41211 337.62891 C 946.69822 275.37305 1092.3092 244.24609 1265.2422 244.24609 C 1326.8063 244.24609 1398.7464 250.12533 1481.0625 261.88477 L 1481.0625 582.50195 C 1411.8893 569.35905 1336.8349 562.78711 1255.9023 562.78711 C 1118.9394 562.78711 1016.9105 592.87793 949.8125 653.05859 C 882.71451 713.23926 846.05175 811.46517 839.82617 947.73633 L 852.27734 947.73633 C 914.5332 830.14192 1014.488 771.3457 1152.1426 771.3457 C 1287.0303 771.3457 1391.4828 814.92383 1465.498 902.08203 C 1489.4088 929.75655 1509.4863 960.94509 1525.7441 995.63477 L 1726.8574 995.63477 L 1726.8574 199.14258 C 1726.8574 121.58258 1664.4174 59.142578 1586.8574 59.142578 L 461.14258 59.142578 z M 321.14258 1052.3652 L 321.14258 1848.8574 C 321.14258 1926.4174 383.58258 1988.8574 461.14258 1988.8574 L 1586.8574 1988.8574 C 1664.4174 1988.8574 1726.8574 1926.4174 1726.8574 1848.8574 L 1726.8574 1052.3652 L 1547.9336 1052.3652 C 1567.6817 1113.9279 1577.5586 1184.538 1577.5586 1264.2031 C 1577.5586 1430.9105 1530.5208 1562.6869 1436.4453 1659.5293 C 1342.3698 1755.68 1210.9407 1803.7539 1042.1582 1803.7539 C 862.99965 1803.7539 722.92448 1745.6484 621.93164 1629.4375 C 520.9388 1513.2266 470.44141 1350.6706 470.44141 1141.7676 C 470.44141 1111.1087 471.09291 1081.3262 472.35547 1052.3652 L 321.14258 1052.3652 z M 1036.9707 1087.8125 C 989.93292 1087.8125 951.54134 1103.7214 921.79688 1135.541 C 892.74414 1167.3607 878.2168 1206.0977 878.2168 1251.752 C 878.2168 1318.1582 892.39877 1372.806 920.75977 1415.6934 C 949.12077 1457.889 986.47427 1478.9863 1032.8203 1478.9863 C 1076.3994 1478.9863 1111.6768 1462.7301 1138.6543 1430.2188 C 1166.3236 1397.0156 1180.1582 1344.444 1180.1582 1272.5039 C 1180.1582 1149.3757 1132.4296 1087.8125 1036.9707 1087.8125 z "
       transform="translate(0,-995.63784)"
       id="rect4136" />
    </g>
</svg>
