<?xml version="1.0" encoding="UTF-8" standalone="no"?>
<!-- Created with Inkscape (http://www.inkscape.org/) -->

<svg
   xmlns:dc="http://purl.org/dc/elements/1.1/"
   xmlns:cc="http://creativecommons.org/ns#"
   xmlns:rdf="http://www.w3.org/1999/02/22-rdf-syntax-ns#"
   xmlns:svg="http://www.w3.org/2000/svg"
   xmlns="http://www.w3.org/2000/svg"
   xmlns:sodipodi="http://sodipodi.sourceforge.net/DTD/sodipodi-0.dtd"
   xmlns:inkscape="http://www.inkscape.org/namespaces/inkscape"
   width="2048"
   height="2048"
   viewBox="0 0 2048 2048"
   id="svg2"
   version="1.1"
   inkscape:version="0.91 r"
   sodipodi:docname="flip-3.svg">
  <defs
     id="defs4" />
  <sodipodi:namedview
     id="base"
     pagecolor="#ffffff"
     bordercolor="#666666"
     borderopacity="1.0"
     inkscape:pageopacity="0.0"
     inkscape:pageshadow="2"
     inkscape:zoom="0.24748737"
     inkscape:cx="-266.6799"
     inkscape:cy="1001.8704"
     inkscape:document-units="px"
     inkscape:current-layer="layer1"
     showgrid="false"
     units="px"
     inkscape:window-width="1920"
     inkscape:window-height="1056"
     inkscape:window-x="1920"
     inkscape:window-y="24"
     inkscape:window-maximized="1" />
  <metadata
     id="metadata7">
    <rdf:RDF>
      <cc:Work
         rdf:about="">
        <dc:format>image/svg+xml</dc:format>
        <dc:type
           rdf:resource="http://purl.org/dc/dcmitype/StillImage" />
        <dc:title />
      </cc:Work>
    </rdf:RDF>
  </metadata>
  <g
     inkscape:label="Layer 1"
     inkscape:groupmode="layer"
     id="layer1"
     transform="translate(0,995.63784)">
    <path
       style="opacity:0.98999999;fill:#000000;fill-opacity:1;stroke:none;stroke-width:60;stroke-linecap:round;stroke-linejoin:round;stroke-miterlimit:4;stroke-dasharray:none;stroke-opacity:1"
       d="M 461.14258 59.142578 C 383.58258 59.142578 321.14258 121.58258 321.14258 199.14258 L 321.14258 995.63477 L 716.87109 995.63477 L 716.87109 852.27734 L 812.33008 852.27734 C 1020.5414 852.27734 1124.6465 799.01497 1124.6465 692.48828 C 1124.6465 652.36784 1109.083 622.6224 1077.9551 603.25391 C 1047.5189 583.88542 1006.3604 574.20117 954.48047 574.20117 C 857.63802 574.20117 757.33789 606.71354 653.57812 671.73633 L 483.41211 397.81055 C 563.653 342.472 645.62272 303.04232 729.32227 279.52344 C 813.71354 256.00456 910.21062 244.24609 1018.8125 244.24609 C 1175.8356 244.24609 1298.9639 275.37305 1388.1973 337.62891 C 1477.4307 399.88477 1522.0469 485.6595 1522.0469 594.95312 C 1522.0469 689.02865 1493.3395 769.96224 1435.9258 837.75195 C 1378.512 904.84994 1295.5043 953.61654 1186.9023 984.05273 L 1186.9023 990.27734 C 1199.387 991.84646 1211.5528 993.63839 1223.4219 995.63477 L 1726.8574 995.63477 L 1726.8574 199.14258 C 1726.8574 121.58258 1664.4174 59.142578 1586.8574 59.142578 L 461.14258 59.142578 z M 321.14258 1052.3652 L 321.14258 1848.8574 C 321.14258 1926.4174 383.58258 1988.8574 461.14258 1988.8574 L 1586.8574 1988.8574 C 1664.4174 1988.8574 1726.8574 1926.4174 1726.8574 1848.8574 L 1726.8574 1052.3652 L 1399.7012 1052.3652 C 1511.008 1112.717 1566.6641 1211.6896 1566.6641 1349.2871 C 1566.6641 1490.4004 1510.6328 1601.4228 1398.5723 1682.3555 C 1287.2034 1763.2881 1132.2555 1803.7539 933.72852 1803.7539 C 852.10417 1803.7539 776.361 1797.8747 706.49609 1786.1152 C 637.32291 1774.3558 562.26855 1752.9131 481.33594 1721.7852 L 481.33594 1381.4531 C 547.74218 1415.348 615.18652 1440.5957 683.66797 1457.1973 C 752.84114 1473.1071 816.48046 1481.0625 874.58594 1481.0625 C 964.51104 1481.0625 1029.8792 1468.6113 1070.6914 1443.709 C 1112.1953 1418.1149 1132.9473 1378.3398 1132.9473 1324.3848 C 1132.9473 1282.8809 1122.225 1251.0612 1100.7812 1228.9258 C 1079.3376 1206.0986 1044.751 1189.1517 997.02148 1178.084 C 949.29199 1166.3245 887.03613 1160.4434 810.25391 1160.4434 L 716.87109 1160.4434 L 716.87109 1052.3652 L 321.14258 1052.3652 z "
       transform="translate(0,-995.63784)"
       id="rect4136" />
   </g>
</svg>
