<?xml version="1.0" encoding="UTF-8" standalone="no"?>
<svg
   xmlns:dc="http://purl.org/dc/elements/1.1/"
   xmlns:cc="http://creativecommons.org/ns#"
   xmlns:rdf="http://www.w3.org/1999/02/22-rdf-syntax-ns#"
   xmlns:svg="http://www.w3.org/2000/svg"
   xmlns="http://www.w3.org/2000/svg"
   xmlns:sodipodi="http://sodipodi.sourceforge.net/DTD/sodipodi-0.dtd"
   xmlns:inkscape="http://www.inkscape.org/namespaces/inkscape"
   version="1.1"
   id="svg2"
   x="0px"
   y="0px"
   viewBox="0 0 2048 2048"
   height="2048"
   width="2048"
   inkscape:version="0.91 r13725"
   sodipodi:docname="gsma.svg">
  <sodipodi:namedview
     pagecolor="#ffffff"
     bordercolor="#666666"
     borderopacity="1"
     objecttolerance="10"
     gridtolerance="10"
     guidetolerance="10"
     inkscape:pageopacity="0"
     inkscape:pageshadow="2"
     inkscape:window-width="1920"
     inkscape:window-height="1056"
     id="namedview7"
     showgrid="false"
     inkscape:zoom="0.23046875"
     inkscape:cx="1408.867"
     inkscape:cy="910.51195"
     inkscape:window-x="1920"
     inkscape:window-y="24"
     inkscape:window-maximized="1"
     inkscape:current-layer="svg2" />
  <defs
     id="defs4" />
  <metadata
     id="metadata7">
    <rdf:RDF>
      <cc:Work
         rdf:about="">
        <dc:format>image/svg+xml</dc:format>
        <dc:type
           rdf:resource="http://purl.org/dc/dcmitype/StillImage" />
        <dc:title></dc:title>
      </cc:Work>
    </rdf:RDF>
  </metadata>
  <path
     inkscape:connector-curvature="0"
     style="fill:#000000"
     d="m 79.293925,1024 0,-944.003137 944.706075,0 944.706,0 0,944.003137 0,944.0032 -944.706,0 -944.706075,0 0,-944.0032 z m 1864.107475,0 0,-918.69851 -919.4014,0 -919.40145,0 0,918.69851 0,918.6986 919.40145,0 919.4014,0 0,-918.6986 z M 255.0205,1409.137 c -15.39716,-4.8606 -27.98115,-19.8986 -30.92394,-36.9547 -1.14504,-6.6367 -1.48046,-36.7332 -1.14644,-102.868 0.54658,-108.2267 -0.30042,-101.3922 14.38722,-116.1042 14.97261,-14.9976 2.9927,-13.9334 156.8586,-13.9334 l 132.8493,0 7.90065,3.7046 c 10.7092,5.0214 18.65023,12.5338 23.33678,22.0773 3.81356,7.7654 3.91898,8.6328 4.36729,35.9241 0.363,22.0942 0.0675,28.2149 -1.4058,29.1491 -3.02348,1.9168 -41.08514,1.509 -43.05553,-0.4614 -1.16009,-1.1601 -1.68698,-8.1849 -1.68698,-22.493 l 0,-20.806 -123.01916,0 -123.019,0 0.36186,88.9176 0.36199,88.9177 122.30571,0 122.30569,0 0.38799,-21.4239 0.38801,-21.4237 -61.54086,-0.3664 -61.54083,-0.3662 -0.38548,-22.6715 c -0.38324,-22.5425 -0.3672,-22.6767 2.81163,-23.5283 1.75837,-0.4711 38.97714,-0.8651 82.7083,-0.8758 62.13846,-0.016 80.04529,0.3715 81.95606,1.7686 2.25817,1.6512 2.41294,5.6527 2.02591,52.3666 l -0.41893,50.5787 -3.86583,7.3336 c -5.13936,9.7493 -12.45523,16.8316 -22.02008,21.3172 l -7.85359,3.6829 -133.55219,0.2678 c -112.03272,0.2247 -134.57155,-0.053 -139.87835,-1.7293 z m 370.15018,-0.4387 c -14.04492,-4.8812 -24.41559,-14.9627 -29.42831,-28.6078 -2.92548,-7.9633 -4.51407,-52.5103 -2.03759,-57.1375 1.61684,-3.0211 2.22205,-3.0903 23.73224,-2.7134 l 22.07323,0.3869 0.70289,21.7901 0.70291,21.7901 120.89989,0 120.89989,0 0.3797,-29.0802 0.37972,-29.0803 -6.00297,-0.7547 c -3.30168,-0.415 -59.77529,-3.6536 -125.49704,-7.1968 -87.04722,-4.693 -121.26889,-7.0118 -126.03039,-8.5396 -13.84051,-4.441 -25.04145,-15.1558 -30.2729,-28.9586 -2.96923,-7.8345 -4.36153,-64.2804 -1.96632,-79.7179 2.78071,-17.9224 11.86617,-30.4722 27.18111,-37.5456 l 8.78281,-4.0563 125.82023,-0.4146 c 131.07655,-0.4319 138.22947,-0.168 149.35748,5.5091 7.69767,3.927 16.64988,13.2599 20.73403,21.6159 3.20919,6.5657 3.47039,8.8163 3.96257,34.1416 0.38633,19.8773 0.0717,27.6616 -1.18115,29.1706 -1.3538,1.6312 -5.82738,2.0536 -21.56869,2.0366 -10.92345,-0.014 -20.63382,-0.5127 -21.57881,-1.1131 -1.19788,-0.7611 -1.83627,-7.4572 -2.10871,-22.1201 l -0.39067,-21.0284 -121.25134,-0.3593 -121.25135,-0.3592 0,28.7439 c 0,15.8092 0.49191,29.0481 1.09317,29.4198 0.60125,0.3715 54.53175,3.5588 119.84552,7.0827 65.31376,3.524 123.05457,7.0565 128.31272,7.8499 5.25818,0.7936 12.11912,2.7481 15.24632,4.3436 7.79229,3.9753 16.73874,13.251 20.91584,21.6855 3.47053,7.008 3.48093,7.1554 3.48093,49.2034 l 0,42.1744 -3.89481,7.9309 c -4.544,9.2532 -13.96182,18.4682 -23.27154,22.7708 -6.57146,3.0371 -6.60592,3.0379 -138.01663,3.358 -123.61633,0.3012 -131.87886,0.1689 -138.75398,-2.2204 z m 337.11414,0.6636 c -1.18721,-1.4304 -1.50915,-32.5174 -1.22658,-118.4704 l 0.38308,-116.5311 4.63891,-9.4216 c 6.67705,-13.5613 17.12168,-21.5687 32.33283,-24.7883 10.51664,-2.2258 321.83414,-2.2237 332.33634,0 4.0974,0.8685 9.8669,2.8021 12.8213,4.297 7.9153,4.0049 17.3617,14.6035 20.976,23.5343 l 3.1745,7.8432 0.3908,115.7881 c 0.2893,85.7262 -0.03,116.294 -1.2265,117.7368 -2.1589,2.6013 -41.9986,2.8352 -44.5721,0.2617 -1.2835,-1.2835 -1.687,-28.1787 -1.687,-112.465 l 0,-110.778 -66.0731,0 -66.0732,0 0,109.7457 c 0,72.9622 -0.4879,110.6573 -1.4553,112.465 -1.338,2.5 -3.1292,2.7193 -22.2119,2.7193 -14.2695,0 -21.2837,-0.5272 -22.4435,-1.687 -1.2835,-1.2835 -1.687,-28.1787 -1.687,-112.465 l 0,-110.778 -66.0732,0 -66.0731,0 0,109.7457 c 0,72.9622 -0.4879,110.6573 -1.4554,112.465 -1.3384,2.501 -3.1304,2.7193 -22.32075,2.7193 -16.02259,0 -21.23928,-0.4502 -22.47513,-1.9395 z m 438.46818,-0.881 c -1.0497,-1.9615 -1.3859,-37.8182 -1.1037,-117.7368 l 0.4055,-114.9163 3.9375,-8.4349 c 5.1149,-10.9577 13.3078,-19.1942 24.0138,-24.1419 l 8.5999,-3.9743 130.7406,0 c 148.2782,0 138.9388,-0.7069 152.5666,11.5458 8.8299,7.9389 13.6001,17.0848 15.3989,29.525 1.9223,13.2943 1.9034,224.64 -0.02,228.2347 -1.3379,2.4999 -3.1292,2.7192 -22.2118,2.7192 -14.2696,0 -21.2837,-0.5272 -22.4435,-1.687 -1.2502,-1.2502 -1.687,-14.9016 -1.687,-52.7179 l 0,-51.031 -120.8999,0 -120.8999,0 0,51.031 c 0,37.8163 -0.4367,51.4677 -1.687,52.7179 -1.1597,1.1598 -8.1739,1.687 -22.4435,1.687 -19.3394,0 -20.8595,-0.1926 -22.2661,-2.8205 z m 287.4934,-186.2613 0,-35.1453 -120.5484,-0.3593 -120.5484,-0.3593 0,34.9188 c 0,19.2054 0.4252,35.3442 0.945,35.8639 0.5198,0.5198 54.7666,0.7834 120.5484,0.5859 l 119.6034,-0.3594 0,-35.1453 z m 94.9419,186.3626 c -0.8491,-1.5865 -1.4553,-13.2978 -1.4553,-28.1163 l 0,-25.397 -7.1215,0 c -8.8406,0 -12.5599,-1.8734 -12.5599,-6.3261 0,-1.9382 1.1762,-4.0452 2.7193,-4.8709 1.5306,-0.8193 12.0161,-1.4553 23.9911,-1.4553 11.975,0 22.4606,0.636 23.9912,1.4553 1.543,0.8257 2.7193,2.9327 2.7193,4.8709 0,4.4527 -3.7194,6.3261 -12.56,6.3261 l -7.1214,0 0,25.397 c 0,14.8185 -0.6062,26.5298 -1.4553,28.1163 -0.9304,1.7385 -2.9407,2.7192 -5.5738,2.7192 -2.6331,0 -4.6434,-0.9807 -5.5737,-2.7192 z m 40.3171,1.8486 c -0.5522,-0.5521 -1.0039,-15.4263 -1.0039,-33.0538 0,-30.248 0.1528,-32.1317 2.7193,-33.5051 3.7078,-1.9845 10.3173,-1.8316 13.063,0.3019 1.2437,0.9665 5.1679,11.5387 8.7202,23.4939 3.5524,11.955 7.0333,22.3109 7.7355,23.0131 1.1511,1.1511 4.6544,-8.9231 12.3836,-35.6119 2.6433,-9.1267 6.0431,-12.6523 12.201,-12.6523 9.3625,0 9.3471,-0.062 8.9264,35.8493 l -0.3787,32.3326 -4.7728,0.4558 c -2.8706,0.2739 -5.2434,-0.2864 -5.9533,-1.4059 -0.6491,-1.0238 -1.19,-11.2981 -1.2018,-22.8316 -0.014,-11.5335 -0.3947,-20.5967 -0.851,-20.1404 -0.4562,0.4562 -3.788,10.5253 -7.4038,22.3758 l -6.5741,21.5463 -5.879,0.4288 -5.8791,0.4287 -4.8959,-15.8927 c -2.6928,-8.741 -5.6723,-18.5813 -6.6212,-21.8674 -0.9488,-3.2861 -2.2412,-5.9747 -2.8718,-5.9747 -0.6308,0 -1.3213,9.6474 -1.5349,21.4387 l -0.388,21.4386 -4.2679,0.4181 c -2.3474,0.23 -4.7197,-0.034 -5.2718,-0.5858 z m -636.15,-387.4148 c -2.6494,-2.6494 -2.4326,-544.21103 0.2186,-546.41141 1.4003,-1.16219 74.177,-1.48735 274.4849,-1.22644 l 272.5794,0.35497 0.3549,273.34537 c 0.2829,217.74869 0,273.57281 -1.4058,274.46341 -0.9684,0.6149 -123.8872,1.1277 -273.1529,1.1395 -209.2324,0.017 -271.7784,-0.3649 -273.0791,-1.6654 z m -737.9813,-0.65 c -1.38656,-0.5595 -1.75728,-26.01028 -1.75728,-120.63834 0,-108.06313 0.22001,-120.01393 2.22371,-120.78279 2.90597,-1.11507 235.85222,-1.11507 238.75816,0 2.00356,0.76886 2.22371,12.64319 2.22371,119.91583 0,90.72973 -0.4015,119.464 -1.68698,120.7495 -1.28714,1.2871 -29.69385,1.6606 -119.84552,1.5759 -64.98719,-0.061 -118.94931,-0.4301 -119.9158,-0.8201 z m 302.549,-0.8208 c -0.36902,-0.9694 -0.50822,-83.05371 -0.30944,-182.40952 l 0.36158,-180.64691 181.67318,-0.3568 181.67318,-0.35667 0.7649,3.16829 c 0.4207,1.74263 0.5915,83.82693 0.3796,182.40951 l -0.3854,179.2411 -181.74331,0.3568 c -144.65431,0.2838 -181.88036,0 -182.41429,-1.4058 z m -523.45306,-2.9757 c -1.15009,-1.3857 -1.4896,-23.07793 -1.22657,-78.37404 l 0.36368,-76.45807 77.2293,-0.36354 c 60.85186,-0.2865 77.46731,0.0142 78.35239,1.40583 1.94131,3.05763 1.43761,152.06072 -0.52055,154.01882 -2.63465,2.6347 -152.00574,2.4128 -154.19825,-0.229 z"
     id="path4160" />
</svg>
