<?xml version="1.0" encoding="UTF-8" standalone="no"?>
<svg
   xmlns:dc="http://purl.org/dc/elements/1.1/"
   xmlns:cc="http://creativecommons.org/ns#"
   xmlns:rdf="http://www.w3.org/1999/02/22-rdf-syntax-ns#"
   xmlns:svg="http://www.w3.org/2000/svg"
   xmlns="http://www.w3.org/2000/svg"
   xmlns:sodipodi="http://sodipodi.sourceforge.net/DTD/sodipodi-0.dtd"
   xmlns:inkscape="http://www.inkscape.org/namespaces/inkscape"
   version="1.1"
   width="2048"
   height="2048"
   data-icon="browser-type-internet-explorer"
   class="iconic iconic-browser-type-internet-explorer iconic-size-lg"
   viewBox="0 0 2048 2048"
   id="svg2"
   inkscape:version="0.48.4 r9939"
   sodipodi:docname="ie.svg">
  <metadata
     id="metadata16">
    <rdf:RDF>
      <cc:Work
         rdf:about="">
        <dc:format>image/svg+xml</dc:format>
        <dc:type
           rdf:resource="http://purl.org/dc/dcmitype/StillImage" />
      </cc:Work>
    </rdf:RDF>
  </metadata>
  <defs
     id="defs14" />
  <sodipodi:namedview
     pagecolor="#ffffff"
     bordercolor="#666666"
     borderopacity="1"
     objecttolerance="10"
     gridtolerance="10"
     guidetolerance="10"
     inkscape:pageopacity="0"
     inkscape:pageshadow="2"
     inkscape:window-width="1861"
     inkscape:window-height="1056"
     id="namedview12"
     showgrid="false"
     inkscape:zoom="0.16296602"
     inkscape:cx="-868.08461"
     inkscape:cy="700.95927"
     inkscape:window-x="59"
     inkscape:window-y="24"
     inkscape:window-maximized="1"
     inkscape:current-layer="svg2" />
  <g
     class="iconic-metadata"
     id="g4"
     transform="translate(0,1920)">
    <title
       id="title6">Browser Type Internet Explorer</title>
  </g>
  <g
     class="iconic-container"
     data-width="128"
     data-height="126"
     transform="matrix(15.142112,0,0,15.142112,54.906452,72.317423)"
     id="g8">
    <path
       d="M 128,65.795 C 128,55.677 125.384,46.17 120.796,37.91 140.35,-6.345 99.843,0.137 97.588,0.578 89.006,2.257 81.067,4.953 73.743,8.371 62.302,7.727 50.792,10.529 40.959,16.421 31.694,21.973 24.07,30.138 19.176,39.768 17.061,43.928 15.459,48.347 14.417,52.896 28.822,36.735 38.904,30.214 44.941,27.605 33.869,37.498 24.395,49.178 16.488,61.724 12.98,67.29 9.749,73.035 6.88,78.957 c -0.946,1.952 -2.06,3.527 -3.662,8.335 -16.373,58.479 34.697,33.786 41.821,30.1 11.811,5.835 25.535,7.412 38.37,4.464 10.844,-2.491 20.843,-8.192 28.549,-16.213 5.636,-5.866 10.009,-12.92 12.733,-20.586 H 94.469 C 88.42,95.276 75.615,99.801 64.309,96.797 54.037,94.068 45.812,85.161 45.286,74.336 45.268,73.959 45.259,73.582 45.259,73.205 h 82.267 C 127.838,70.779 128,68.307 128,65.797 z M 117.255,9.194 c 4.953,3.343 8.926,8.593 2.103,26.274 -6.543,-10.523 -16.388,-18.778 -28.09,-23.316 5.323,-2.571 18.505,-8.008 25.986,-2.958 4.953,3.343 -7.482,-5.05 0,0 z M 11.993,117.273 c -4.034,-4.137 -4.747,-14.214 4.155,-32.576 4.493,12.917 13.458,23.74 25.046,30.61 -5.763,3.172 -21.062,10.314 -29.2,1.967 -4.034,-4.137 8.138,8.347 0,0 z M 45.132,57.474 c 0.38,-10.872 8.488,-19.968 18.813,-22.758 10.621,-2.87 22.567,1.004 28.924,10.118 2.586,3.708 4.091,8.118 4.249,12.64 H 45.133 z"
       class="iconic-property-fill"
       id="path10"
       inkscape:connector-curvature="0" />
  </g>
</svg>
