<?xml version="1.0" encoding="UTF-8" standalone="no"?>
<!-- Generator: Adobe Illustrator 16.0.0, SVG Export Plug-In . SVG Version: 6.00 Build 0)  -->

<svg
   xmlns:dc="http://purl.org/dc/elements/1.1/"
   xmlns:cc="http://creativecommons.org/ns#"
   xmlns:rdf="http://www.w3.org/1999/02/22-rdf-syntax-ns#"
   xmlns:svg="http://www.w3.org/2000/svg"
   xmlns="http://www.w3.org/2000/svg"
   xmlns:sodipodi="http://sodipodi.sourceforge.net/DTD/sodipodi-0.dtd"
   xmlns:inkscape="http://www.inkscape.org/namespaces/inkscape"
   version="1.1"
   id="Capa_1"
   x="0px"
   y="0px"
   width="2048"
   height="2048"
   viewBox="0 0 2048 2048"
   xml:space="preserve"
   inkscape:version="0.91 r13725"
   sodipodi:docname="linkedin.svg"><metadata
     id="metadata8"><rdf:RDF><cc:Work
         rdf:about=""><dc:format>image/svg+xml</dc:format><dc:type
           rdf:resource="http://purl.org/dc/dcmitype/StillImage" /><dc:title></dc:title></cc:Work></rdf:RDF></metadata><defs
     id="defs6" /><sodipodi:namedview
     pagecolor="#ffffff"
     bordercolor="#666666"
     borderopacity="1"
     objecttolerance="10"
     gridtolerance="10"
     guidetolerance="10"
     inkscape:pageopacity="0"
     inkscape:pageshadow="2"
     inkscape:window-width="1920"
     inkscape:window-height="1056"
     id="namedview4"
     showgrid="false"
     showborder="true"
     inkscape:zoom="0.38798003"
     inkscape:cx="1401.4729"
     inkscape:cy="1045.0754"
     inkscape:window-x="1920"
     inkscape:window-y="24"
     inkscape:window-maximized="1"
     inkscape:current-layer="Capa_1" /><path
     id="LinkedIn__x28_alt_x29_"
     d="m 1888.6685,6.9743599 -1728.50424,0 c -82.76778,0 -149.852451,65.0382291 -149.852451,145.3116101 l 0,1737.45383 c 0,80.2781 67.108248,145.3729 149.852451,145.3729 l 1728.50424,0 c 82.7489,0 149.7581,-65.1372 149.7581,-145.3729 l 0,-1737.45383 c 0,-80.249805 -67.0092,-145.3116101 -149.7581,-145.3116101 z M 625.1784,1704.664 l -306.43365,0 0,-915.67956 306.43365,0 0,915.67956 z M 471.99223,663.88734 l -2.06059,0 c -102.76069,0 -169.37383,-70.27693 -169.37383,-158.25984 0,-89.75587 68.56999,-158.12782 173.36769,-158.12782 104.80713,0 169.2748,68.35309 171.31182,158.12782 0,88.00177 -66.48112,158.25984 -173.24509,158.25984 z M 1729.7815,1704.664 l -306.3347,0 0,-489.9204 c 0,-123.1025 -44.3851,-207.101 -155.1666,-207.101 -84.7482,0 -135.0558,56.6686 -157.147,111.3803 -8.1858,19.5402 -10.2133,46.8701 -10.2133,74.1623 l 0,511.4599 -306.27808,0 c 0,0 4.00801,-829.79492 0,-915.67481 l 306.32518,0 0,129.81711 c 40.6648,-62.37879 113.3324,-151.36135 276.0058,-151.36135 201.6265,0 352.8087,130.7979 352.8087,412.18385 l 0,525.0541 z M 1098.9866,921.69675 c 0.5234,-0.85819 1.2542,-1.89084 1.9804,-2.8952 l 0,2.8952 -1.9804,0 z"
     inkscape:connector-curvature="0" /></svg>