<?xml version="1.0" encoding="UTF-8" standalone="no"?>
<!-- Created with Inkscape (http://www.inkscape.org/) -->

<svg
   xmlns:dc="http://purl.org/dc/elements/1.1/"
   xmlns:cc="http://creativecommons.org/ns#"
   xmlns:rdf="http://www.w3.org/1999/02/22-rdf-syntax-ns#"
   xmlns:svg="http://www.w3.org/2000/svg"
   xmlns="http://www.w3.org/2000/svg"
   xmlns:sodipodi="http://sodipodi.sourceforge.net/DTD/sodipodi-0.dtd"
   xmlns:inkscape="http://www.inkscape.org/namespaces/inkscape"
   id="svg2"
   version="1.1"
   inkscape:version="0.91 r13725"
   xml:space="preserve"
   width="2048"
   height="2048"
   x="0"
   y="0"
   viewBox="0 0 2048 2048"
   sodipodi:docname="mbition.svg"><metadata
     id="metadata8"><rdf:RDF><cc:Work
         rdf:about=""><dc:format>image/svg+xml</dc:format><dc:type
           rdf:resource="http://purl.org/dc/dcmitype/StillImage" /><dc:title /></cc:Work></rdf:RDF></metadata><defs
     id="defs6" /><sodipodi:namedview
     pagecolor="#ffffff"
     bordercolor="#666666"
     borderopacity="1"
     objecttolerance="10"
     gridtolerance="10"
     guidetolerance="10"
     inkscape:pageopacity="0"
     inkscape:pageshadow="2"
     inkscape:window-width="1920"
     inkscape:window-height="1056"
     id="namedview4"
     showgrid="false"
     inkscape:zoom="0.22426718"
     inkscape:cx="1408.8525"
     inkscape:cy="1809.2355"
     inkscape:window-x="1920"
     inkscape:window-y="24"
     inkscape:window-maximized="1"
     inkscape:current-layer="g12" /><g
     id="g12"><path
       id="path124"
       style="fill:#000000;fill-opacity:1;fill-rule:nonzero;stroke:none"
       d="m 602.05175,1367.6409 -226.91303,0 418.31595,-1036.19554 c 0,0 -320.14503,108.5174 -392.54204,153.1819 -72.3828,44.63608 -110.87345,112.42043 -97.02131,177.12502 13.85201,64.66198 114.29388,77.77609 114.29388,77.77609 l 0,184.51944 c 0,0 -225.18155,2.59722 -291.43316,-176.06059 -66.237374,-178.6437 44.69286,-371.182 392.7691,-506.72237 l 358.01116,-127.20937 170.2131,129.1823 c 0,0 157.156,-125.47793 303.4829,-110.70344 146.2983,14.78891 118.9347,149.69074 118.9347,149.69074 0,0 179.8218,-151.87632 330.7755,-153.39476 150.9395,-1.53283 160.1931,172.51227 113.9675,298.81319 -46.1973,126.28673 -415.1653,1034.47829 -415.1653,1034.47829 0,0 -96.1698,194.6248 134.8592,260.8052 l -95.4176,211.0175 c 0,0 -152.5434,-70.8786 -215.7007,-172.5268 -63.1434,-101.6621 -76.9955,-215.5588 -18.4934,-380.3932 58.5309,-164.8198 365.0509,-911.82474 365.0509,-911.82474 0,0 67.5006,-156.46035 -44.0116,-127.50738 -111.5547,28.95322 -207.1284,149.70478 -207.1284,149.70478 l -350.6736,875.56244 -225.55048,0 374.54568,-928.5438 c 0,0 46.2114,-129.36666 -73.944,-89.32879 C 1023.1496,389.1103 957.5082,479.09206 957.5082,479.09206 L 602.05175,1367.6409"
       inkscape:connector-curvature="0"
       sodipodi:nodetypes="ccccccccccccccccccccccccccccc" /></g></svg>