<?xml version="1.0" encoding="UTF-8" standalone="no"?>
<svg
   xmlns:sketch="http://www.bohemiancoding.com/sketch/ns"
   xmlns:dc="http://purl.org/dc/elements/1.1/"
   xmlns:cc="http://creativecommons.org/ns#"
   xmlns:rdf="http://www.w3.org/1999/02/22-rdf-syntax-ns#"
   xmlns:svg="http://www.w3.org/2000/svg"
   xmlns="http://www.w3.org/2000/svg"
   xmlns:sodipodi="http://sodipodi.sourceforge.net/DTD/sodipodi-0.dtd"
   xmlns:inkscape="http://www.inkscape.org/namespaces/inkscape"
   width="2048"
   height="2048"
   viewBox="0 0 2048 2048"
   version="1.1"
   id="svg2"
   inkscape:version="0.48.4 r9939"
   sodipodi:docname="phone-line.svg">
  <metadata
     id="metadata15">
    <rdf:RDF>
      <cc:Work
         rdf:about="">
        <dc:format>image/svg+xml</dc:format>
        <dc:type
           rdf:resource="http://purl.org/dc/dcmitype/StillImage" />
      </cc:Work>
    </rdf:RDF>
  </metadata>
  <sodipodi:namedview
     pagecolor="#ffffff"
     bordercolor="#666666"
     borderopacity="1"
     objecttolerance="10"
     gridtolerance="10"
     guidetolerance="10"
     inkscape:pageopacity="0"
     inkscape:pageshadow="2"
     inkscape:window-width="1920"
     inkscape:window-height="1056"
     id="namedview13"
     showgrid="false"
     inkscape:zoom="0.20486111"
     inkscape:cx="-27.213756"
     inkscape:cy="187.7052"
     inkscape:window-x="1920"
     inkscape:window-y="24"
     inkscape:window-maximized="1"
     inkscape:current-layer="svg2" />
  <!-- Generator: Sketch 3.1 (8751) - http://www.bohemiancoding.com/sketch -->
  <title
     id="title4">Icon - phone</title>
  <desc
     id="desc6">Created with Sketch.</desc>
  <defs
     id="defs8" />
  <path
     d="m 2005.9527,1662.8442 c -15.5809,-105.1782 -111.3546,-219.6599 -276.874,-331.164 -237.5858,-159.9685 -304.2368,-117.5404 -393.4679,-35.2331 -7.2065,6.604 -14.7015,13.5904 -22.6507,20.6 l -2.6764,2.6648 c -10.0219,10.8908 -45.1613,41.9994 -75.022,42.9262 -11.111,0 -20.2593,-3.5916 -29.403,-12.397 -69.7469,-67.1759 -248.7362,-243.1795 -255.84076,-250.1196 l 0.34758,0 c 0,0 -167.80533,-185.57364 -236.56619,-255.98204 -11.6069,-11.89887 -12.34493,-21.06343 -11.85252,-26.92597 2.00439,-24.7362 32.25207,-52.39209 42.55786,-60.01571 l 3.19775,-2.66479 c 9.00236,-8.45781 18.11246,-16.11619 26.87035,-23.62395 C 868.83336,650.3281 914.45225,583.01318 753.50471,328.01592 621.8212,119.42076 540.50338,35.896963 453.3126,19.79236 399.1826,9.8283614 345.93314,26.859848 281.67346,74.548009 170.28406,153.1825 60.020829,242.54566 42.29418,392.08674 16.407479,610.59955 194.55335,923.23739 624.74088,1410.8477 l 3.4063,3.4758 c 410.17382,419.7624 714.90412,616.6209 955.72592,616.6209 7.9828,0 15.8984,0 23.7769,-1.1586 172.3065,-9.5006 282.36,-123.403 358.4363,-220.9111 34.0815,-41.6055 47.8689,-92.1323 39.8502,-146.1696 l 0,0 z m -94.9291,102.942 c -101.576,130.1692 -193.4452,188.4122 -307.2967,194.7035 C 1383.8667,1972.3885 1081.8451,1778.0905 679.16169,1366.056 269.26828,901.42087 89.047347,594.32116 112.08504,399.79146 125.09848,289.87466 199.10087,217.96007 323.18741,130.33482 371.0204,94.812001 407.21289,81.789287 440.44977,87.87196 c 62.53684,11.586045 138.36635,94.27565 253.44937,276.61682 140.65227,222.85758 100.80323,256.90897 34.78479,313.35618 -9.00236,7.76265 -18.32449,15.64116 -27.64547,24.238 -11.92319,9.15298 -64.29328,51.95183 -69.07715,108.76979 -2.53735,29.55601 8.2956,57.64058 31.33793,81.26452 67.67177,69.28455 236.07378,256.43393 236.9184,257.33763 l -0.34758,0 c 0,0 185.74284,181.5533 257.03644,250.1891 22.792,21.9324 50.4363,32.719 80.8949,32.0701 61.4107,-2.0854 112.7264,-53.1104 123.2431,-64.3257 7.8785,-6.9516 15.3353,-13.8453 22.5453,-20.4957 68.5152,-63.1787 102.8423,-94.9592 306.0303,41.9299 146.7025,98.8058 234.3857,199.558 246.8372,283.7307 5.1674,34.7002 -3.1978,65.7276 -25.3943,92.8042 l 0,0 z"
     id="Icon---phone"
     sketch:type="MSShapeGroup"
     style="fill:#000000;fill-rule:evenodd;stroke:none"
     inkscape:connector-curvature="0" />
</svg>
