<?xml version="1.0" encoding="UTF-8" standalone="no"?>
<!-- Created with Inkscape (http://www.inkscape.org/) -->

<svg
   xmlns:dc="http://purl.org/dc/elements/1.1/"
   xmlns:cc="http://creativecommons.org/ns#"
   xmlns:rdf="http://www.w3.org/1999/02/22-rdf-syntax-ns#"
   xmlns:svg="http://www.w3.org/2000/svg"
   xmlns="http://www.w3.org/2000/svg"
   xmlns:sodipodi="http://sodipodi.sourceforge.net/DTD/sodipodi-0.dtd"
   xmlns:inkscape="http://www.inkscape.org/namespaces/inkscape"
   width="2048"
   height="2048"
   id="svg2"
   version="1.1"
   inkscape:version="0.48.5 r10040"
   sodipodi:docname="photographer.svg">
  <defs
     id="defs4" />
  <sodipodi:namedview
     id="base"
     pagecolor="#ffffff"
     bordercolor="#666666"
     borderopacity="1.0"
     inkscape:pageopacity="0.0"
     inkscape:pageshadow="2"
     inkscape:zoom="0.175"
     inkscape:cx="-102.95669"
     inkscape:cy="544.46108"
     inkscape:document-units="px"
     inkscape:current-layer="layer1"
     showgrid="false"
     inkscape:window-width="1920"
     inkscape:window-height="1056"
     inkscape:window-x="1920"
     inkscape:window-y="24"
     inkscape:window-maximized="1" />
  <metadata
     id="metadata7">
    <rdf:RDF>
      <cc:Work
         rdf:about="">
        <dc:format>image/svg+xml</dc:format>
        <dc:type
           rdf:resource="http://purl.org/dc/dcmitype/StillImage" />
        <dc:title />
      </cc:Work>
    </rdf:RDF>
  </metadata>
  <g
     inkscape:label="Layer 1"
     inkscape:groupmode="layer"
     id="layer1"
     transform="translate(0,995.63782)">
    <path
       style="font-size:medium;font-style:normal;font-variant:normal;font-weight:normal;font-stretch:normal;text-indent:0;text-align:start;text-decoration:none;line-height:normal;letter-spacing:normal;word-spacing:normal;text-transform:none;direction:ltr;block-progression:tb;writing-mode:lr-tb;text-anchor:start;baseline-shift:baseline;color:#000000;fill:#000000;fill-opacity:1;stroke:none;stroke-width:126.07555389;marker:none;visibility:visible;display:inline;overflow:visible;enable-background:accumulate;font-family:Sans;-inkscape-font-specification:Sans"
       d="m 221.28125,-578.125 a 63.044081,63.044081 0 0 0 -62.9375,60.03125 l -2.875,0 c -67.410241,0 -123.65625,56.24601 -123.65625,123.65625 l 0,902.21875 c 0,67.41024 56.246109,123.65625 123.65625,123.65625 l 487.46875,0 a 63.044081,63.044081 0 0 0 45.5,0 l 1204.0937,0 c 67.4102,0 123.6563,-56.24583 123.6563,-123.65625 l 0,-902.21875 c 0,-67.41042 -56.246,-123.65625 -123.6563,-123.65625 l -1376.7812,0 A 63.044081,63.044081 0 0 0 452.875,-578.125 l -231.59375,0 z M 157.875,-392 l 317.5,0 a 63.044081,63.044081 0 0 0 16.96875,1.6875 c 45.89978,-1.09303 66.28378,21.90963 85.46875,54.84375 15.87042,27.24417 22.8408,54.58283 24.875,63.625 l 0,777.1875 -444.8125,0 0,-897.34375 z m 532.59375,0 1199.65625,0 0,897.34375 -1161.375,0 0,-783.8125 a 63.044081,63.044081 0 0 0 -0.9375,-10.75 c 0,0 -8.31838,-49.92924 -37.34375,-102.78125 z m 649.84375,13.28125 c -241.603,0 -438.8125,197.20942 -438.8125,438.8125 0,241.60309 197.2095,438.8125 438.8125,438.8125 241.603,0 438.8125,-197.20942 438.8125,-438.8125 0,-241.60307 -197.2095,-438.8125 -438.8125,-438.8125 z m 0,126.09375 c 173.4668,0 312.75,139.25197 312.75,312.71875 0,173.46679 -139.2832,312.75 -312.75,312.75 -173.4668,0 -312.7187,-139.28322 -312.7187,-312.75 0,-173.46677 139.2519,-312.71875 312.7187,-312.71875 z"
       id="path3780"
       inkscape:connector-curvature="0" />
  </g>
</svg>
