<?xml version="1.0" encoding="UTF-8" standalone="no"?>
<svg
   xmlns:dc="http://purl.org/dc/elements/1.1/"
   xmlns:cc="http://creativecommons.org/ns#"
   xmlns:rdf="http://www.w3.org/1999/02/22-rdf-syntax-ns#"
   xmlns:svg="http://www.w3.org/2000/svg"
   xmlns="http://www.w3.org/2000/svg"
   xmlns:sodipodi="http://sodipodi.sourceforge.net/DTD/sodipodi-0.dtd"
   xmlns:inkscape="http://www.inkscape.org/namespaces/inkscape"
   version="1.1"
   x="0px"
   y="0px"
   width="2048"
   height="2048"
   viewBox="0 0 2048 2048"
   enable-background="new 0 0 640 640"
   xml:space="preserve"
   id="svg2"
   inkscape:version="0.91 r13725"
   sodipodi:docname="logo-react.svg"><metadata
     id="metadata12"><rdf:RDF><cc:Work
         rdf:about=""><dc:format>image/svg+xml</dc:format><dc:type
           rdf:resource="http://purl.org/dc/dcmitype/StillImage" /><dc:title></dc:title></cc:Work></rdf:RDF></metadata><defs
     id="defs10" /><sodipodi:namedview
     pagecolor="#ffffff"
     bordercolor="#666666"
     borderopacity="1"
     objecttolerance="10"
     gridtolerance="10"
     guidetolerance="10"
     inkscape:pageopacity="0"
     inkscape:pageshadow="2"
     inkscape:window-width="1855"
     inkscape:window-height="1056"
     id="namedview8"
     showgrid="false"
     inkscape:zoom="0.184375"
     inkscape:cx="1783.7521"
     inkscape:cy="1152.8901"
     inkscape:window-x="65"
     inkscape:window-y="24"
     inkscape:window-maximized="1"
     inkscape:current-layer="svg2" /><path
     style="fill:#000000;fill-opacity:1"
     inkscape:connector-curvature="0"
     id="path6"
     d="m 1677.2202,741.18144 c -32.8486,-12.60988 -67.701,-24.15886 -104.2703,-34.6016 9.2579,-36.938 16.6963,-72.93903 22.2184,-107.73407 31.4703,-198.37892 -3.8144,-338.05177 -99.3466,-393.288 -28.1365,-16.27316 -60.3866,-24.52157 -95.8466,-24.52157 -106.6369,0 -240.6063,77.49092 -375.969,208.70379 C 888.64026,258.52712 754.67087,181.0362 648.04001,181.0362 c -35.46302,0 -67.70707,8.24841 -95.84657,24.52157 -95.53827,55.24227 -130.81994,194.91512 -99.35267,393.288 5.51909,34.79504 12.96049,70.79304 22.21539,107.73104 -36.57228,10.44275 -71.42777,21.99173 -104.27935,34.60463 C 183.50257,813.07468 80.371766,913.51243 80.371766,1023.997 c 0,110.4845 103.130804,210.9223 290.398994,282.8125 32.85158,12.6129 67.70406,24.1619 104.27633,34.6046 -9.25792,36.9411 -16.69932,72.9481 -22.21841,107.7492 -31.46425,198.3638 3.81742,338.0367 99.35569,393.2759 28.1395,16.2702 60.3896,24.5246 95.84658,24.5246 106.6369,0 240.60327,-77.4909 375.96605,-208.7038 135.3597,131.2129 269.3261,208.7038 375.96,208.7038 35.469,0 67.7222,-8.2454 95.8556,-24.5246 95.5353,-55.2362 130.8169,-194.9091 99.3587,-393.2759 -5.5191,-34.8011 -12.9605,-70.8081 -22.2184,-107.7522 36.5663,-10.4397 71.4157,-21.9887 104.2612,-34.5986 187.2743,-71.8872 290.4141,-172.3279 290.4141,-282.8125 0.01,-110.48757 -103.1338,-210.92532 -290.408,-282.81856 z M 1399.9721,261.46801 c 21.4779,0 39.6945,4.49749 55.6926,13.7403 63.7597,36.86848 85.691,150.22743 60.1811,311.01851 -5.1383,32.40122 -12.0749,65.96007 -20.686,100.41659 -79.0748,-18.12897 -164.4876,-31.51563 -253.8419,-39.80333 -52.1381,-73.6342 -106.3316,-140.60076 -160.8878,-199.3703 118.9022,-115.8374 233.9991,-186.00177 319.542,-186.00177 z M 635.23669,1118.5076 c 17.05901,33.0601 35.0973,66.1233 54.06955,99.0353 19.04176,33.0329 38.63362,65.1833 58.63956,96.3997 -60.48933,-7.5623 -118.56369,-17.6393 -173.37677,-30.0709 16.65096,-53.7431 36.97125,-109.1335 60.66766,-165.3641 z m 0,-189.02426 C 611.5433,873.2527 591.22604,817.86535 574.57507,764.12526 c 54.81006,-12.43458 112.88442,-22.50858 173.37376,-30.07088 -20.01199,31.22245 -39.60687,63.38188 -58.65771,96.42387 -18.96922,32.90296 -37.00147,65.95402 -54.05443,99.00509 z M 677.86304,1024 c 24.50947,-50.99868 51.57296,-102.29961 80.97586,-153.30433 29.41197,-51.01682 60.45609,-100.1748 92.53391,-146.94802 56.21552,-4.22244 113.96043,-6.38957 172.61509,-6.38957 58.6668,0 116.4208,2.16713 172.6484,6.38957 32.0778,46.77322 63.1249,95.92818 92.5369,146.94499 29.4029,51.00171 56.4664,102.29659 80.9728,153.29526 -24.5125,51.0108 -51.582,102.3238 -80.9909,153.3406 -29.406,51.0078 -60.4471,100.1537 -92.5158,146.9208 -56.2276,4.2225 -113.9816,6.3896 -172.6484,6.3896 -58.65766,0 -116.40257,-2.1671 -172.62111,-6.3896 -32.07177,-46.7641 -63.10985,-95.913 -92.51578,-146.9208 C 729.44507,1126.3147 702.37554,1075.0078 677.86304,1024 Z m 680.83676,193.5429 c 18.9753,-32.915 37.0136,-65.9812 54.0756,-99.0444 23.6964,56.2307 44.0137,111.6241 60.6616,165.3672 -54.813,12.4346 -112.8874,22.5086 -173.3767,30.0739 20.0059,-31.2134 39.5947,-63.3638 58.6395,-96.3967 z m 54.0726,-288.06561 c -17.053,-33.05106 -35.0852,-66.0991 -54.0514,-98.99904 -19.0478,-33.04199 -38.6427,-65.1984 -58.6547,-96.42084 60.4863,7.56532 118.5546,17.63932 173.3617,30.07087 -16.651,53.73707 -36.9652,109.1214 -60.6556,165.34901 z M 1024.003,505.58948 c 37.5637,40.76147 75.1001,85.65167 111.8115,133.92405 -36.8443,-1.70771 -74.1692,-2.58726 -111.8266,-2.58726 -37.64827,0 -74.96106,0.87653 -111.7963,2.58424 36.71434,-48.26936 74.24777,-93.15956 111.8114,-133.92103 z M 592.34134,275.20831 c 15.77444,-9.11587 34.51395,-13.7403 55.69263,-13.7403 85.53984,0 200.6337,70.16437 319.53894,186.00177 -54.55617,58.76651 -108.74661,125.73308 -160.88175,199.36728 -89.36028,8.2877 -174.7762,21.67436 -253.85392,39.80333 -8.61111,-34.45653 -15.54776,-68.01235 -20.68601,-100.41357 -25.5069,-160.78503 -3.56655,-274.14701 60.19011,-311.01851 z M 496.7003,1263.9806 c -34.10592,-9.7626 -66.59479,-20.5258 -97.18554,-32.2712 -151.781,-58.2708 -238.83511,-133.9785 -238.83511,-207.7124 0,-73.73396 87.05411,-149.4416 238.83511,-207.71242 30.59075,-11.74544 63.08265,-22.50857 97.18856,-32.27126 23.85057,77.62089 54.96723,158.36703 92.46137,239.98068 -37.49414,81.6166 -68.6108,162.3658 -92.46439,239.9866 z m 151.33367,522.5514 c -21.48093,0 -39.69755,-4.4975 -55.69263,-13.7463 -63.76271,-36.8685 -85.70003,-150.2275 -60.19918,-311.0095 5.14128,-32.4042 12.07792,-65.9661 20.68903,-100.4256 79.07773,18.1319 164.49364,31.5186 253.85392,39.8063 52.13515,73.6342 106.32861,140.6038 160.88478,199.3733 -118.89617,115.8374 -233.99306,186.0018 -319.53592,186.0018 z m 264.15159,-378.0485 c 36.83523,1.7077 74.15105,2.5842 111.80234,2.5842 37.6604,0 74.9853,-0.8765 111.8296,-2.5873 -36.7144,48.2754 -74.2508,93.1656 -111.8175,133.9332 -37.56365,-40.7645 -75.10011,-85.6547 -111.81444,-133.9301 z m 543.47914,364.3052 c -15.7744,9.1219 -34.517,13.7463 -55.7017,13.7463 -85.5368,0 -200.6337,-70.1643 -319.5329,-186.0017 54.5592,-58.7696 108.7527,-125.7392 160.8908,-199.3764 89.3603,-8.2877 174.7762,-21.6774 253.854,-39.8094 8.6111,34.4626 15.5477,68.0245 20.686,100.4317 25.5038,160.782 3.5635,274.141 -60.1962,311.0095 z m 192.8115,-541.0763 c -30.5877,11.7424 -63.0706,22.5056 -97.1704,32.2652 -23.8536,-77.6239 -54.9703,-158.3731 -92.4644,-239.9897 37.4881,-81.61057 68.6047,-162.35067 92.4553,-239.96853 34.1029,9.75966 66.5918,20.52581 97.1795,32.26823 151.7961,58.27083 238.8472,133.97846 238.8472,207.7124 0,73.7339 -87.0511,149.4386 -238.8472,207.7124 z m -624.4792,-38.3918 c 93.3711,0 169.0727,-75.8074 169.0727,-169.3236 0,-93.51926 -75.7016,-169.32362 -169.0727,-169.32362 -93.36813,0 -169.06973,75.80436 -169.06973,169.32362 0.003,93.5192 75.70462,169.3236 169.06973,169.3236 z" /></svg>