<?xml version="1.0" encoding="UTF-8" standalone="no"?>
<svg
   xmlns:sketch="http://www.bohemiancoding.com/sketch/ns"
   xmlns:dc="http://purl.org/dc/elements/1.1/"
   xmlns:cc="http://creativecommons.org/ns#"
   xmlns:rdf="http://www.w3.org/1999/02/22-rdf-syntax-ns#"
   xmlns:svg="http://www.w3.org/2000/svg"
   xmlns="http://www.w3.org/2000/svg"
   xmlns:sodipodi="http://sodipodi.sourceforge.net/DTD/sodipodi-0.dtd"
   xmlns:inkscape="http://www.inkscape.org/namespaces/inkscape"
   width="2048"
   height="2048"
   viewBox="0 0 2048 2048"
   version="1.1"
   id="svg2"
   inkscape:version="0.48.4 r9939"
   sodipodi:docname="rocket.svg">
  <metadata
     id="metadata15">
    <rdf:RDF>
      <cc:Work
         rdf:about="">
        <dc:format>image/svg+xml</dc:format>
        <dc:type
           rdf:resource="http://purl.org/dc/dcmitype/StillImage" />
      </cc:Work>
    </rdf:RDF>
  </metadata>
  <sodipodi:namedview
     pagecolor="#ffffff"
     bordercolor="#666666"
     borderopacity="1"
     objecttolerance="10"
     gridtolerance="10"
     guidetolerance="10"
     inkscape:pageopacity="0"
     inkscape:pageshadow="2"
     inkscape:window-width="1920"
     inkscape:window-height="1056"
     id="namedview13"
     showgrid="false"
     inkscape:zoom="0.17352941"
     inkscape:cx="1672.8733"
     inkscape:cy="170.24302"
     inkscape:window-x="1920"
     inkscape:window-y="24"
     inkscape:window-maximized="1"
     inkscape:current-layer="svg2" />
  <!-- Generator: Sketch 3.1 (8751) - http://www.bohemiancoding.com/sketch -->
  <title
     id="title4">Icon-engage</title>
  <desc
     id="desc6">Created with Sketch.</desc>
  <defs
     id="defs8" />
  <path
     d="m 1023.9999,886.56674 c -51.31692,0 -92.88031,41.00137 -92.88031,91.62111 0,50.57705 41.56339,91.62345 92.88031,91.62345 51.3169,0 92.8803,-41.0464 92.8803,-91.62345 0,-50.61974 -41.5634,-91.62111 -92.8803,-91.62111 l 0,0 z m 325.0776,369.00756 c 119.1197,-183.0145 139.3193,-323.05947 139.3193,-550.7392 0,-367.86222 -371.5166,-688.5859 -464.3969,-688.5859 -92.88031,0 -464.39684,320.72368 -464.39684,688.5859 0,227.67973 20.15446,367.7247 139.31929,550.7392 l -232.19961,366.9919 0,409.1838 371.5189,-363.2807 185.75826,363.2807 185.7583,-363.2807 371.5189,363.2807 0,-409.1838 -232.1996,-366.9919 0,0 z m 139.3193,556.3286 -213.2499,-208.5331 -90.7911,-88.69 -57.492,112.5581 -102.8639,201.0656 -102.86387,-201.0656 -57.49204,-112.5581 -90.79112,88.69 -213.24981,208.5331 0,-163.0427 249.24043,-394.0186 -31.7648,-48.789 C 670.45378,1042.3696 652.481,919.18287 652.481,704.8351 c 0,-297.08565 284.35127,-560.82003 371.5189,-595.03922 87.1676,34.21919 371.5189,297.95357 371.5189,595.03922 0,214.25765 -17.9728,337.4894 -124.5977,501.2175 l -31.7648,48.789 249.2405,394.0186 0,163.0427 0,0 z M 1023.9999,520.07756 c -51.31692,0 -92.88031,41.00137 -92.88031,91.62348 0,50.57468 41.56339,91.62111 92.88031,91.62111 51.3169,0 92.8803,-41.04643 92.8803,-91.62111 0,-50.62211 -41.5634,-91.62348 -92.8803,-91.62348 l 0,0 z"
     id="Icon-engage"
     sketch:type="MSShapeGroup"
     style="fill:#000000;fill-rule:evenodd;stroke:none"
     inkscape:connector-curvature="0" />
</svg>
