<?xml version="1.0" encoding="UTF-8" standalone="no"?>
<svg
   xmlns:dc="http://purl.org/dc/elements/1.1/"
   xmlns:cc="http://creativecommons.org/ns#"
   xmlns:rdf="http://www.w3.org/1999/02/22-rdf-syntax-ns#"
   xmlns:svg="http://www.w3.org/2000/svg"
   xmlns="http://www.w3.org/2000/svg"
   xmlns:sodipodi="http://sodipodi.sourceforge.net/DTD/sodipodi-0.dtd"
   xmlns:inkscape="http://www.inkscape.org/namespaces/inkscape"
   version="1.1"
   data-icon="browser-type-safari"
   width="2048"
   height="2048"
   class="iconic iconic-browser-type iconic-size-lg iconic-browser-type-safari"
   viewBox="0 0 2048 2048"
   id="svg2"
   inkscape:version="0.48.4 r9939"
   sodipodi:docname="safari.svg">
  <metadata
     id="metadata22">
    <rdf:RDF>
      <cc:Work
         rdf:about="">
        <dc:format>image/svg+xml</dc:format>
        <dc:type
           rdf:resource="http://purl.org/dc/dcmitype/StillImage" />
      </cc:Work>
    </rdf:RDF>
  </metadata>
  <defs
     id="defs20" />
  <sodipodi:namedview
     pagecolor="#ffffff"
     bordercolor="#666666"
     borderopacity="1"
     objecttolerance="10"
     gridtolerance="10"
     guidetolerance="10"
     inkscape:pageopacity="0"
     inkscape:pageshadow="2"
     inkscape:window-width="1861"
     inkscape:window-height="1056"
     id="namedview18"
     showgrid="false"
     inkscape:zoom="0.23046875"
     inkscape:cx="-843.85394"
     inkscape:cy="95.506774"
     inkscape:window-x="59"
     inkscape:window-y="24"
     inkscape:window-maximized="1"
     inkscape:current-layer="svg2" />
  <g
     id="g4"
     transform="translate(0,1920)">
    <title
       id="title6">Browser Type Safari</title>
  </g>
  <!-- Chrome -->
  <!-- Firefox -->
  <!-- IE -->
  <!-- Safari -->
  <g
     data-width="128"
     data-height="128"
     class="iconic-container iconic-browser-type-safari"
     id="g8"
     transform="matrix(15.711864,0,0,15.711864,18.440704,18.440704)">
    <path
       d="m 64,4 c 33.084,0 60,26.916 60,60 0,33.084 -26.916,60 -60,60 C 30.916,124 4,97.084 4,64 4,30.916 30.916,4 64,4 M 64,0 C 28.654,0 0,28.654 0,64 0,99.346 28.654,128 64,128 99.346,128 128,99.346 128,64 128,28.654 99.346,0 64,0 z"
       class="iconic-browser-type-safari-border iconic-property-fill"
       id="path10"
       inkscape:connector-curvature="0" />
    <path
       class="iconic-browser-type-safari-needle iconic-property-fill"
       d="M 103.779,24.044 71.602,71.072 24.221,103.956 57.105,57.282 z"
       id="path12"
       inkscape:connector-curvature="0" />
    <path
       class="iconic-browser-type-safari-tick iconic-browser-type-safari-tick-large iconic-property-stroke"
       d="M 64,7.484 V 19.035 M 52.974,8.57 55.228,19.899 m -12.856,-8.113 4.421,10.672 m -14.191,-5.449 6.417,9.604 m -14.982,-2.576 8.168,8.168 m -15.196,0.397 9.604,6.417 m -14.827,3.353 10.672,4.421 M 8.57,52.974 19.899,55.228 M 7.484,64 H 19.035 M 8.57,75.026 19.899,72.772 m -8.113,12.856 10.672,-4.421 m -5.449,14.191 9.604,-6.417 m 5.989,22.01 6.417,-9.604 m 3.353,14.827 4.421,-10.672 m 6.181,13.888 2.254,-11.329 M 64,120.516 v -11.551 m 11.026,10.465 -2.254,-11.329 m 12.856,8.113 -4.421,-10.672 m 14.191,5.449 -6.417,-9.604 m 14.982,2.576 -8.168,-8.168 m 15.196,-0.397 -9.604,-6.417 m 14.827,-3.353 -10.672,-4.421 M 119.43,75.026 108.101,72.772 M 120.516,64 h -11.551 m 10.465,-11.026 -11.329,2.254 m 8.113,-12.856 -10.672,4.421 m 5.449,-14.191 -9.604,6.417 m -5.989,-22.01 -6.417,9.604 M 85.628,11.786 81.207,22.458 M 75.026,8.57 72.772,19.899"
       id="path14"
       inkscape:connector-curvature="0"
       style="fill:none;stroke:#000000;stroke-width:1.41400003" />
    <path
       class="iconic-browser-type-safari-tick iconic-browser-type-safari-tick-small iconic-property-stroke"
       d="m 58.461,7.756 0.577,5.865 m -11.444,-3.703 1.711,5.639 m -11.946,-1.399 2.778,5.197 m -11.99,0.958 3.738,4.555 m -11.572,3.279 4.555,3.738 m -10.71,5.474 5.197,2.778 m -9.437,7.457 5.639,1.711 m -7.801,9.156 5.865,0.577 M 7.756,69.54 13.621,68.962 m -3.703,11.444 5.639,-1.711 m -1.399,11.946 5.197,-2.778 m 0.958,11.99 4.555,-3.738 m 3.279,11.572 3.738,-4.555 m 5.474,10.71 2.778,-5.197 m 7.457,9.437 1.711,-5.639 m 9.156,7.8 0.577,-5.864 m 10.502,5.864 -0.578,-5.864 m 11.444,3.703 -1.711,-5.639 m 11.946,1.399 -2.778,-5.197 m 11.99,-0.958 -3.738,-4.555 m 11.572,-3.279 -4.555,-3.738 m 10.71,-5.474 -5.197,-2.778 m 9.437,-7.457 -5.639,-1.711 m 7.8,-9.155 -5.864,-0.578 m 5.864,-10.501 -5.864,0.577 m 3.703,-11.444 -5.639,1.711 m 1.399,-11.946 -5.197,2.778 m -0.958,-11.99 -4.555,3.738 m -3.279,-11.572 -3.738,4.555 m -5.474,-10.71 -2.778,5.197 M 80.406,9.918 78.695,15.557 M 69.54,7.756 68.962,13.621"
       id="path16"
       inkscape:connector-curvature="0"
       style="fill:none;stroke:#000000;stroke-width:1.41400003" />
  </g>
  <!-- Chrome -->
  <!-- Firefox -->
  <!-- IE -->
  <!-- Safari -->
  <!-- Chrome -->
  <!-- Firefox -->
  <!-- IE -->
  <!-- Safari -->
</svg>
