<?xml version="1.0" encoding="UTF-8" standalone="no"?>
<!-- Generator: Adobe Illustrator 15.0.2, SVG Export Plug-In . SVG Version: 6.00 Build 0)  -->

<svg
   xmlns:dc="http://purl.org/dc/elements/1.1/"
   xmlns:cc="http://creativecommons.org/ns#"
   xmlns:rdf="http://www.w3.org/1999/02/22-rdf-syntax-ns#"
   xmlns:svg="http://www.w3.org/2000/svg"
   xmlns="http://www.w3.org/2000/svg"
   xmlns:sodipodi="http://sodipodi.sourceforge.net/DTD/sodipodi-0.dtd"
   xmlns:inkscape="http://www.inkscape.org/namespaces/inkscape"
   version="1.1"
   id="Layer_1"
   x="0px"
   y="0px"
   width="2048"
   height="2048"
   viewBox="0 0 2048 2048"
   enable-background="new 0 0 175.02 175.02"
   xml:space="preserve"
   inkscape:version="0.91 r"
   sodipodi:docname="shopify.svg"><metadata
     id="metadata188"><rdf:RDF><cc:Work
         rdf:about=""><dc:format>image/svg+xml</dc:format><dc:type
           rdf:resource="http://purl.org/dc/dcmitype/StillImage" /><dc:title></dc:title></cc:Work></rdf:RDF></metadata><defs
     id="defs186" /><sodipodi:namedview
     pagecolor="#ffffff"
     bordercolor="#666666"
     borderopacity="1"
     objecttolerance="10"
     gridtolerance="10"
     guidetolerance="10"
     inkscape:pageopacity="0"
     inkscape:pageshadow="2"
     inkscape:window-width="1855"
     inkscape:window-height="1056"
     id="namedview184"
     showgrid="false"
     inkscape:zoom="0.23836875"
     inkscape:cx="704.46685"
     inkscape:cy="507.92625"
     inkscape:window-x="65"
     inkscape:window-y="24"
     inkscape:window-maximized="1"
     inkscape:current-layer="g30" /><g
     display="none"
     id="g3"
     style="display:none"
     transform="translate(0,1872.98)"><circle
       display="inline"
       stroke-miterlimit="10"
       cx="87.509003"
       cy="87.510002"
       r="85.771004"
       id="circle5"
       style="display:inline;fill:none;stroke:#f78f1e;stroke-width:3.47530007;stroke-linecap:round;stroke-linejoin:round;stroke-miterlimit:10" /><g
       display="inline"
       id="g7"
       style="display:inline"><path
         d="m 75.273,109.181 c -0.797,0 -1.444,0.647 -1.444,1.444 l 0,15.597 c 0,0.798 0.647,1.447 1.444,1.447 l 59.387,0 c 0.799,0 1.445,-0.649 1.445,-1.447 l 0,-15.597 c 0,-0.797 -0.646,-1.444 -1.445,-1.444 l -59.387,0 0,0 z"
         id="path9"
         inkscape:connector-curvature="0"
         style="fill:#f78f1e" /><g
         id="g11"><path
           d="m 42.886,104.511 c 1.129,1.719 5.739,8.376 6.381,8.248 1.526,-0.305 59.646,-24.957 59.646,-24.957 0,0 1.033,-0.324 1.15,-1.354 0.104,-0.944 -1.622,-7.102 -2.176,-8.823 l -65.001,26.886 z"
           id="path13"
           inkscape:connector-curvature="0"
           style="fill:#f78f1e" /><path
           d="m 61.996,72.886 c 0,0 1.928,2.216 2.327,4.507 0.398,2.291 1.126,4.766 2.072,5.562 0.942,0.802 3.527,2.086 5.891,1.506 2.217,-0.545 4.613,-1.56 5.377,-3.375 0.456,-1.084 1.238,-4.819 -1.051,-6.928 -1.816,-1.674 -3.056,-2.292 -3.383,-3.892 -0.327,-1.601 -0.327,-2.8 -0.327,-2.8 0,0 -1.855,2.913 -4.873,4.289 -2.508,1.147 -6.033,1.131 -6.033,1.131 z"
           id="path15"
           inkscape:connector-curvature="0"
           style="fill:#f78f1e" /><path
           d="m 100.101,62.136 c 0,0 -0.669,-1.505 -2.177,-0.895 -0.287,0.115 -11.163,4.715 -23.425,9.898 0.357,0.45 0.854,0.873 1.488,1.41 0.386,0.327 0.825,0.697 1.297,1.133 2.712,2.494 1.661,6.826 1.229,7.853 -0.918,2.184 -3.768,3.297 -5.996,3.845 -0.454,0.112 -0.937,0.169 -1.435,0.169 l 0,0 c -2.211,0 -4.322,-1.109 -5.205,-1.855 C 64.523,82.548 63.782,79.015 63.525,77.55 63.432,77.02 63.254,76.489 63.034,75.988 50.71,81.205 39.846,85.8 39.846,85.8 c 0,0 -2.513,0.942 -1.453,4.405 0.331,1.082 2.461,8.847 3.683,12.411 l 64.969,-26.872 c -1.928,-3.874 -6.944,-13.608 -6.944,-13.608 z"
           id="path17"
           inkscape:connector-curvature="0"
           style="fill:#f78f1e" /><path
           d="m 61.797,41.042 c -2.076,0 -4.287,0.396 -6.395,1.148 -7.009,2.509 -11.368,8.305 -9.717,12.92 1.099,3.073 4.669,4.981 9.314,4.981 2.076,0 4.288,-0.397 6.392,-1.15 3.433,-1.226 6.332,-3.27 8.165,-5.754 1.79,-2.424 2.341,-4.968 1.556,-7.167 -1.097,-3.069 -4.667,-4.978 -9.315,-4.978 z"
           id="path19"
           inkscape:connector-curvature="0"
           style="fill:#f78f1e" /><path
           d="m 55.004,61.582 c -2.627,0 -4.999,-0.59 -6.834,-1.666 l 5.48,9.369 c 0.649,0.396 4.392,2.557 8.565,2.557 l 0,0 c 2.069,0 4.818,-0.627 6.427,-1.697 5.638,-3.752 6.506,-9.104 6.707,-9.97 L 72.3,50.174 c -0.902,4.117 -5,8.21 -10.562,10.198 -2.211,0.794 -4.539,1.21 -6.734,1.21 z"
           id="path21"
           inkscape:connector-curvature="0"
           style="fill:#f78f1e" /></g></g></g><g
     display="none"
     id="g23"
     style="display:none"
     transform="translate(0,1872.98)"><circle
       display="inline"
       stroke-miterlimit="10"
       cx="87.509003"
       cy="87.510002"
       r="85.772003"
       id="circle25"
       style="display:inline;fill:none;stroke:#f78f1e;stroke-width:3.47530007;stroke-linecap:round;stroke-linejoin:round;stroke-miterlimit:10" /><path
       id="shopping-cart-icon"
       display="inline"
       d="m 142.373,53.025 -3.334,10.469 -7.847,0 -15.485,49.239 -59.424,0 -21.637,-49.633 77.655,0 -12.043,38.919 7.883,0 15.398,-48.994 18.834,0 z m -44.985,64.898 c -3.887,0 -7.037,3.15 -7.037,7.037 0,3.887 3.15,7.037 7.037,7.037 3.887,0 7.037,-3.15 7.037,-7.037 0,-3.887 -3.15,-7.037 -7.037,-7.037 z m -23.261,0 c -3.887,0 -7.037,3.15 -7.037,7.037 0,3.887 3.15,7.037 7.037,7.037 3.887,0 7.038,-3.15 7.038,-7.037 0,-3.887 -3.151,-7.037 -7.038,-7.037 z"
       inkscape:connector-curvature="0"
       style="display:inline;fill:#f78f1e" /></g><g
     id="g30"
     transform="translate(18.091717,1861.7054)"><g
       id="g86" /><path
       style="fill:#000000"
       d="m 924.21782,-1781.2555 c -21.15764,0.7255 -43.89598,5.4528 -68.11063,14.2521 -193.99738,70.4361 -276.02282,321.5239 -305.55663,446.7719 l -168.91281,52.3219 c 0,0 -39.75234,11.3002 -49.09498,22.5114 -10.2474,12.2733 -12.21612,45.4071 -12.21612,45.4071 L 177.15222,-95.469655 1252.1706,105.94275 1334.9175,-1555.6799 c -2.9552,-0.5852 -5.9109,-0.8823 -8.7587,-0.9604 -8.5429,-0.2343 -15.9341,1.3365 -18.1321,1.8823 l -57.8921,17.94 c -25.1244,-74.3021 -59.5166,-127.1885 -102.6845,-157.7338 -32.0269,-22.6731 -67.2889,-32.2459 -105.22,-29.2342 -7.8466,-10.4152 -16.2214,-19.9047 -25.6615,-27.5439 -26.1717,-21.1561 -57.08807,-31.1349 -92.35078,-29.9256 z M 1252.1706,105.94275 1834.6643,-20.098535 1628.911,-1412.0061 c 0,0 -1.5581,-8.5134 -6.377,-11.6014 -4.8188,-3.088 -10.0646,-3.6879 -10.0646,-3.6879 l -151.7412,-11.2942 -111.6738,-110.9438 c -4.1698,-3.2454 -9.0829,-5.1631 -14.0985,-6.1465 L 1252.1706,105.94275 Z M 934.12901,-1716.2566 c 13.99561,0.7359 26.11461,4.8533 36.68676,11.9857 -121.70608,55.5048 -174.68972,195.2596 -197.64758,315.122 l -149.43616,46.2523 c 33.34884,-120.5975 107.6288,-309.8023 254.50247,-363.1414 21.16354,-7.6708 39.71453,-11.0692 55.89451,-10.2186 z m 141.40729,57.2391 c 14.5897,1.472 27.9214,6.3029 40.0289,14.8668 33.8032,23.9015 57.9516,72.1 75.0638,125.7338 l -91.1214,28.2354 c -0.089,-7.3506 -0.177,-14.696 -0.4611,-22.281 -2.1811,-58.0588 -10.0873,-106.9525 -23.5102,-146.555 z m -64.3074,12.3698 c 18.9576,49.5301 24.0499,116.7963 23.4718,176.519 l -186.08452,57.6232 c 24.71369,-96.7465 71.94428,-195.5301 162.61272,-234.1422 z m -114.05557,501.7444 c 20.86847,-0.079 40.5071,1.1365 58.62199,3.4574 18.31166,2.3406 35.03398,5.7414 49.82488,9.9112 14.9679,4.2484 27.8506,9.2649 38.5307,14.7131 l -71.72169,213.62838 c -8.49688,-4.1501 -18.59461,-8.54392 -30.00246,-12.79236 -11.30952,-4.20911 -23.93992,-8.21938 -37.57035,-11.56307 -13.53205,-3.32401 -28.06787,-5.99433 -43.40947,-7.56783 -15.24326,-1.5735 -31.22869,-2.07784 -47.75042,-1.11404 -15.18425,0.90476 -28.95021,3.58648 -41.06614,7.91359 -11.97825,4.28778 -22.36855,10.18195 -30.92444,17.47904 -8.55589,7.27743 -15.33147,16.01555 -20.0913,26.00726 -4.72049,9.99171 -7.53619,21.27757 -8.06724,33.7672 -0.37371,9.22463 1.05719,18.1026 4.30253,26.73717 3.26501,8.65423 8.32756,17.07091 15.25095,25.46946 6.96272,8.45756 15.78814,16.91356 26.46825,25.46945 10.73912,8.65424 23.45495,17.45629 38.10814,26.62191 20.53415,13.15837 41.53942,27.98985 61.50317,45.02294 20.29811,17.26915 39.45053,36.74301 55.93292,58.92933 16.69874,22.44201 30.55136,47.62627 39.91367,75.87055 9.42124,28.4213 14.17173,59.80919 12.6771,94.3868 -2.45879,56.5279 -14.86709,105.23357 -35.34223,145.63312 -20.23911,39.90783 -48.15302,71.24679 -81.78653,93.96416 -32.8861,22.206 -70.96167,35.99928 -112.40366,41.56553 -40.2422,5.36956 -83.39445,2.95798 -127.88509,-6.87638 -0.37371,-0.0787 -0.70198,-0.17702 -1.07568,-0.23012 -0.33437,-0.0787 -0.6831,-0.13768 -1.03714,-0.23013 -0.33436,-0.0787 -0.74131,-0.19668 -1.07568,-0.26946 -0.39337,-0.059 -0.70197,-0.15735 -1.07568,-0.23012 -20.84884,-5.07453 -40.94874,-11.59511 -59.88972,-19.24604 -18.62627,-7.53314 -36.14095,-16.1091 -52.05295,-25.39273 -15.7153,-9.12629 -29.9444,-18.98858 -42.25702,-29.1573 -12.23394,-10.05072 -22.56986,-20.46157 -30.73238,-30.88599 l 49.13339,-162.92006 c 8.26086,7.04141 18.38012,14.96454 29.92566,23.0877 11.66355,8.22154 24.77582,16.58423 38.79962,24.43225 14.18115,7.92649 29.32913,15.24479 44.94609,21.24375 15.77431,6.07763 32.08399,10.71976 48.173,13.0996 14.25982,2.10455 26.95691,1.67164 38.06973,-0.80661 11.23084,-2.51764 20.81012,-7.22718 28.65794,-13.5607 7.88715,-6.37247 13.98015,-14.41871 18.20892,-23.70234 4.26812,-9.28364 6.69199,-19.79012 7.18371,-31.00129 0.47205,-11.1913 -0.54817,-21.75268 -3.38056,-32.00008 -2.8323,-10.2474 -7.3933,-20.1841 -14.02166,-30.15614 -6.58902,-9.91303 -15.16981,-19.81224 -26.00727,-30.07931 -10.75879,-10.16873 -23.6716,-20.71394 -38.91486,-31.84643 -18.72462,-13.98446 -36.33674,-29.13541 -52.09138,-45.63757 -15.5973,-16.30537 -29.37246,-33.95254 -40.68198,-53.09018 -11.25051,-18.98031 -20.05318,-39.52583 -25.77678,-61.81048 -5.66459,-22.16665 -8.34414,-46.15818 -7.18368,-72.29791 1.90786,-43.70389 10.64384,-84.02847 25.27737,-120.31725 14.79088,-36.68221 35.68673,-69.59897 61.96416,-97.88257 26.80844,-28.913 59.37463,-53.2463 96.92221,-71.9906 38.62937,-19.295 82.82929,-32.8682 131.76506,-39.2606 22.6977,-2.9896 44.4817,-4.3963 65.11422,-4.4946 z"
       id="path138"
       inkscape:connector-curvature="0" /><g
       id="g172" /></g></svg>