<?xml version="1.0" encoding="UTF-8" standalone="no"?>
<svg
   xmlns:dc="http://purl.org/dc/elements/1.1/"
   xmlns:cc="http://creativecommons.org/ns#"
   xmlns:rdf="http://www.w3.org/1999/02/22-rdf-syntax-ns#"
   xmlns:svg="http://www.w3.org/2000/svg"
   xmlns="http://www.w3.org/2000/svg"
   xmlns:sodipodi="http://sodipodi.sourceforge.net/DTD/sodipodi-0.dtd"
   xmlns:inkscape="http://www.inkscape.org/namespaces/inkscape"
   width="2048"
   height="2048"
   viewBox="0 0 2048 2048"
   version="1.1"
   id="svg2"
   inkscape:version="0.48.5 r10040"
   sodipodi:docname="Icon-trolley.svg">
  <metadata
     id="metadata20">
    <rdf:RDF>
      <cc:Work
         rdf:about="">
        <dc:format>image/svg+xml</dc:format>
        <dc:type
           rdf:resource="http://purl.org/dc/dcmitype/StillImage" />
      </cc:Work>
    </rdf:RDF>
  </metadata>
  <sodipodi:namedview
     pagecolor="#ffffff"
     bordercolor="#666666"
     borderopacity="1"
     objecttolerance="10"
     gridtolerance="10"
     guidetolerance="10"
     inkscape:pageopacity="0"
     inkscape:pageshadow="2"
     inkscape:window-width="1920"
     inkscape:window-height="1004"
     id="namedview18"
     showgrid="false"
     inkscape:zoom="0.19932433"
     inkscape:cx="-265.2134"
     inkscape:cy="926.08518"
     inkscape:window-x="0"
     inkscape:window-y="24"
     inkscape:window-maximized="1"
     inkscape:current-layer="svg2" />
  <!-- Generator: Sketch 3.1.1 (8761) - http://www.bohemiancoding.com/sketch -->
  <title
     id="title4">Icon-trolley</title>
  <desc
     id="desc6">Created with Sketch.</desc>
  <defs
     id="defs8" />
  <path
     id="Fill-4"
     style="fill:#000000;fill-rule:evenodd;stroke:none"
     d="m 1530.0061,1855.9115 c -119.8522,0 -217.3516,-97.7032 -217.3516,-217.8676 0,-120.1347 97.4994,-217.8379 217.3516,-217.8379 119.8523,0 217.3244,97.7032 217.3244,217.8379 0,120.1644 -97.4721,217.8676 -217.3244,217.8676 l 0,0 z m 0,-277.2512 c -32.6546,0 -59.2976,26.6799 -59.2976,59.3836 0,32.7334 26.643,59.4384 59.2976,59.4384 32.6274,0 59.2703,-26.705 59.2703,-59.4384 0,-32.7037 -26.6429,-59.3836 -59.2703,-59.3836 l 0,0 z m -658.66784,277.2512 c -119.87953,0 -217.35166,-97.7032 -217.35166,-217.8676 0,-120.1347 97.47213,-217.8379 217.35166,-217.8379 119.87953,0 217.35164,97.7032 217.35164,217.8379 0,120.1644 -97.47211,217.8676 -217.35164,217.8676 l 0,0 z m 0,-277.2512 c -32.65467,0 -59.27027,26.6799 -59.27027,59.3836 0,32.7334 26.6156,59.4384 59.27027,59.4384 32.62735,0 59.27028,-26.705 59.27028,-59.4384 0,-32.7037 -26.64293,-59.3836 -59.27028,-59.3836 l 0,0 z M 104.4891,192.34527 c -46.481664,-3.64211 -80.761513,31.94704 -82.619688,75.4973 -1.940152,43.71664 31.912199,80.67556 75.497304,82.61969 l 245.722354,10.68472 59.11581,217.23167 c 0.45675,4.19594 0.99463,8.68817 2.13672,12.82029 l 202.27579,735.03036 c 2.35686,8.5878 5.8789,16.4396 10.68358,23.505 1.97626,2.9241 4.0891,5.9395 6.41015,8.5468 0.4474,0.5015 0.965,0.9345 1.42448,1.4131 0.22336,0.2279 0.48683,0.4786 0.71224,0.7066 11.56994,11.9131 26.66977,19.9723 43.44656,22.7916 0.22336,0 0.48933,0 0.71224,0 4.0634,0.6382 8.60448,1.4131 12.82029,1.4131 l 1061.94787,0 c 35.5786,0 66.7821,-24.0566 76.2096,-58.4036 l 202.2758,-735.03031 c 6.5855,-23.83093 2.0724,-49.42139 -12.8203,-69.08601 -14.9747,-19.72161 -38.7138,-31.3385 -63.3893,-31.3385 l -1405.24693,0 -61.96477,-227.20529 c -9.09958,-33.1983 -38.38144,-56.2133 -72.64835,-57.6902 L 104.4891,192.34527 z m 480.76113,456.54615 1258.52577,0 -158.8292,576.91328 -941.57958,0 -0.71223,0 -157.40476,-576.91328 z"
     inkscape:connector-curvature="0" />
</svg>
