<?xml version="1.0" encoding="UTF-8" standalone="no"?>
<!-- Generator: Adobe Illustrator 18.1.0, SVG Export Plug-In . SVG Version: 6.00 Build 0)  -->

<svg
   xmlns:dc="http://purl.org/dc/elements/1.1/"
   xmlns:cc="http://creativecommons.org/ns#"
   xmlns:rdf="http://www.w3.org/1999/02/22-rdf-syntax-ns#"
   xmlns:svg="http://www.w3.org/2000/svg"
   xmlns="http://www.w3.org/2000/svg"
   xmlns:sodipodi="http://sodipodi.sourceforge.net/DTD/sodipodi-0.dtd"
   xmlns:inkscape="http://www.inkscape.org/namespaces/inkscape"
   version="1.1"
   id="Layer_1"
   x="0px"
   y="0px"
   viewBox="0 0 2048 2048"
   enable-background="new 0 0 70 70"
   xml:space="preserve"
   inkscape:version="0.48.4 r9939"
   width="2048"
   height="2048"
   sodipodi:docname="Icon-up.svg"><metadata
     id="metadata9"><rdf:RDF><cc:Work
         rdf:about=""><dc:format>image/svg+xml</dc:format><dc:type
           rdf:resource="http://purl.org/dc/dcmitype/StillImage" /></cc:Work></rdf:RDF></metadata><defs
     id="defs7" /><sodipodi:namedview
     pagecolor="#ffffff"
     bordercolor="#666666"
     borderopacity="1"
     objecttolerance="10"
     gridtolerance="10"
     guidetolerance="10"
     inkscape:pageopacity="0"
     inkscape:pageshadow="2"
     inkscape:window-width="1920"
     inkscape:window-height="1056"
     id="namedview5"
     showgrid="false"
     inkscape:zoom="0.297995"
     inkscape:cx="715.42184"
     inkscape:cy="970.97963"
     inkscape:window-x="1920"
     inkscape:window-y="24"
     inkscape:window-maximized="1"
     inkscape:current-layer="Layer_1" /><path
     d="M 1024,1974 C 500.14285,1974 74,1547.8572 74,1024 74,500.14283 500.14285,74 1024,74 c 523.8572,0 950,426.14283 950,950 0,523.8572 -426.1428,950 -950,950 z M 1542.4286,1138 1043,663 l 0,0 c -5.4286,-5.42848 -10.8571,-8.14283 -19,-8.14283 -8.1429,0 -13.5714,2.71435 -19,8.14283 l 0,0 -499.42857,475 0,0 c -5.42858,5.4285 -8.14286,10.8572 -8.14286,19 0,13.5715 10.85715,27.1428 27.14284,27.1428 8.14287,0 13.57146,-2.7143 19.00002,-8.1428 l 0,0 L 1024,717.28566 1507.1429,1176 l 0,0 c 5.4286,5.4285 10.8571,8.1428 19,8.1428 13.5714,0 27.1428,-10.8571 27.1428,-27.1428 -2.7143,-8.1428 -5.4285,-13.5715 -10.8571,-19 l 0,0 z"
     id="path3"
     inkscape:connector-curvature="0" /></svg>