<?xml version="1.0" encoding="UTF-8" standalone="no"?>
<svg
   xmlns:sketch="http://www.bohemiancoding.com/sketch/ns"
   xmlns:dc="http://purl.org/dc/elements/1.1/"
   xmlns:cc="http://creativecommons.org/ns#"
   xmlns:rdf="http://www.w3.org/1999/02/22-rdf-syntax-ns#"
   xmlns:svg="http://www.w3.org/2000/svg"
   xmlns="http://www.w3.org/2000/svg"
   xmlns:sodipodi="http://sodipodi.sourceforge.net/DTD/sodipodi-0.dtd"
   xmlns:inkscape="http://www.inkscape.org/namespaces/inkscape"
   width="2048"
   height="2048"
   viewBox="0 0 2048 2048"
   version="1.1"
   id="svg2"
   inkscape:version="0.48.4 r9939"
   sodipodi:docname="wand.svg">
  <metadata
     id="metadata15">
    <rdf:RDF>
      <cc:Work
         rdf:about="">
        <dc:format>image/svg+xml</dc:format>
        <dc:type
           rdf:resource="http://purl.org/dc/dcmitype/StillImage" />
      </cc:Work>
    </rdf:RDF>
  </metadata>
  <sodipodi:namedview
     pagecolor="#ffffff"
     bordercolor="#666666"
     borderopacity="1"
     objecttolerance="10"
     gridtolerance="10"
     guidetolerance="10"
     inkscape:pageopacity="0"
     inkscape:pageshadow="2"
     inkscape:window-width="1920"
     inkscape:window-height="1056"
     id="namedview13"
     showgrid="false"
     inkscape:zoom="0.34302326"
     inkscape:cx="45.486054"
     inkscape:cy="882.51591"
     inkscape:window-x="1920"
     inkscape:window-y="24"
     inkscape:window-maximized="1"
     inkscape:current-layer="svg2" />
  <!-- Generator: Sketch 3.1 (8751) - http://www.bohemiancoding.com/sketch -->
  <title
     id="title4">Icon-Process</title>
  <desc
     id="desc6">Created with Sketch.</desc>
  <defs
     id="defs8" />
  <path
     d="M 625.95909,493.28059 675.05088,321.2817 847.09296,272.14626 675.05088,223.01083 625.95909,51.011941 576.82321,223.01083 l -171.99799,49.13543 171.99799,49.13544 49.13588,171.99889 0,0 z m 530.72121,176.90655 29.4551,-103.22602 103.2253,-29.45502 -103.2253,-29.498 -29.4551,-103.18305 -29.4993,103.18305 -103.181,29.498 103.181,29.45502 29.4993,103.22602 0,0 z m 530.7213,0 68.7724,-240.77176 240.8147,-68.81584 -240.7704,-68.8181 -68.8167,-240.769499 -68.817,240.769499 -240.7704,68.8181 240.7704,68.81584 68.817,240.77176 0,0 z m -1474.255,162.13381 103.22512,-29.45502 -103.22512,-29.498 -29.45502,-103.18079 -29.49936,103.18079 -103.181012,29.498 103.181012,29.45502 29.49936,103.22603 29.45502,-103.22603 0,0 z m 1562.7085,-73.68053 -49.1361,171.99663 -171.9978,49.13769 171.9978,49.17836 49.1361,171.9537 49.0915,-171.9537 172.0421,-49.17836 -172.0421,-49.13769 -49.0915,-171.99663 0,0 z m -1326.80301,486.49418 -58.99848,206.3616 -206.36203,58.9982 206.36203,58.9553 58.99848,206.4068 58.95437,-206.4068 206.40614,-58.9553 -206.40614,-58.9982 -58.95437,-206.3616 0,0 z M 1985.1362,1740.121 1015.3758,770.36001 c -0.5314,-0.5654 -0.7079,-1.44742 -1.1941,-1.9902 -27.19953,-27.20022 -104.19828,5.88241 -172.08641,73.72576 -67.84381,67.88859 -100.8812,144.88688 -73.72599,172.08713 0.57444,0.5427 1.41576,0.6558 2.03544,1.1986 l 969.76006,969.7158 c 0.4433,0.6106 0.6197,1.5153 1.1942,2.0354 27.1111,27.155 104.1541,-5.8394 172.0421,-73.728 67.8881,-67.8863 100.8814,-144.8869 73.7703,-172.0419 -0.5745,-0.5654 -1.4588,-0.7463 -2.0355,-1.2438 l 0,0 z m -814.3476,-569.2866 c -32.6834,32.6823 -50.1972,67.6669 -40.379,79.4295 l -39.1848,-39.1392 -0.3528,0.3166 -221.1339,-221.1343 0.97248,-1.01772 c -0.79608,-0.36186 -2.12363,0 -2.69785,-0.65586 -11.10105,-11.10218 6.89922,-47.05703 40.20213,-80.36129 33.25857,-33.302 69.25911,-51.25907 80.31582,-40.1569 0.61968,0.54278 0.35281,1.89974 0.70788,2.65285 l 1.06069,-1.01771 221.17795,221.13433 -0.3528,0.3618 39.2292,39.2274 c -11.6759,-9.994 -46.792,7.608 -79.5641,40.3808 l 0,0 z m -279.46877,560.7943 -29.49935,103.1808 -103.18102,29.5003 103.18102,29.455 29.49935,103.2238 29.45502,-103.2238 103.22515,-29.455 -103.22515,-29.5003 -29.45502,-103.1808 0,0 z"
     id="Icon-Process"
     sketch:type="MSShapeGroup"
     style="fill:#000000;fill-rule:evenodd;stroke:none"
     inkscape:connector-curvature="0" />
</svg>
