<?xml version="1.0" encoding="UTF-8" standalone="no"?>
<!-- Generator: Adobe Illustrator 16.0.4, SVG Export Plug-In . SVG Version: 6.00 Build 0)  -->

<svg
   xmlns:dc="http://purl.org/dc/elements/1.1/"
   xmlns:cc="http://creativecommons.org/ns#"
   xmlns:rdf="http://www.w3.org/1999/02/22-rdf-syntax-ns#"
   xmlns:svg="http://www.w3.org/2000/svg"
   xmlns="http://www.w3.org/2000/svg"
   xmlns:sodipodi="http://sodipodi.sourceforge.net/DTD/sodipodi-0.dtd"
   xmlns:inkscape="http://www.inkscape.org/namespaces/inkscape"
   version="1.1"
   id="Layer_1"
   x="0px"
   y="0px"
   width="2048"
   height="2048"
   viewBox="155.64 243.403 2048 2048"
   enable-background="new 155.64 243.403 530.682 107.004"
   xml:space="preserve"
   inkscape:version="0.91 r"
   sodipodi:docname="woocommerce.svg"><metadata
     id="metadata23"><rdf:RDF><cc:Work
         rdf:about=""><dc:format>image/svg+xml</dc:format><dc:type
           rdf:resource="http://purl.org/dc/dcmitype/StillImage" /><dc:title></dc:title></cc:Work></rdf:RDF></metadata><defs
     id="defs21" /><sodipodi:namedview
     pagecolor="#ffffff"
     bordercolor="#666666"
     borderopacity="1"
     objecttolerance="10"
     gridtolerance="10"
     guidetolerance="10"
     inkscape:pageopacity="0"
     inkscape:pageshadow="2"
     inkscape:window-width="1855"
     inkscape:window-height="1056"
     id="namedview19"
     showgrid="false"
     inkscape:zoom="0.30244101"
     inkscape:cx="754.5529"
     inkscape:cy="972.85327"
     inkscape:window-x="65"
     inkscape:window-y="24"
     inkscape:window-maximized="1"
     inkscape:current-layer="g3" /><g
     id="g3"
     transform="translate(0,1940.996)"><path
       d="m 390.21194,-1250.6362 c -99.86075,0 -180.72377,81.6532 -179.95802,180.7374 l 0,602.39491 c 0,99.87154 80.86589,180.71636 180.73742,180.71636 l 747.44826,0 341.6106,190.23773 -77.6665,-190.23773 565.9314,0 c 99.8716,0 180.7164,-80.84482 180.7164,-180.71636 l 0,-602.39491 c 0,-99.8715 -80.8448,-180.7374 -180.7164,-180.7374 l -1578.10316,0 z m 652.76126,105.9568 c 15.602,0.1616 29.9995,5.7056 43.1832,16.1147 15.067,11.8961 22.9763,26.9572 24.5617,45.1843 0.7873,14.2689 -1.5787,26.158 -7.9204,38.0434 -30.9106,57.0648 -56.2873,152.97057 -76.8872,286.12543 -19.8233,129.19667 -26.94795,229.85554 -22.2024,301.98738 1.5854,19.82332 -1.5834,37.25837 -9.5214,52.32539 -9.5126,17.43977 -23.76566,26.95759 -42.00355,28.54302 -20.61064,1.58544 -42.02629,-7.91368 -62.62614,-29.32243 -73.71728,-75.30271 -132.36957,-187.86413 -175.17628,-337.67144 -51.51042,101.45698 -89.57195,177.5369 -114.13,228.26 -46.7649,89.57161 -86.39703,135.54986 -119.69114,137.9334 -21.39796,1.57465 -39.63079,-16.63424 -55.48512,-54.68465 -40.42317,-103.82973 -84.02748,-304.3844 -130.79239,-601.6155 -2.37276,-20.5998 1.60414,-38.8359 12.70217,-53.1048 11.09804,-15.0562 27.74897,-22.9763 49.94504,-24.5617 40.42317,-3.1709 63.40201,15.8437 68.94564,57.065 24.56883,165.65084 51.53013,305.95027 80.06794,420.87804 l 173.59641,-330.53041 c 15.85434,-30.12324 35.67461,-45.96903 59.44533,-47.54363 34.86876,-2.3836 56.27094,19.80038 64.98543,66.5653 19.82332,105.41516 45.17374,194.99503 75.2862,271.08506 20.61064,-201.32851 55.49203,-346.36786 104.6297,-435.93956 11.89614,-22.196 29.34196,-33.2878 52.32536,-34.8625 2.2784,-0.1982 4.533,-0.2969 6.7619,-0.2738 z m 301.545,85.8608 c 13.4816,0 27.7478,1.5898 42.8041,4.7607 55.4901,11.8853 98.2943,42.0128 126.8321,91.94856 25.3669,42.80671 38.0541,94.3227 38.0434,156.15461 0,81.63366 -20.6153,156.13691 -61.8258,224.29978 -47.563,79.2609 -109.3893,118.89067 -186.2775,118.89067 -13.4708,0 -27.7478,-1.56875 -42.804,-4.73961 -56.2775,-11.88536 -98.2733,-42.01282 -126.8111,-91.94858 -25.3669,-43.59405 -38.0644,-95.92128 -38.0644,-156.95508 0,-81.64445 20.6152,-156.14483 61.8257,-223.52037 48.3611,-79.25008 110.1875,-118.89068 186.2775,-118.89068 z m 496.9857,0 c 13.4816,0 27.7478,1.5898 42.8041,4.7607 56.2775,11.8853 98.2944,42.0128 126.8322,91.94856 25.3561,42.80671 38.0433,94.3227 38.0433,156.15461 0,81.63366 -20.6152,156.13691 -61.8257,224.29978 -47.563,79.2609 -109.3893,118.89067 -186.2775,118.89067 -13.4707,0 -27.7477,-1.56875 -42.804,-4.73961 -56.2775,-11.88536 -98.2733,-42.01282 -126.8112,-91.94858 -25.3669,-43.59405 -38.0643,-95.92128 -38.0643,-156.95508 0,-81.64445 20.6152,-156.14483 61.8257,-223.52037 48.3611,-79.25008 110.1874,-118.89068 186.2774,-118.89068 z m -493.3414,132.89888 c -24.7854,-0.14301 -48.895,16.23587 -71.7895,50.21888 -21.4087,30.12324 -34.8745,61.82215 -42.0035,94.32893 -3.9798,18.21631 -5.5612,38.03187 -5.5612,57.8444 0,22.9834 4.7587,47.54683 14.2821,72.12645 11.8853,30.91057 27.7282,47.56672 46.7643,51.52491 19.8125,3.9582 41.2015,-4.77265 64.1849,-25.38329 29.3359,-26.15426 49.1478,-64.99149 60.2458,-117.3108 3.9582,-18.2271 5.5395,-38.02395 5.5611,-58.62381 0,-22.98339 -4.7483,-47.57868 -14.261,-72.14751 -11.8962,-30.91057 -27.739,-47.55594 -46.7642,-51.52492 -3.5672,-0.69165 -7.1181,-1.03279 -10.6588,-1.05328 z m 496.9646,0 c -24.7853,-0.14301 -48.8739,16.23587 -71.7683,50.21888 -21.4088,30.12324 -34.8955,61.82215 -42.0246,94.32893 -3.9798,18.21631 -5.5401,38.03187 -5.5401,57.8444 0,22.9834 4.7376,47.54683 14.261,72.12645 11.8853,30.91057 27.7282,47.56672 46.7642,51.52491 19.8125,3.9582 41.2227,-4.77265 64.2061,-25.38329 29.3359,-26.15426 49.1477,-64.99149 60.2457,-117.3108 3.1709,-18.2271 5.5186,-38.02395 5.5402,-58.62381 0,-22.98339 -4.7484,-47.57868 -14.261,-72.14751 -11.8962,-30.91057 -27.7391,-47.55594 -46.7643,-51.52492 -3.5672,-0.69165 -7.118,-1.03279 -10.6589,-1.05328 z"
       id="path5"
       inkscape:connector-curvature="0" /></g></svg>