<?xml version="1.0" encoding="UTF-8" standalone="no"?>
<!-- Created with Inkscape (http://www.inkscape.org/) -->

<svg
   xmlns:dc="http://purl.org/dc/elements/1.1/"
   xmlns:cc="http://creativecommons.org/ns#"
   xmlns:rdf="http://www.w3.org/1999/02/22-rdf-syntax-ns#"
   xmlns:svg="http://www.w3.org/2000/svg"
   xmlns="http://www.w3.org/2000/svg"
   xmlns:sodipodi="http://sodipodi.sourceforge.net/DTD/sodipodi-0.dtd"
   xmlns:inkscape="http://www.inkscape.org/namespaces/inkscape"
   id="svg2"
   version="1.1"
   inkscape:version="0.91 r13725"
   xml:space="preserve"
   width="2048"
   height="2048"
   viewBox="0 0 2048 2048.0001"
   sodipodi:docname="zconnect.svg"><metadata
     id="metadata8"><rdf:RDF><cc:Work
         rdf:about=""><dc:format>image/svg+xml</dc:format><dc:type
           rdf:resource="http://purl.org/dc/dcmitype/StillImage" /><dc:title /></cc:Work></rdf:RDF></metadata><sodipodi:namedview
     pagecolor="#ffffff"
     bordercolor="#666666"
     borderopacity="1"
     objecttolerance="10"
     gridtolerance="10"
     guidetolerance="10"
     inkscape:pageopacity="0"
     inkscape:pageshadow="2"
     inkscape:window-width="1855"
     inkscape:window-height="1056"
     id="namedview4"
     showgrid="false"
     inkscape:zoom="0.22875531"
     inkscape:cx="1041.6276"
     inkscape:cy="882.16358"
     inkscape:window-x="65"
     inkscape:window-y="24"
     inkscape:window-maximized="1"
     inkscape:current-layer="g10" /><g
     id="g10"
     inkscape:groupmode="layer"
     inkscape:label="ZConnect logo"
     transform="matrix(1.25,0,0,-1.25,0,2048)"><path
       inkscape:connector-curvature="0"
       id="path14"
       style="fill:#000000;fill-opacity:1;fill-rule:nonzero;stroke:none"
       d="m 229.5434,1506.2353 0,-38.4702 0,-1052.91016 0,-38.47019 38.45294,0 1023.96266,0 38.4529,0 0,38.47019 0,1020.42616 -38.4529,-52.3919 0,-968.03426 -1023.96266,0 0,1052.91016 745.23486,0 27.878,38.4702 -811.5658,0 z" /><path
       inkscape:connector-curvature="0"
       id="path18"
       style="fill:#000000;fill-opacity:1;fill-rule:nonzero;stroke:none"
       d="M 1157.7308,1604.3688 367.3495,513.71299 l 240.67159,0 800.83551,1090.65581 -251.1258,0 z" /><path
       inkscape:connector-curvature="0"
       id="path22"
       style="fill:#000000;fill-opacity:1;fill-rule:nonzero;stroke:none"
       d="m 918.6894,676.59377 -124.48471,0 -119.55086,-162.8859 244.03557,0 196.3015,0 0,162.8859 0,58.22282 -196.3015,0 0,-58.22282 z" /><path
       inkscape:connector-curvature="0"
       id="path26"
       style="fill:#000000;fill-opacity:1;fill-rule:nonzero;stroke:none"
       d="m 683.98675,1194.7371 110.14896,0 118.29152,162.8859 -228.44048,0 -196.30148,0 0,-162.8859 0,-58.2228 196.30148,0 0,58.2228 z" /><path
       inkscape:connector-curvature="0"
       id="path38"
       style="fill:#000000;fill-opacity:1;fill-rule:nonzero;stroke:none"
       d="m 367.96535,58.305374 c -7.74579,-7.090246 -33.38109,-24.272448 -67.41772,-24.272448 -36.40004,0 -68.41828,16.181632 -68.41828,70.108904 l 0,72.81735 c 0,51.56385 29.65482,67.07269 69.09108,67.07269 25.96307,0 52.25391,-9.78144 64.72653,-15.83661 L 355.1477,198.52318 c -13.47319,5.39963 -35.72725,12.14485 -51.23608,12.14485 -22.23681,0 -29.32705,-7.76304 -29.32705,-34.38165 l 0,-72.14455 c 0,-25.273017 8.43584,-36.400046 30.34487,-36.400046 19.89064,0 40.45408,9.781435 56.63571,20.563439 l 6.4002,-29.999849 z" /><path
       inkscape:connector-curvature="0"
       id="path42"
       style="fill:#000000;fill-opacity:1;fill-rule:nonzero;stroke:none"
       d="m 527.69945,100.77612 c 0,-51.581109 -31.69047,-66.74492 -70.7817,-66.74492 -39.10849,0 -70.45393,15.163811 -70.45393,66.74492 l 0,76.18133 c 0,51.56386 31.34544,67.07269 70.45393,67.07269 39.09123,0 70.7817,-15.50883 70.7817,-67.07269 l 0,-76.18133 z M 485.572,176.95745 c 0,25.94582 -8.76361,33.36383 -28.65425,33.36383 -19.89064,0 -28.32648,-7.41801 -28.32648,-33.36383 l 0,-76.18133 c 0,-25.963067 8.43584,-33.036061 28.32648,-33.036061 19.89064,0 28.65425,7.072994 28.65425,33.036061 l 0,76.18133 z" /><path
       inkscape:connector-curvature="0"
       id="path46"
       style="fill:#000000;fill-opacity:1;fill-rule:nonzero;stroke:none"
       d="m 664.4791,240.67306 0,-128.09021 -74.83574,128.09021 -34.03663,0 0,-203.615996 34.38166,0 0,124.726226 72.12729,-124.726226 36.74508,0 0,203.615996 -34.38166,0 z" /><path
       inkscape:connector-curvature="0"
       id="path50"
       style="fill:#000000;fill-opacity:1;fill-rule:nonzero;stroke:none"
       d="m 837.59669,240.67306 0,-128.09021 -74.81848,128.09021 -34.05389,0 0,-203.615996 34.38166,0 0,124.726226 72.14455,-124.726226 36.72782,0 0,203.615996 -34.38166,0 z" /><path
       inkscape:connector-curvature="0"
       id="path54"
       style="fill:#000000;fill-opacity:1;fill-rule:nonzero;stroke:none"
       d="m 901.85916,240.67306 0,-203.615996 121.32774,0 0,31.345443 -79.20029,0 0,59.326903 62.01809,0 0,31.69047 -62.01809,0 0,49.90774 75.49129,0 0,31.34544 -117.61874,0 z" /><path
       inkscape:connector-curvature="0"
       id="path58"
       style="fill:#000000;fill-opacity:1;fill-rule:nonzero;stroke:none"
       d="m 1178.6962,58.305374 c -7.7458,-7.090246 -33.3638,-24.272448 -67.4177,-24.272448 -36.4001,0 -68.4183,16.181632 -68.4183,70.108904 l 0,72.81735 c 0,51.56385 29.6548,67.07269 69.0911,67.07269 25.963,0 52.2539,-9.78144 64.7265,-15.83661 l -10.782,-29.67208 c -13.4904,5.39963 -35.7272,12.14485 -51.2361,12.14485 -22.254,0 -29.327,-7.76304 -29.327,-34.38165 l 0,-72.14455 c 0,-25.273017 8.4186,-36.400046 30.3276,-36.400046 19.8906,0 40.4541,9.781435 56.6357,20.563439 l 6.4002,-29.999849 z" /><path
       inkscape:connector-curvature="0"
       id="path62"
       style="fill:#000000;fill-opacity:1;fill-rule:nonzero;stroke:none"
       d="m 1192.6196,240.67306 0,-31.34544 47.8721,0 0,-172.270556 42.1102,0 0,172.270556 48.2171,0 0,31.34544 -138.1994,0 z" /></g></svg>
