<?xml version="1.0" encoding="UTF-8" standalone="no"?>
<svg
   xmlns:dc="http://purl.org/dc/elements/1.1/"
   xmlns:cc="http://creativecommons.org/ns#"
   xmlns:rdf="http://www.w3.org/1999/02/22-rdf-syntax-ns#"
   xmlns:svg="http://www.w3.org/2000/svg"
   xmlns="http://www.w3.org/2000/svg"
   xmlns:sodipodi="http://sodipodi.sourceforge.net/DTD/sodipodi-0.dtd"
   xmlns:inkscape="http://www.inkscape.org/namespaces/inkscape"
   xml:space="preserve"
   enable-background="new 0 0 407 304"
   viewBox="0 0 2048 2048"
   height="2048"
   width="2048"
   y="0px"
   x="0px"
   id="Layer_1"
   version="1.1"
   inkscape:version="0.91 r13725"
   sodipodi:docname="zoetropatron.svg"><metadata
     id="metadata7"><rdf:RDF><cc:Work
         rdf:about=""><dc:format>image/svg+xml</dc:format><dc:type
           rdf:resource="http://purl.org/dc/dcmitype/StillImage" /></cc:Work></rdf:RDF></metadata><sodipodi:namedview
     pagecolor="#ffffff"
     bordercolor="#666666"
     borderopacity="1"
     objecttolerance="10"
     gridtolerance="10"
     guidetolerance="10"
     inkscape:pageopacity="0"
     inkscape:pageshadow="2"
     inkscape:window-width="1855"
     inkscape:window-height="1056"
     id="namedview5"
     showgrid="false"
     inkscape:zoom="0.32593203"
     inkscape:cx="562.37409"
     inkscape:cy="924.46058"
     inkscape:window-x="65"
     inkscape:window-y="24"
     inkscape:window-maximized="1"
     inkscape:current-layer="Layer_1" /><defs
     id="defs91" /><path
     style="fill:#000000;stroke:none"
     d="m 2173.1324,179.09958 c -24.1144,-2.2e-4 -43.6633,19.54864 -43.663,43.66301 0,24.11414 19.5489,43.66323 43.663,43.66302 24.1142,2.1e-4 43.6631,-19.54888 43.6631,-43.66302 3e-4,-24.11437 -19.5486,-43.66323 -43.6631,-43.66301 z m -142.6279,75.68718 c -28.9396,-0.005 -52.4028,23.45257 -52.4045,52.39215 0,28.93934 23.4652,52.39679 52.4045,52.39214 28.935,-0.001 52.3903,-23.45726 52.3922,-52.39214 0,-28.93513 -23.457,-52.39051 -52.3922,-52.39215 z m 142.6279,104.79666 c -17.6814,-0.001 -32.0168,14.32783 -32.0217,32.00932 0,17.6861 14.3356,32.02576 32.0217,32.02416 17.6862,0.001 32.0233,-14.33803 32.0217,-32.02416 0,-17.68154 -14.3401,-32.01099 -32.0217,-32.00932 z m -64.3081,184.26697 c -19.1398,0 -34.6567,15.22749 -34.6567,34.36727 l 16.2978,60.80212 c 0,14.56684 8.996,26.85911 21.7289,31.90787 l 0,761.72365 c 0,26.5895 -17.0757,47.5625 -41.4214,47.5625 l -182.3667,0 0,-636.70753 c 0,-19.13979 -15.517,-34.65676 -34.6568,-34.65676 l -265.692,0 0,-62.51428 c 0,-4.49934 -3.6557,-8.15511 -8.1551,-8.15511 l -1.9075,0 c -2.6112,-27.88137 -25.9996,-49.20297 -54.0029,-49.23007 -28.0211,0.004 -51.4371,21.33112 -54.05,49.23007 l -15.0681,0 c -4.4994,0 -8.1552,3.65577 -8.1552,8.15511 l 0,62.51428 -53.0032,0 0,-109.6264 c 0,-4.49934 -3.6559,-8.15511 -8.1551,-8.15511 l -56.7394,0 c -9.6525,-62.56957 -63.4806,-108.75975 -126.7902,-108.8 -63.2792,0.0801 -117.0609,46.26062 -126.7087,108.8 l -56.247,0 c -4.4993,0 -8.1551,3.65577 -8.1551,8.15511 l 0,109.6264 -206.7999,0 c -19.13977,0 -34.65428,15.51697 -34.65428,34.65676 l 0,683.82213 -80.18288,0 c -4.49931,0 -8.15511,3.6558 -8.15511,8.1551 l 0,48.4705 c 0,0.2452 0.0158,0.4852 0.0371,0.7248 l -88.37511,0 0,-57.3504 -200.2308,0 0,57.3504 -53.00329,0 0,-222.2466 -194.3421,0 0,222.2466 -53.003282,0 0,-157.4658 -194.342098,0 0,157.4658 -87.04643,0 0,81.623 91.777193,0 c -36.401913,13.6644 -62.311403,48.7784 -62.311403,89.9561 0,53.0555 42.99971,96.0675 96.055166,96.0675 53.055465,0 96.067528,-43.012 96.067528,-96.0675 0,-41.1777 -25.9162853,-76.2917 -62.321294,-89.9561 l 293.18573,0 c -36.40502,13.6644 -62.3213,48.7784 -62.3213,89.9561 0,53.0555 43.01207,96.0675 96.06754,96.0675 53.05546,0 96.06753,-43.012 96.06753,-96.0675 0,-41.1777 -25.91629,-76.2917 -62.3213,-89.9561 l 293.17336,0 c -36.40501,13.6644 -62.3213,48.7784 -62.3213,89.9561 0,53.0555 43.01207,96.0675 96.06753,96.0675 53.05547,0 96.06506,-43.012 96.06506,-96.0675 0,-41.1778 -25.9161,-76.2917 -62.32129,-89.9561 l 78.03523,0 0,167.9419 c 0,19.1398 15.51451,34.6567 34.65428,34.6567 l 1013.6167,0 36.0127,0 140.6608,0 0,-123.6727 -106.004,0 0,-182.5647 182.3667,0 c 69.286,0 129.7593,-58.4761 129.7593,-130.0117 l 0,-762.32242 c 11.993,-5.37028 20.3457,-17.27749 20.3457,-31.3091 l 16.3003,-60.80212 c 0,-19.13978 -15.5169,-34.36727 -34.6567,-34.36727 l -93.6972,0 z M -63.657304,1693.1572 c 34.846183,0 63.1031598,28.2544 63.1031598,63.1007 0,34.8462 -28.2510988,63.1007 -63.1031598,63.1007 -34.846169,0 -63.088316,-28.2546 -63.088316,-63.1007 0,-34.8463 28.242147,-63.1007 63.088316,-63.1007 z m 362.714504,0 c 34.84618,0 63.10069,28.2544 63.10069,63.1007 0,34.8462 -28.25451,63.1007 -63.10069,63.1007 -34.84617,0 -63.10316,-28.2546 -63.10316,-63.1007 0,-34.8463 28.25699,-63.1007 63.10316,-63.1007 z m 358.62952,0 c 34.84617,0 63.10069,28.2544 63.10069,63.1007 0,34.8462 -28.25452,63.1007 -63.10069,63.1007 -34.84617,0 -63.09078,-28.2546 -63.09078,-63.1007 0,-34.8463 28.24461,-63.1007 63.09078,-63.1007 z"
     id="path7"
     inkscape:connector-curvature="0" /></svg>